<svg width="300" height="150" viewBox="0 0 300 150" fill="none" xmlns="http://www.w3.org/2000/svg">
<path d="M138.453 67.5583C132.379 45.8862 90.4057 17.8158 88.6235 16.6301C87.7539 16.0574 86.6697 15.9231 85.6868 16.2692C84.7696 16.5973 80.7725 18.0723 76.1744 20.5078L71.6046 16.7703C67.9446 13.9246 62.647 14.5779 59.7939 18.2393L56.6514 22.2752C53.8013 25.9382 54.462 31.2328 58.0608 34.0382L60.1906 35.7772C59.5448 37.8354 59.4195 39.9264 59.8685 41.9727C57.6447 42.9436 54.626 44.3411 51.418 46.0383L45.4507 41.391C43.6759 40.0114 41.4671 39.4074 39.2403 39.6803C37.0091 39.9577 35.0181 41.0867 33.64 42.8616L30.499 46.8944C29.1164 48.6677 28.5079 50.8706 28.7853 53.1048C29.0657 55.3375 30.1918 57.3226 31.9666 58.7066L33.8189 60.1459C33.3417 61.0124 32.9554 61.8849 32.7526 62.7619C32.4274 64.1608 32.4453 65.5255 32.8003 66.8186C31.1731 67.6851 29.1299 68.8261 26.9255 70.1549L20.733 65.3346C17.0701 62.4874 11.7754 63.1392 8.92082 66.8037L5.77985 70.835C4.39579 72.6098 3.78728 74.8172 4.06618 77.0484C4.34359 79.2796 5.4741 81.2721 7.24743 82.6487L9.60092 84.4787C8.29889 86.3505 7.41298 88.2402 7.18329 90.103C6.93124 92.1716 7.28173 95.1888 10.3988 97.8331C25.2894 110.472 54.0563 138.306 55.852 144.711C55.9848 145.185 56.2234 145.62 56.547 145.993C56.7901 146.272 59.0512 148.73 63.0751 148.979C63.2988 148.994 63.5225 149 63.7477 149C66.3935 149 69.1035 148.026 71.8343 146.12C73.1468 146.936 74.6561 147.422 76.2594 147.422C77.897 147.422 79.4899 146.951 80.8605 146.048L85.1395 143.246C89.0217 140.708 90.1104 135.482 87.572 131.599L86.6309 130.159C90.4669 126.217 90.1224 121.244 88.6473 118.348C80.2237 97.4573 43.7191 68.9901 39.6207 65.8447C39.1255 65.2257 39.0673 64.7664 39.1866 64.2533C39.3761 63.4464 43.3194 55.9609 65.2839 46.8646C66.1534 46.5051 66.8365 45.8086 67.1571 44.9257C67.4763 44.0413 67.4077 43.0644 66.9633 42.2381C66.0729 40.5797 65.9625 39.0241 66.6113 37.3358C69.0304 31.0598 80.5294 25.3953 86.3594 23.0776C93.6586 28.1112 127.37 52.1189 132.117 69.4271C132.169 69.6091 132.165 69.63 132.247 69.803C132.545 70.7172 131.898 72.9096 127.822 75.2974C126.424 74.3026 124.766 73.6986 122.989 73.6986C121.352 73.6986 119.76 74.1699 118.382 75.0692L114.105 77.8702C112.227 79.1006 110.94 80.9888 110.479 83.1901C110.149 84.7636 110.293 86.3624 110.84 87.8315C100.573 67.5225 74.674 48.4828 73.5032 47.6312C72.0356 46.5588 69.967 46.878 68.8902 48.3545C67.8149 49.8296 68.1385 51.8937 69.6121 52.9691C69.8954 53.1779 98.0688 73.8761 106.264 93.6765C106.264 94.625 106.067 97.0322 104.401 98.8637C102.91 97.6333 101.05 96.9054 99.0591 96.9054C97.423 96.9054 95.8286 97.3797 94.4565 98.279L90.1731 101.083C86.2923 103.626 85.2021 108.852 87.745 112.733L93.1142 120.931C94.6757 123.319 97.3081 124.743 100.161 124.743C101.797 124.743 103.39 124.266 104.767 123.367L109.041 120.564C110.925 119.334 112.214 117.443 112.671 115.244C113.132 113.046 112.707 110.8 111.475 108.919L108.398 104.218C113.395 99.7601 112.864 93.0023 112.836 92.6682C112.804 92.355 112.731 92.0478 112.615 91.7555C112.254 90.8442 117.044 97.7227 117.044 97.7227C118.604 100.108 121.24 101.532 124.096 101.532C125.731 101.532 127.322 101.062 128.696 100.158L132.97 97.3588C134.849 96.1299 136.139 94.2372 136.6 92.0374C137.061 89.8345 136.636 87.5899 135.406 85.7107L131.981 80.4772C140.335 75.1572 139.013 69.1706 138.453 67.5583ZM35.7086 50.9526L38.8511 46.9168C39.1494 46.538 39.5744 46.2949 40.0562 46.2352C40.5394 46.1696 41.0122 46.3068 41.391 46.6021L45.2434 49.6014C42.608 51.2718 40.0949 53.0973 38.0039 55.0287L36.0233 53.4881C35.6445 53.1928 35.4014 52.7647 35.3417 52.2875C35.2821 51.8087 35.4088 51.3344 35.7086 50.9526ZM10.9924 74.8932L14.1289 70.8604C14.7404 70.0774 15.8814 69.9267 16.6704 70.5442L21.0448 73.9536C18.5719 75.6763 16.1379 77.5585 14.0066 79.5361L11.3027 77.4302C10.9238 77.1379 10.6807 76.7098 10.6211 76.2326C10.5614 75.7553 10.6941 75.2765 10.9924 74.8932ZM81.5182 137.719L77.2408 140.526C76.425 141.054 75.2572 140.802 74.7366 139.998L69.366 131.796C69.1035 131.392 69.0125 130.909 69.1109 130.438C69.2109 129.966 69.4868 129.559 69.8924 129.292L74.1684 126.49C74.4637 126.296 74.8008 126.199 75.1498 126.199C75.7687 126.199 76.337 126.502 76.671 127.016L82.0387 135.216C82.5861 136.05 82.3534 137.174 81.5182 137.719ZM82.5697 120.953C82.6055 121.041 83.387 123.003 82.7934 124.302L82.2028 123.399C80.6413 121.016 78.0059 119.59 75.1513 119.59C73.5137 119.59 71.9253 120.063 70.5502 120.965L66.2742 123.763C64.395 124.995 63.1049 126.886 62.644 129.088C62.1832 131.289 62.6082 133.534 63.8387 135.414L67.5151 141.036C64.4144 142.985 62.5471 142.342 61.8372 141.89C56.9124 130.357 20.2543 97.5333 14.6688 92.792C13.6979 91.9673 13.68 91.3901 13.7397 90.9083C13.8978 89.6242 16.8702 85.9046 16.8821 85.8867C21.3878 81.2289 29.8815 75.7851 36.9137 72.1162C44.3918 78.0074 75.5659 103.314 82.5697 120.953ZM63.5359 29.98L62.1802 28.8718C61.3942 28.2589 61.2525 27.1209 61.864 26.3364L65.005 22.3005C65.6225 21.5146 66.7619 21.3714 67.4867 21.9351L70.1743 24.135C67.7045 25.8382 65.3883 27.7995 63.5359 29.98ZM106.2 113.893C106.102 114.364 105.823 114.771 105.417 115.038L101.143 117.838C100.328 118.37 99.1635 118.118 98.6385 117.314L93.2678 109.114C92.7249 108.276 92.9606 107.155 93.7913 106.61L98.0717 103.808C98.367 103.617 98.7086 103.514 99.0561 103.514C99.6706 103.514 100.24 103.82 100.576 104.334L105.945 112.534C106.206 112.938 106.299 113.423 106.2 113.893ZM130.127 90.6846C130.029 91.1559 129.751 91.5631 129.344 91.8286L125.074 94.631C124.251 95.159 123.089 94.9099 122.567 94.1045L117.196 85.9016C116.933 85.4974 116.843 85.0142 116.941 84.5429C117.038 84.0716 117.314 83.6644 117.72 83.4004L121.994 80.5995C122.29 80.4056 122.631 80.3042 122.983 80.3042C123.598 80.3042 124.167 80.6085 124.502 81.1215L129.872 89.3244C130.136 89.7271 130.227 90.2118 130.127 90.6846Z" fill="black"/>
<path d="M119.195 68.0953C119.714 69.3824 120.95 70.1654 122.258 70.1654C122.667 70.1654 123.086 70.0878 123.493 69.9238C125.183 69.2422 126.002 67.3182 125.32 65.6284C120.032 52.4784 98.7369 36.1724 97.8301 35.4849C96.3775 34.3797 94.3058 34.6586 93.2037 36.1128C92.097 37.5684 92.3774 39.6371 93.8301 40.7422C99.5841 45.1181 115.359 58.5694 119.195 68.0953Z" fill="black"/>
<path d="M95.8316 93.0679C96.2402 93.0679 96.6593 92.9904 97.062 92.8263C98.7563 92.1477 99.5751 90.2223 98.8935 88.5265C93.6064 75.3824 72.3086 59.075 71.4048 58.3845C69.9536 57.2823 67.8835 57.5582 66.7753 59.0153C65.6731 60.468 65.9506 62.5396 67.4047 63.6433C73.1587 68.0236 88.9352 81.4705 92.7652 90.9948C93.2827 92.2819 94.5236 93.0679 95.8316 93.0679Z" fill="black"/>
<path d="M42.9674 89.1097C48.7199 93.4855 64.4979 106.935 68.3309 116.46C68.8514 117.747 70.0878 118.531 71.3958 118.531C71.8059 118.531 72.2235 118.455 72.6292 118.293C74.322 117.611 75.1408 115.687 74.4592 113.993C69.172 100.847 47.8713 84.5399 46.9675 83.8523C45.5178 82.7472 43.4432 83.0246 42.338 84.4787C41.2343 85.9344 41.5147 88.0045 42.9674 89.1097Z" fill="black"/>
<path d="M290.453 60.5583C284.379 38.8862 242.406 10.8158 240.623 9.63008C239.754 9.05737 238.67 8.92314 237.687 9.26916C236.77 9.59727 232.773 11.0723 228.174 13.5078L223.605 9.77028C219.945 6.92461 214.647 7.57786 211.794 11.2393L208.651 15.2752C205.801 18.9382 206.462 24.2328 210.061 27.0382L212.191 28.7772C211.545 30.8354 211.42 32.9264 211.868 34.9727C209.645 35.9436 206.626 37.3411 203.418 39.0383L197.451 34.391C195.676 33.0114 193.467 32.4074 191.24 32.6803C189.009 32.9577 187.018 34.0867 185.64 35.8616L182.499 39.8944C181.116 41.6677 180.508 43.8706 180.785 46.1048C181.066 48.3375 182.192 50.3226 183.967 51.7066L185.819 53.1459C185.342 54.0124 184.955 54.8849 184.753 55.7619C184.427 57.1608 184.445 58.5255 184.8 59.8186C183.173 60.6851 181.13 61.8261 178.926 63.1549L172.733 58.3346C169.07 55.4874 163.775 56.1392 160.921 59.8037L157.78 63.835C156.396 65.6098 155.787 67.8172 156.066 70.0484C156.344 72.2796 157.474 74.2721 159.247 75.6487L161.601 77.4787C160.299 79.3505 159.413 81.2402 159.183 83.103C158.931 85.1716 159.282 88.1888 162.399 90.8331C177.289 103.472 206.056 131.306 207.852 137.711C207.985 138.185 208.223 138.62 208.547 138.993C208.79 139.272 211.051 141.73 215.075 141.979C215.299 141.994 215.522 142 215.748 142C218.394 142 221.103 141.026 223.834 139.12C225.147 139.936 226.656 140.422 228.259 140.422C229.897 140.422 231.49 139.951 232.861 139.048L237.139 136.246C241.022 133.708 242.11 128.482 239.572 124.599L238.631 123.159C242.467 119.217 242.122 114.244 240.647 111.348C232.224 90.4573 195.719 61.9901 191.621 58.8447C191.125 58.2257 191.067 57.7664 191.187 57.2533C191.376 56.4464 195.319 48.9609 217.284 39.8646C218.153 39.5051 218.836 38.8086 219.157 37.9257C219.476 37.0413 219.408 36.0644 218.963 35.2381C218.073 33.5797 217.962 32.0241 218.611 30.3358C221.03 24.0598 232.529 18.3953 238.359 16.0776C245.659 21.1112 279.37 45.1189 284.117 62.4271C284.169 62.6091 284.165 62.63 284.247 62.803C284.545 63.7172 283.898 65.9096 279.822 68.2974C278.424 67.3026 276.766 66.6986 274.989 66.6986C273.352 66.6986 271.76 67.1699 270.382 68.0692L266.105 70.8702C264.227 72.1006 262.94 73.9888 262.479 76.1901C262.149 77.7636 262.293 79.3624 262.84 80.8315C252.573 60.5225 226.674 41.4828 225.503 40.6312C224.036 39.5588 221.967 39.878 220.89 41.3545C219.815 42.8296 220.139 44.8937 221.612 45.9691C221.895 46.1779 250.069 66.8761 258.264 86.6765C258.264 87.625 258.067 90.0322 256.401 91.8637C254.91 90.6333 253.05 89.9054 251.059 89.9054C249.423 89.9054 247.829 90.3797 246.456 91.279L242.173 94.083C238.292 96.6259 237.202 101.852 239.745 105.733L245.114 113.931C246.676 116.319 249.308 117.743 252.161 117.743C253.797 117.743 255.39 117.266 256.767 116.367L261.041 113.564C262.925 112.334 264.214 110.443 264.671 108.244C265.132 106.046 264.707 103.8 263.475 101.919L260.398 97.218C265.395 92.7601 264.864 86.0023 264.836 85.6682C264.804 85.355 264.731 85.0478 264.615 84.7555C264.254 83.8442 269.044 90.7227 269.044 90.7227C270.604 93.1076 273.24 94.5319 276.096 94.5319C277.731 94.5319 279.322 94.0621 280.696 93.1583L284.97 90.3588C286.849 89.1299 288.139 87.2372 288.6 85.0374C289.061 82.8345 288.636 80.5899 287.406 78.7107L283.981 73.4772C292.335 68.1572 291.013 62.1706 290.453 60.5583ZM187.709 43.9526L190.851 39.9168C191.149 39.538 191.574 39.2949 192.056 39.2352C192.539 39.1696 193.012 39.3068 193.391 39.6021L197.243 42.6014C194.608 44.2718 192.095 46.0973 190.004 48.0287L188.023 46.4881C187.644 46.1928 187.401 45.7647 187.342 45.2875C187.282 44.8087 187.409 44.3344 187.709 43.9526ZM162.992 67.8932L166.129 63.8604C166.74 63.0774 167.881 62.9267 168.67 63.5442L173.045 66.9536C170.572 68.6763 168.138 70.5585 166.007 72.5361L163.303 70.4302C162.924 70.1379 162.681 69.7098 162.621 69.2326C162.561 68.7553 162.694 68.2765 162.992 67.8932ZM233.518 130.719L229.241 133.526C228.425 134.054 227.257 133.802 226.737 132.998L221.366 124.796C221.103 124.392 221.012 123.909 221.111 123.438C221.211 122.966 221.487 122.559 221.892 122.292L226.168 119.49C226.464 119.296 226.801 119.199 227.15 119.199C227.769 119.199 228.337 119.502 228.671 120.016L234.039 128.216C234.586 129.05 234.353 130.174 233.518 130.719ZM234.57 113.953C234.605 114.041 235.387 116.003 234.793 117.302L234.203 116.399C232.641 114.016 230.006 112.59 227.151 112.59C225.514 112.59 223.925 113.063 222.55 113.965L218.274 116.763C216.395 117.995 215.105 119.886 214.644 122.088C214.183 124.289 214.608 126.534 215.839 128.414L219.515 134.036C216.414 135.985 214.547 135.342 213.837 134.89C208.912 123.357 172.254 90.5333 166.669 85.792C165.698 84.9673 165.68 84.3901 165.74 83.9083C165.898 82.6242 168.87 78.9046 168.882 78.8867C173.388 74.2289 181.882 68.7851 188.914 65.1162C196.392 71.0074 227.566 96.3142 234.57 113.953ZM215.536 22.98L214.18 21.8718C213.394 21.2589 213.253 20.1209 213.864 19.3364L217.005 15.3005C217.622 14.5146 218.762 14.3714 219.487 14.9351L222.174 17.135C219.705 18.8382 217.388 20.7995 215.536 22.98ZM258.2 106.893C258.102 107.364 257.823 107.771 257.417 108.038L253.143 110.838C252.328 111.37 251.163 111.118 250.638 110.314L245.268 102.114C244.725 101.276 244.961 100.155 245.791 99.6102L250.072 96.8078C250.367 96.6169 250.709 96.514 251.056 96.514C251.671 96.514 252.24 96.8198 252.576 97.3343L257.945 105.534C258.206 105.938 258.299 106.423 258.2 106.893ZM282.127 83.6846C282.029 84.1559 281.751 84.5631 281.344 84.8286L277.074 87.631C276.251 88.159 275.089 87.9099 274.567 87.1045L269.196 78.9016C268.933 78.4974 268.843 78.0142 268.941 77.5429C269.038 77.0716 269.314 76.6644 269.72 76.4004L273.994 73.5995C274.29 73.4056 274.631 73.3042 274.983 73.3042C275.598 73.3042 276.167 73.6085 276.502 74.1215L281.872 82.3244C282.136 82.7271 282.227 83.2118 282.127 83.6846Z" fill="black"/>
<path d="M271.195 61.0953C271.714 62.3824 272.95 63.1654 274.258 63.1654C274.667 63.1654 275.086 63.0878 275.493 62.9238C277.183 62.2422 278.002 60.3182 277.32 58.6284C272.032 45.4784 250.737 29.1724 249.83 28.4849C248.377 27.3797 246.306 27.6586 245.204 29.1128C244.097 30.5684 244.377 32.6371 245.83 33.7422C251.584 38.1181 267.359 51.5694 271.195 61.0953Z" fill="black"/>
<path d="M247.832 86.0679C248.24 86.0679 248.659 85.9904 249.062 85.8263C250.756 85.1477 251.575 83.2223 250.894 81.5265C245.606 68.3824 224.309 52.075 223.405 51.3845C221.954 50.2823 219.883 50.5582 218.775 52.0153C217.673 53.468 217.951 55.5396 219.405 56.6433C225.159 61.0236 240.935 74.4705 244.765 83.9948C245.283 85.2819 246.524 86.0679 247.832 86.0679Z" fill="black"/>
<path d="M194.967 82.1097C200.72 86.4855 216.498 99.9354 220.331 109.46C220.851 110.747 222.088 111.531 223.396 111.531C223.806 111.531 224.224 111.455 224.629 111.293C226.322 110.611 227.141 108.687 226.459 106.993C221.172 93.8473 199.871 77.5399 198.967 76.8523C197.518 75.7472 195.443 76.0246 194.338 77.4787C193.234 78.9344 193.515 81.0045 194.967 82.1097Z" fill="black"/>
</svg>
