<svg width="104" height="100" viewBox="0 0 104 100" fill="none" xmlns="http://www.w3.org/2000/svg">
<path d="M87.28 41.9C88.5565 41.9 89.8204 41.6486 90.9997 41.1601C92.179 40.6716 93.2505 39.9557 94.1531 39.0531C95.0557 38.1505 95.7716 37.079 96.2601 35.8997C96.7486 34.7204 97 33.4564 97 32.18V7H91.85V32.12C91.8487 32.7267 91.7279 33.3272 91.4945 33.8872C91.2611 34.4473 90.9197 34.9558 90.4898 35.3839C90.0598 35.812 89.5498 36.1512 88.9888 36.3822C88.4277 36.6131 87.8267 36.7313 87.22 36.73H86.07C86.07 37.57 86.14 38.43 86.14 39.31C86.14 40.19 86.14 41.05 86.07 41.89L87.28 41.9Z" fill="#343130"/>
<path d="M76.22 38.57C76.07 29.48 73.32 23.21 70.84 23.21H44.89C47.23 25.79 48.8 31.52 48.89 38.57H76.22ZM55.69 30.57C55.69 30.3711 55.769 30.1803 55.9097 30.0397C56.0503 29.899 56.2411 29.82 56.44 29.82H67.38C67.5789 29.82 67.7697 29.899 67.9103 30.0397C68.051 30.1803 68.13 30.3711 68.13 30.57V34.95C68.1274 35.1481 68.0476 35.3374 67.9075 35.4775C67.7674 35.6176 67.5781 35.6974 67.38 35.7H56.44C56.2419 35.6974 56.0526 35.6176 55.9125 35.4775C55.7724 35.3374 55.6926 35.1481 55.69 34.95V30.57Z" fill="#343130"/>
<path d="M76.22 40.07H48.91C48.81 46.49 47.49 51.82 45.49 54.67H72.36C74.33 52.73 76.1 47.31 76.22 40.07Z" fill="#343130"/>
<path d="M84.63 38.57C84.48 29.48 81.73 23.21 79.25 23.21H73.71C76.04 25.79 77.61 31.52 77.71 38.57H84.63Z" fill="#343130"/>
<path d="M32 23.82C32.1692 24.0516 32.3261 24.2919 32.47 24.54C32.52 24.62 32.57 24.7 32.61 24.78C32.65 24.86 32.86 25.23 32.98 25.47L33.1 25.71C33.25 26.03 33.39 26.36 33.53 26.71L33.6 26.9L33.93 27.82C33.93 27.94 34 28.06 34.04 28.17C34.14 28.49 34.23 28.81 34.32 29.17C34.32 29.26 34.32 29.34 34.39 29.44C34.5 29.85 34.6 30.29 34.69 30.73L34.75 31.05C34.83 31.41 34.89 31.77 34.95 32.14C34.95 32.28 35 32.42 35.02 32.56C35.09 32.98 35.14 33.4 35.2 33.83C35.2 33.9 35.2 33.97 35.2 34.04C35.26 34.54 35.31 35.05 35.35 35.57V36C35.35 36.4 35.35 36.8 35.42 37.22C35.42 37.37 35.42 37.53 35.42 37.69C35.42 37.85 35.42 38.29 35.42 38.6H47.4C47.26 29.51 44.51 23.24 42.03 23.24H31.53C31.68 23.41 31.83 23.59 31.98 23.79L32 23.82Z" fill="#343130"/>
<path d="M47.41 40.07H35.53C35.53 40.38 35.53 40.68 35.53 40.98C35.53 41.28 35.53 41.3 35.53 41.46C35.53 41.87 35.53 42.27 35.46 42.67V43.1C35.42 43.62 35.37 44.13 35.31 44.63C35.3149 44.7033 35.3149 44.7768 35.31 44.85C35.26 45.28 35.21 45.69 35.14 46.1C35.14 46.25 35.14 46.39 35.07 46.54C35.01 46.9 34.95 47.26 34.88 47.6C34.88 47.72 34.83 47.83 34.81 47.94C34.7167 48.38 34.6167 48.81 34.51 49.23C34.51 49.32 34.51 49.41 34.43 49.51C34.35 49.83 34.26 50.15 34.16 50.46C34.16 50.58 34.08 50.7 34.05 50.82C33.94 51.13 33.84 51.43 33.72 51.72C33.72 51.79 33.67 51.86 33.65 51.93C33.51 52.28 33.37 52.61 33.22 52.93L33.1 53.18C32.98 53.42 32.86 53.64 32.73 53.86L32.59 54.11C32.47 54.31 32.34 54.5 32.21 54.68H43.54C45.52 52.73 47.29 47.31 47.41 40.07Z" fill="#343130"/>
<path d="M74.31 54.67H80.77C82.77 52.76 84.51 47.31 84.63 40.07H77.72C77.62 46.49 76.31 51.82 74.31 54.67Z" fill="#343130"/>
<path d="M33.68 44.91C33.9109 43.0559 34.0178 41.1884 34 39.32C34 29.82 31.16 23.21 28.61 23.21C26.41 23.21 24.01 28.1 23.38 35.5H29.3C31.94 35.5 33.45 40.14 33.68 44.91Z" fill="#343130"/>
<path d="M13.36 37.73L13.48 37.97C13.592 38.1946 13.6921 38.4249 13.78 38.66C13.78 38.73 13.83 38.79 13.86 38.85C13.97 39.16 14.08 39.48 14.17 39.85C14.1979 39.9286 14.2213 40.0087 14.24 40.09C14.31 40.36 14.38 40.64 14.44 40.92C14.4691 41.0253 14.4925 41.1322 14.51 41.24C14.58 41.55 14.64 41.87 14.69 42.19V42.36C14.75 42.74 14.79 43.12 14.83 43.51V43.83C14.83 44.13 14.83 44.43 14.9 44.73C14.9 44.85 14.9 44.96 14.9 45.08C14.9 45.2 14.9 45.37 14.9 45.52H32.2C32.06 40.33 30.46 37.05 29.34 37.05H13L13.06 37.16C13.13 37.3 13.25 37.51 13.36 37.73ZM21.54 40.97H25.3C25.4989 40.97 25.6897 41.049 25.8303 41.1897C25.971 41.3303 26.05 41.5211 26.05 41.72C26.05 41.9189 25.971 42.1097 25.8303 42.2503C25.6897 42.391 25.4989 42.47 25.3 42.47H21.54C21.3411 42.47 21.1503 42.391 21.0097 42.2503C20.869 42.1097 20.79 41.9189 20.79 41.72C20.79 41.5211 20.869 41.3303 21.0097 41.1897C21.1503 41.049 21.3411 40.97 21.54 40.97Z" fill="#343130"/>
<path d="M15 47.41C15 47.52 15 47.64 15 47.75C15 48.05 15 48.35 14.93 48.65V48.97C14.93 49.36 14.85 49.75 14.79 50.12V50.29C14.79 50.62 14.68 50.93 14.61 51.24C14.61 51.35 14.61 51.46 14.54 51.57C14.48 51.85 14.41 52.11 14.34 52.38C14.3213 52.4646 14.298 52.5481 14.27 52.63C14.18 52.96 14.07 53.28 13.96 53.63C13.929 53.6983 13.9023 53.7684 13.88 53.84C13.79 54.07 13.69 54.3 13.59 54.51C13.49 54.72 13.52 54.66 13.48 54.72H30.48C31.37 53.48 32.23 50.72 32.33 47.02H15C15 47.11 15 47.26 15 47.41Z" fill="#343130"/>
<path d="M11.64 54.67C12.59 53.35 13.51 50.33 13.51 46.22C13.51 40.59 11.8 37 10.63 37C9.46 37 7.75 40.59 7.75 46.22C7.75 50.33 8.66 53.35 9.61 54.67H11.64Z" fill="#343130"/>
<path d="M17 64.23H12V97.72H17V64.23Z" fill="#343130"/>
<path d="M31.94 64.23H26.94V87.73H31.94V64.23Z" fill="#343130"/>
<path d="M81.76 64.23H76.88V97.72H81.76V64.23Z" fill="#343130"/>
<path d="M66.88 64.23H62V87.73H66.88V64.23Z" fill="#343130"/>
<path d="M66.63 31.33H57.19V34.21H66.63V31.33Z" fill="#343130"/>
<path d="M17 62.73H26.94H31.94H62H66.88H76.88H81.76H87V56.18H79.25H29.34H28.65H10.63H7V62.73H12H17Z" fill="#343130"/>
</svg>
