<svg width="90" height="54" viewBox="0 0 90 54" fill="none" xmlns="http://www.w3.org/2000/svg">
<path d="M18.181 33.158C17.7791 33.4554 17.7793 33.4558 17.7796 33.4561L17.7802 33.457L17.7818 33.4591L17.786 33.4646L17.7988 33.4812C17.8043 33.4882 17.8108 33.4964 17.8184 33.5058C17.8255 33.5147 17.8337 33.5246 17.8428 33.5356C17.8804 33.581 17.935 33.6442 18.0079 33.7226C18.1539 33.8793 18.3735 34.0968 18.6788 34.3543C19.2899 34.8696 20.2429 35.5439 21.6343 36.2135C24.4184 37.5534 28.9434 38.868 35.977 38.868C38.858 38.868 41.7963 38.6081 44.6352 38.2072C44.5 38.3132 44.3565 38.4256 44.2048 38.5443C44.0639 38.6547 43.9159 38.7705 43.7612 38.8917C42.6107 39.7937 41.1282 40.9671 39.4945 42.3578C36.2731 45.1001 32.4487 48.6999 29.4062 52.7533C27.4391 53.0818 25.6264 53.268 24.026 53.268C19.7327 53.268 13.85 53.2591 9.03579 50.809C6.64385 49.5917 4.51967 47.7721 2.98872 45.0409C1.45536 42.3054 0.5 38.6245 0.5 33.661C0.5 27.2355 2.33253 23.707 4.67148 21.7681C7.02793 19.8146 10.0017 19.386 12.463 19.386C14.9336 19.386 16.6631 19.6395 17.7648 19.8878C18.3157 20.0119 18.7101 20.1349 18.962 20.2245C19.0879 20.2693 19.1783 20.3057 19.235 20.3298C19.2633 20.3419 19.2832 20.3509 19.2948 20.3563L19.3058 20.3614L19.3062 20.3616L19.3062 20.3616L19.3067 20.3619L19.3073 20.3622L19.3923 20.4047L19.4891 20.4124C19.5034 20.4135 19.5207 20.4155 19.5454 20.4184L20.0468 20.4786L20.102 19.9766C20.1547 19.497 20.2079 19.0135 20.2612 18.5277C20.3961 17.2998 20.5326 16.0579 20.668 14.8298L20.668 14.8298C21.1367 10.5781 22.7855 8.08527 24.2818 6.6572C25.0337 5.93958 25.7545 5.48392 26.2824 5.20909C26.5463 5.07171 26.7616 4.97974 26.9078 4.923C26.9809 4.89465 27.0366 4.87513 27.0724 4.86317C27.0806 4.86043 27.0878 4.85808 27.0939 4.85612C27.1011 4.85381 27.1067 4.85203 27.1109 4.85076L27.1174 4.84875L27.118 4.84859L27.1182 4.84851L27.1184 4.84846L27.1189 4.84833L27.1455 4.84071L27.1725 4.82946L26.98 4.368L27.1725 4.82944L27.1728 4.82932L27.1741 4.82878L27.1795 4.82653L27.2015 4.81741L27.2888 4.78139C27.3658 4.74974 27.4797 4.70319 27.6264 4.64385C27.9199 4.52516 28.3449 4.35538 28.8695 4.15156C29.919 3.74378 31.3657 3.20032 32.9554 2.65714C34.5461 2.11364 36.2744 1.57236 37.8882 1.16747C39.5104 0.760469 40.9838 0.5 42.077 0.5C43.8695 0.5 45.2016 0.762433 46.1577 1.07228C44.541 2.02903 41.5886 3.49491 38.3323 3.755L38.3319 3.755C38.3113 3.75497 38.2669 3.75491 38.2213 3.75912C38.1875 3.76225 38.1298 3.76935 38.0633 3.79181C37.5637 3.91751 37.175 4.37084 37.175 4.932C37.175 5.54602 37.6498 6.03773 38.2444 6.091L38.2666 6.093H38.289H38.336L38.338 6.09301C38.3498 6.0931 38.4007 6.09346 38.4535 6.08579C38.4708 6.08327 38.4979 6.07872 38.5307 6.06939C43.8038 5.63728 48.1941 2.55952 48.7547 2.15193L48.7581 2.15046C48.786 2.13833 48.8276 2.12038 48.8814 2.09744C48.989 2.05155 49.1453 1.98573 49.3388 1.90663C49.7261 1.7483 50.2607 1.53745 50.8506 1.3269C51.4414 1.11601 52.082 0.907507 52.6825 0.752274C53.2908 0.595048 53.8262 0.500999 54.218 0.500999C55.9096 0.500999 57.3301 1.28843 58.5427 2.67592C59.7642 4.07363 60.7537 6.06016 61.548 8.38338C63.1357 13.0272 63.8958 18.871 64.2564 23.6179L64.2891 24.0476L64.7189 24.0787C68.1142 24.3242 71.1661 24.5587 73.7507 24.7906C72.4122 25.1631 70.9004 25.6076 69.5125 26.0242C68.2489 26.4036 67.0817 26.7617 66.2305 27.025C65.8048 27.1567 65.4581 27.2646 65.2177 27.3397L64.9403 27.4265L64.8678 27.4492L64.8492 27.4551L64.8445 27.4565L64.8433 27.4569L64.843 27.457C64.843 27.457 64.8429 27.4571 64.993 27.934L64.8429 27.4571L64.8306 27.4609L64.8186 27.4654L63.4747 27.9657L63.4697 27.9675L63.4287 27.9817L63.4287 27.9817L63.4229 27.9838L63.3759 28.0008L63.3607 28.0063L63.3459 28.0128C63.3499 28.0111 63.2981 28.032 63.1757 28.079C63.0607 28.1233 62.8934 28.1868 62.6779 28.2667C62.2468 28.4266 61.623 28.6522 60.8375 28.9213C59.2662 29.4597 57.049 30.1722 54.4335 30.8827C49.1961 32.3055 42.3885 33.713 35.978 33.713C28.6874 33.713 23.0998 31.7889 19.0648 27.8598L18.3321 27.1463L18.2191 28.1627C18.0535 29.651 17.9197 30.8867 17.8272 31.7504C17.781 32.1823 17.7451 32.5212 17.7208 32.7521L17.6931 33.0158L17.6861 33.0834L17.6843 33.1006L17.6838 33.1049L17.6837 33.106L17.6837 33.1063L17.6837 33.1063L18.181 33.158ZM18.181 33.158L17.7791 33.4554L17.6636 33.2994L17.6837 33.1064L18.181 33.158ZM32.8938 52.0552C41.9843 40.9081 53.7418 34.3254 63.3591 30.5136C68.3212 28.5468 72.7066 27.3205 75.8496 26.5861C77.4209 26.219 78.681 25.975 79.5467 25.823C79.9795 25.747 80.3137 25.694 80.5388 25.6602C80.6513 25.6432 80.7366 25.6311 80.7933 25.6232L80.8567 25.6146L80.8678 25.6131C82.2496 25.4886 83.4955 25.3448 84.5894 25.2157C84.7041 25.2021 84.8171 25.1887 84.9284 25.1756C85.8831 25.0626 86.7076 24.9649 87.4037 24.9053C87.4648 24.9002 87.5206 24.896 87.5783 24.8916C87.6272 24.8879 87.6774 24.8841 87.7336 24.8796C88.4722 24.8273 88.9812 24.8342 89.2926 24.905C89.4231 24.9347 89.4807 24.9677 89.5009 24.9823C89.501 24.984 89.501 24.9859 89.501 24.988C89.501 24.9876 89.501 24.9877 89.5009 24.9881C89.5005 24.9924 89.4957 25.034 89.4504 25.1226C89.4022 25.2166 89.3215 25.3378 89.1989 25.4867C88.9534 25.785 88.5758 26.1515 88.065 26.5808C87.0462 27.4371 85.5528 28.4972 83.6755 29.7001C79.9244 32.1037 74.687 35.0484 68.7627 38.0327C57.398 43.7576 43.5629 49.5998 32.8938 52.0552Z" fill="#B27240" stroke="black"/>
</svg>
