<svg width="100" height="100" viewBox="0 0 100 100" fill="none" xmlns="http://www.w3.org/2000/svg">
<path d="M84.1268 45.1994C84.1481 44.9867 84.1169 44.7721 84.0362 44.5743C83.9554 44.3764 83.8275 44.2013 83.6635 44.0642C83.4996 43.9272 83.3046 43.8323 83.0956 43.7878C82.8865 43.7434 82.6698 43.7508 82.4643 43.8093L74.9559 45.9514V45.0684C74.9583 40.7914 73.7224 36.6051 71.3976 33.0151C74.7172 26.6276 76.3906 19.5126 76.266 12.315C76.2657 12.0377 76.1774 11.7677 76.0138 11.5438C75.8502 11.3199 75.6198 11.1537 75.3557 11.0691C75.0917 10.9844 74.8076 10.9858 74.5443 11.0729C74.2811 11.16 74.0522 11.3284 73.8908 11.5539C69.7349 16.8141 64.2981 20.9192 58.101 23.4761C56.3304 23.0259 54.5106 22.7975 52.6836 22.7961H47.4431C45.6164 22.796 43.7968 23.0222 42.0257 23.4695C35.8327 20.9056 30.3975 16.8017 26.236 11.5473C26.0742 11.3214 25.8448 11.1528 25.5809 11.0658C25.317 10.9789 25.0323 10.978 24.7679 11.0635C24.5035 11.149 24.2731 11.3163 24.1101 11.5412C23.947 11.7662 23.8597 12.0372 23.8607 12.315C23.7362 19.5126 25.4096 26.6276 28.7292 33.0151C26.4043 36.6051 25.1685 40.7914 25.1709 45.0684V45.9514L17.669 43.8093C17.4635 43.7508 17.2468 43.7434 17.0377 43.7878C16.8287 43.8323 16.6337 43.9272 16.4698 44.0642C16.3058 44.2013 16.1779 44.3764 16.0971 44.5743C16.0164 44.7721 15.9853 44.9867 16.0065 45.1994L17.3101 58.1697C17.3101 59.2121 17.7241 60.2118 18.4612 60.9489C19.1983 61.686 20.198 62.1001 21.2405 62.1001H25.1709V89.6129H74.9559V62.1001H78.8863C79.9087 62.1083 80.8934 61.7148 81.6285 61.0042C82.3636 60.2936 82.7903 59.3228 82.8167 58.3007L84.1268 45.1994ZM25.1709 52.9292H22.5506V55.5494H25.1709V59.4798H21.2405C21.0583 59.4751 20.8789 59.4336 20.7131 59.358C20.5473 59.2823 20.3985 59.1739 20.2755 59.0394C20.1526 58.9048 20.0581 58.7468 19.9976 58.5749C19.9372 58.4029 19.9121 58.2206 19.9238 58.0387L18.8062 46.858L25.1709 48.6765V52.9292ZM73.4964 16.0437C73.1276 21.6406 71.5707 27.0948 68.9293 32.043C66.7689 32.3422 64.5697 31.9352 62.6595 30.8827C60.7492 29.8302 59.2303 28.1885 58.329 26.2025C64.0763 23.9842 69.2575 20.514 73.4964 16.0437ZM26.629 16.0437C30.8716 20.5158 36.0574 23.9862 41.8095 26.2025C40.9158 28.1972 39.3966 29.8464 37.4818 30.9005C35.567 31.9546 33.3609 32.3561 31.1975 32.0443C28.5477 27.0985 26.9899 21.6417 26.629 16.0424V16.0437ZM33.0316 86.9926H27.7911V71.7781L33.0316 73.5258V86.9926ZM72.3356 86.9926H67.0951V73.5258L72.3356 71.7781V86.9926ZM72.3356 69.0163L65.371 71.3378C65.11 71.4248 64.883 71.5916 64.7221 71.8148C64.5613 72.038 64.4748 72.3061 64.4748 72.5812V86.9926H35.6519V72.5812C35.652 72.3061 35.5655 72.038 35.4046 71.8148C35.2438 71.5916 35.0168 71.4248 34.7558 71.3378L27.7911 69.0163V45.0684C27.7895 41.3739 28.8343 37.7545 30.8044 34.6292C31.3586 34.6816 31.8997 34.7157 32.4133 34.7157C35.1547 34.7253 37.8286 33.8651 40.0503 32.2588C42.2719 30.6525 43.9268 28.383 44.777 25.7767C44.7862 25.7155 44.7914 25.6538 44.7927 25.5919C45.6713 25.4747 46.5567 25.416 47.4431 25.4164H52.6836C53.5713 25.4159 54.4581 25.4745 55.338 25.5919C55.3392 25.6538 55.3445 25.7155 55.3537 25.7767C56.2032 28.3836 57.8579 30.6538 60.0796 32.2606C62.3014 33.8674 64.9756 34.7279 67.7174 34.7183C68.2297 34.7183 68.7655 34.6843 69.3263 34.6318C71.2945 37.7568 72.3379 41.3752 72.3356 45.0684V69.0163ZM80.1964 58.1697C80.1964 58.5172 80.0584 58.8504 79.8127 59.0961C79.567 59.3418 79.2338 59.4798 78.8863 59.4798H74.9559V55.5494H77.5762V52.9292H74.9559V48.6765L81.3218 46.858L80.1964 58.1697Z" fill="black"/>
<path d="M56.6141 73.8913H43.5128C43.1653 73.8914 42.8322 74.0294 42.5865 74.2752L39.9662 76.8954L41.8188 78.748L44.0552 76.5116H56.0717L58.3081 78.748L60.1606 76.8954L57.5404 74.2752C57.2947 74.0294 56.9615 73.8914 56.6141 73.8913Z" fill="black"/>
<path d="M53.9937 79.1318H46.1329V81.7521H53.9937V79.1318Z" fill="black"/>
<path d="M60.5444 43.7582C59.3231 43.758 58.1141 44.0026 56.9889 44.4776C55.8638 44.9526 54.8453 45.6485 53.9937 46.5239V43.4359L62.2135 41.0869L61.4956 38.5688L52.3246 41.1891C52.0508 41.2671 51.8099 41.4322 51.6382 41.6593C51.4666 41.8865 51.3737 42.1634 51.3735 42.4481V66.7982L50.0633 68.1084L48.7532 66.7982V42.4481C48.753 42.1634 48.6601 41.8865 48.4884 41.6593C48.3168 41.4322 48.0759 41.2671 47.8021 41.1891L38.6311 38.5688L37.9132 41.0869L46.1329 43.4359V46.5239C44.8594 45.219 43.2259 44.3233 41.4409 43.9512C39.6559 43.5791 37.8005 43.7476 36.1117 44.4351C34.4229 45.1226 32.9773 46.2979 31.9597 47.8108C30.9421 49.3238 30.3986 51.1058 30.3986 52.9292C30.3986 54.7525 30.9421 56.5345 31.9597 58.0475C32.9773 59.5605 34.4229 60.7358 36.1117 61.4233C37.8005 62.1107 39.6559 62.2792 41.4409 61.9071C43.2259 61.5351 44.8594 60.6394 46.1329 59.3344V67.3406C46.133 67.6881 46.2711 68.0213 46.5168 68.2669L49.1371 70.8872C49.3828 71.1328 49.7159 71.2708 50.0633 71.2708C50.4107 71.2708 50.7439 71.1328 50.9896 70.8872L53.6099 68.2669C53.8556 68.0213 53.9937 67.6881 53.9937 67.3406V59.3344C55.0508 60.4175 56.3594 61.2223 57.803 61.6768C59.2466 62.1313 60.7802 62.2215 62.2671 61.9393C63.754 61.6571 65.148 61.0113 66.3247 60.0595C67.5014 59.1077 68.4242 57.8795 69.0109 56.4844C69.5976 55.0894 69.83 53.5708 69.6872 52.0641C69.5445 50.5574 69.031 49.1094 68.1927 47.8494C67.3544 46.5893 66.2173 45.5563 64.8828 44.8424C63.5483 44.1286 62.0578 43.7561 60.5444 43.7582ZM39.5823 59.4798C38.0727 59.4782 36.6098 58.956 35.4404 58.0014C34.2709 57.0467 33.4665 55.718 33.1626 54.2393H35.3558C35.4311 55.3085 35.909 56.3093 36.6931 57.0401C37.4772 57.7708 38.5091 58.1772 39.581 58.1772C40.6528 58.1772 41.6847 57.7708 42.4688 57.0401C43.2529 56.3093 43.7308 55.3085 43.8061 54.2393H46.0019C45.6981 55.718 44.8936 57.0467 43.7242 58.0014C42.5547 58.956 41.0919 59.4782 39.5823 59.4798ZM37.9774 54.2393H41.1872C41.112 54.6095 40.9112 54.9423 40.6187 55.1814C40.3262 55.4205 39.96 55.5511 39.5823 55.5511C39.2045 55.5511 38.8384 55.4205 38.5459 55.1814C38.2534 54.9423 38.0525 54.6095 37.9774 54.2393ZM33.1626 51.619C33.4633 50.1382 34.2667 48.8069 35.4367 47.8506C36.6066 46.8943 38.0712 46.3719 39.5823 46.3719C41.0933 46.3719 42.5579 46.8943 43.7279 47.8506C44.8978 48.8069 45.7012 50.1382 46.0019 51.619H33.1626ZM60.5444 59.4798C59.0348 59.4782 57.5719 58.956 56.4025 58.0014C55.2331 57.0467 54.4286 55.718 54.1248 54.2393H56.3179C56.3933 55.3085 56.8712 56.3093 57.6552 57.0401C58.4393 57.7708 59.4713 58.1772 60.5431 58.1772C61.6149 58.1772 62.6469 57.7708 63.431 57.0401C64.215 56.3093 64.6929 55.3085 64.7683 54.2393H66.9641C66.6602 55.718 65.8557 57.0467 64.6863 58.0014C63.5169 58.956 62.054 59.4782 60.5444 59.4798ZM58.9395 54.2393H62.1493C62.0741 54.6095 61.8733 54.9423 61.5808 55.1814C61.2883 55.4205 60.9222 55.5511 60.5444 55.5511C60.1666 55.5511 59.8005 55.4205 59.508 55.1814C59.2155 54.9423 59.0147 54.6095 58.9395 54.2393ZM54.1248 51.619C54.4254 50.1382 55.2288 48.8069 56.3988 47.8506C57.5688 46.8943 59.0334 46.3719 60.5444 46.3719C62.0555 46.3719 63.52 46.8943 64.69 47.8506C65.86 48.8069 66.6634 50.1382 66.9641 51.619H54.1248Z" fill="black"/>
</svg>
