<svg width="61" height="100" viewBox="0 0 61 100" fill="none" xmlns="http://www.w3.org/2000/svg">
<g clip-path="url(#clip0_105_7)">
<mask id="path-1-inside-1_105_7" fill="white">
<path d="M8.46009 0.00750583C8.46009 0.0275058 8.69008 1.03758 8.98008 2.23758L9.51009 4.42753L9.29008 4.58758C7.88008 5.59758 6.77009 7.72758 6.20009 10.5376C5.90009 12.0176 5.75009 13.2776 5.70009 14.9176C5.66009 16.1976 5.64008 16.3676 5.52008 16.3376C5.45008 16.3176 4.64008 16.0775 3.72008 15.8075C2.81008 15.5375 2.04008 15.3275 2.03008 15.3475C2.01008 15.3675 2.82008 15.8475 3.82008 16.4275L5.63008 17.4676L5.73008 18.7775C5.85008 20.4075 6.03008 21.8476 6.28008 23.2376C6.99008 27.1076 8.01008 29.5875 9.84008 31.8275L10.3601 32.4676L9.75008 33.9176C9.05008 35.5776 9.02009 35.6176 9.06009 35.6176C9.08009 35.6176 9.51008 35.0375 10.0301 34.3475L10.9601 33.0676L11.4901 33.5176C12.1001 34.0376 13.1001 34.6875 13.7901 35.0475C15.2901 35.8075 17.5301 36.3176 19.9601 36.4676L20.8701 36.5275L20.8101 37.2075C20.7901 37.5875 20.7401 40.3875 20.7101 43.4475L20.6601 48.9975L19.8701 47.9975C19.4401 47.4575 19.0301 46.9476 18.9701 46.8876C18.8501 46.7576 18.9901 47.0875 19.9801 49.2075L20.6301 50.6075L20.6901 62.0676C20.7901 78.0876 20.7901 76.8775 20.6501 76.7575C20.3501 76.5075 19.9501 74.8375 19.6501 72.6075C19.2501 69.5175 18.9301 65.5275 18.4901 58.1075C18.3401 55.4675 18.1701 53.0576 18.1301 52.7376C17.8901 50.9276 16.7401 48.6776 15.3701 47.3176C14.8701 46.8276 13.7801 46.0075 13.5001 45.9075C13.4401 45.8875 13.5301 45.2175 13.8001 43.7275C14.0201 42.5375 14.1901 41.5675 14.1801 41.5575C14.1701 41.5375 13.7701 42.4175 13.2901 43.4975C12.5101 45.2675 12.4001 45.4575 12.2601 45.4075C10.9101 45.0075 9.31008 44.9375 8.35008 45.2275C7.25009 45.5775 6.31009 46.3975 5.60009 47.6075C5.34009 48.0675 5.20009 48.2275 5.10009 48.2075C4.75009 48.1075 0.920085 47.1976 0.890085 47.2176C0.880085 47.2376 1.75008 47.6876 2.83008 48.2376C4.52008 49.0976 4.78009 49.2575 4.75009 49.3975C4.73009 49.4875 4.58008 50.0476 4.43008 50.6376C3.85008 52.8776 3.70009 54.5475 3.70009 59.0275C3.70009 61.6275 3.73008 62.7975 3.83008 63.6575C3.90008 64.2975 3.95008 64.8175 3.94008 64.8275C3.94008 64.8375 3.04009 65.3175 1.95009 65.8975C0.860085 66.4775 -0.00991465 66.9676 8.53487e-05 66.9876C0.0200853 67.0076 0.920085 66.7776 2.00009 66.4876C3.08009 66.1976 4.00008 65.9676 4.03008 65.9676C4.07008 65.9676 4.17009 66.4275 4.25009 66.9775C4.82009 70.9275 6.24008 75.8876 7.64008 78.8176C7.84008 79.2376 8.01008 79.5876 8.02008 79.6176C8.04008 79.6376 7.65008 80.0875 7.18008 80.6275C5.45008 82.5875 5.29008 82.7675 5.41008 82.6975C5.47008 82.6575 6.16008 82.1875 6.94008 81.6475C7.71008 81.1075 8.40009 80.6475 8.46009 80.6275C8.53009 80.5975 8.68008 80.7475 8.89008 81.0475C10.3201 83.1475 12.4001 84.9075 14.5701 85.8575C16.4601 86.6875 18.8201 87.1075 20.8901 86.9975L21.6201 86.9676V87.2676C21.6201 87.4476 21.6801 88.5175 21.7401 89.6575C21.8001 90.7975 21.9101 92.8075 21.9701 94.1075C22.1001 96.7375 22.1301 96.8775 22.7001 97.5775C23.4601 98.5075 25.3901 99.4476 27.4001 99.8876C28.2501 100.068 30.0001 100.068 31.0701 99.8775C33.5101 99.4575 35.5301 98.4475 36.1801 97.3275C36.3601 97.0075 36.3801 96.8175 36.7401 91.5275C37.3201 82.7675 37.6301 78.4275 37.6701 78.3975C37.6901 78.3775 38.5101 78.3275 39.5001 78.2775C42.1701 78.1375 42.1601 78.1376 39.8201 77.7176C37.9701 77.3776 37.7801 77.3275 37.7601 77.1775C37.7401 77.0875 37.8501 75.4575 37.9801 73.5475C38.1201 71.6375 38.2301 70.0175 38.2301 69.9475C38.2301 69.8275 38.3501 69.8175 39.5301 69.8575C42.4501 69.9575 45.4101 69.3475 47.8301 68.1275L48.7701 67.6575L50.5001 68.6575C51.4501 69.2075 52.2401 69.6375 52.2501 69.6275C52.2601 69.6075 51.6801 69.0475 50.9601 68.3775C50.2401 67.6975 49.6501 67.1275 49.6501 67.0975C49.6501 67.0675 49.8601 66.9075 50.1101 66.7275C50.9101 66.1675 52.6801 64.3275 53.2301 63.4975C55.3101 60.3175 56.8401 55.4275 57.6601 49.2775C57.8401 47.9275 58.0901 45.3875 58.1601 44.2575C58.1901 43.7175 58.2201 43.2876 58.2401 43.2876C58.2501 43.2876 58.9701 43.5375 59.8401 43.8475C60.7101 44.1475 61.4301 44.3876 61.4501 44.3876C61.4601 44.3676 60.7501 43.8976 59.8701 43.3376L58.2601 42.2975L58.3201 41.6575C58.3901 40.8475 58.3901 34.2575 58.3201 33.8275C58.2601 33.5175 58.2801 33.4876 58.8001 32.8676C60.2701 31.1376 60.2501 31.1975 59.1101 32.0275C58.7201 32.3175 58.3501 32.5775 58.3001 32.6075C58.2401 32.6375 58.1601 32.2976 58.0401 31.5376C57.6101 28.8176 56.7301 26.0475 55.7501 24.3275C55.1901 23.3575 54.6601 22.6776 53.9101 21.9676L53.2301 21.3376L53.5601 19.5575C53.7401 18.5875 53.8701 17.7775 53.8601 17.7575C53.8401 17.7475 53.5201 18.4475 53.1401 19.3275L52.4401 20.9075L51.9501 20.7176C50.8801 20.2776 49.4501 20.1975 48.2801 20.4975C45.3301 21.2475 43.3101 24.4075 42.4201 29.6775C42.3101 30.3375 42.2001 30.8875 42.1901 30.8975C42.1701 30.9175 41.7301 30.7175 41.2201 30.4775C40.7101 30.2375 40.1801 29.9975 40.0701 29.9575C39.8901 29.8875 39.8901 29.8975 39.9901 29.9975C40.0501 30.0575 40.5501 30.4675 41.0901 30.8975L42.0701 31.6775L42.0601 41.8975C42.0601 48.0875 42.0201 52.4275 41.9701 52.8975C41.8601 53.9875 41.6401 54.7976 41.2301 55.6376C40.6201 56.8576 39.7501 57.6475 38.6401 57.9975C37.7501 58.2775 37.8301 58.4176 37.8301 56.4176C37.8301 55.4576 37.8501 52.4676 37.8901 49.7676L37.9401 44.8575L39.0901 43.8575C39.7301 43.3175 40.2901 42.8175 40.3401 42.7575C40.4001 42.6975 39.8801 42.9376 39.2001 43.2876L37.9601 43.9376L37.9801 41.6176C37.9901 40.3276 38.0301 36.2476 38.0701 32.5376C38.1401 25.6176 38.1001 23.5975 37.8701 21.0575C37.7401 19.6175 37.7401 19.5876 37.8901 19.4176C38.1801 19.0976 40.9901 15.8075 41.1101 15.6575C41.1701 15.5675 40.4101 16.0975 39.3901 16.8275L37.5501 18.1475L37.4901 17.7376C37.3001 16.5376 36.7601 14.0775 36.4801 13.0975C35.9401 11.2875 35.2601 9.64755 34.5901 8.59755L34.3201 8.17753L34.6701 6.04754C34.8701 4.87754 35.0201 3.91754 35.0101 3.89754C34.9901 3.87754 34.4301 5.06758 33.7701 6.53758L33.5201 7.07753L33.0201 6.64754C31.6801 5.47754 30.3701 4.99754 28.7401 5.09754C27.3801 5.17754 26.3701 5.63753 25.3201 6.62753C24.9501 6.96753 24.4601 7.55756 24.2201 7.91756C22.1001 11.0976 21.0501 16.7875 21.1601 24.3475L21.2101 26.9575L20.9801 26.8475C20.8601 26.7875 20.6701 26.6076 20.5601 26.4676C19.6701 25.2976 19.3501 22.8575 19.5601 18.7975C19.7001 16.0975 19.7001 13.3075 19.5601 12.2775C19.1701 9.21753 18.2401 7.02755 16.7301 5.59754C15.8801 4.78754 15.0301 4.32754 13.8001 3.99754C13.2401 3.84754 11.4001 3.79756 10.8101 3.91756L10.4901 3.97753L9.77008 2.52753C9.06008 1.00753 8.47009 -0.102494 8.46009 0.00750583Z"/>
</mask>
<path d="M8.46009 0.00750583C8.46009 0.0275058 8.69008 1.03758 8.98008 2.23758L9.51009 4.42753L9.29008 4.58758C7.88008 5.59758 6.77009 7.72758 6.20009 10.5376C5.90009 12.0176 5.75009 13.2776 5.70009 14.9176C5.66009 16.1976 5.64008 16.3676 5.52008 16.3376C5.45008 16.3176 4.64008 16.0775 3.72008 15.8075C2.81008 15.5375 2.04008 15.3275 2.03008 15.3475C2.01008 15.3675 2.82008 15.8475 3.82008 16.4275L5.63008 17.4676L5.73008 18.7775C5.85008 20.4075 6.03008 21.8476 6.28008 23.2376C6.99008 27.1076 8.01008 29.5875 9.84008 31.8275L10.3601 32.4676L9.75008 33.9176C9.05008 35.5776 9.02009 35.6176 9.06009 35.6176C9.08009 35.6176 9.51008 35.0375 10.0301 34.3475L10.9601 33.0676L11.4901 33.5176C12.1001 34.0376 13.1001 34.6875 13.7901 35.0475C15.2901 35.8075 17.5301 36.3176 19.9601 36.4676L20.8701 36.5275L20.8101 37.2075C20.7901 37.5875 20.7401 40.3875 20.7101 43.4475L20.6601 48.9975L19.8701 47.9975C19.4401 47.4575 19.0301 46.9476 18.9701 46.8876C18.8501 46.7576 18.9901 47.0875 19.9801 49.2075L20.6301 50.6075L20.6901 62.0676C20.7901 78.0876 20.7901 76.8775 20.6501 76.7575C20.3501 76.5075 19.9501 74.8375 19.6501 72.6075C19.2501 69.5175 18.9301 65.5275 18.4901 58.1075C18.3401 55.4675 18.1701 53.0576 18.1301 52.7376C17.8901 50.9276 16.7401 48.6776 15.3701 47.3176C14.8701 46.8276 13.7801 46.0075 13.5001 45.9075C13.4401 45.8875 13.5301 45.2175 13.8001 43.7275C14.0201 42.5375 14.1901 41.5675 14.1801 41.5575C14.1701 41.5375 13.7701 42.4175 13.2901 43.4975C12.5101 45.2675 12.4001 45.4575 12.2601 45.4075C10.9101 45.0075 9.31008 44.9375 8.35008 45.2275C7.25009 45.5775 6.31009 46.3975 5.60009 47.6075C5.34009 48.0675 5.20009 48.2275 5.10009 48.2075C4.75009 48.1075 0.920085 47.1976 0.890085 47.2176C0.880085 47.2376 1.75008 47.6876 2.83008 48.2376C4.52008 49.0976 4.78009 49.2575 4.75009 49.3975C4.73009 49.4875 4.58008 50.0476 4.43008 50.6376C3.85008 52.8776 3.70009 54.5475 3.70009 59.0275C3.70009 61.6275 3.73008 62.7975 3.83008 63.6575C3.90008 64.2975 3.95008 64.8175 3.94008 64.8275C3.94008 64.8375 3.04009 65.3175 1.95009 65.8975C0.860085 66.4775 -0.00991465 66.9676 8.53487e-05 66.9876C0.0200853 67.0076 0.920085 66.7776 2.00009 66.4876C3.08009 66.1976 4.00008 65.9676 4.03008 65.9676C4.07008 65.9676 4.17009 66.4275 4.25009 66.9775C4.82009 70.9275 6.24008 75.8876 7.64008 78.8176C7.84008 79.2376 8.01008 79.5876 8.02008 79.6176C8.04008 79.6376 7.65008 80.0875 7.18008 80.6275C5.45008 82.5875 5.29008 82.7675 5.41008 82.6975C5.47008 82.6575 6.16008 82.1875 6.94008 81.6475C7.71008 81.1075 8.40009 80.6475 8.46009 80.6275C8.53009 80.5975 8.68008 80.7475 8.89008 81.0475C10.3201 83.1475 12.4001 84.9075 14.5701 85.8575C16.4601 86.6875 18.8201 87.1075 20.8901 86.9975L21.6201 86.9676V87.2676C21.6201 87.4476 21.6801 88.5175 21.7401 89.6575C21.8001 90.7975 21.9101 92.8075 21.9701 94.1075C22.1001 96.7375 22.1301 96.8775 22.7001 97.5775C23.4601 98.5075 25.3901 99.4476 27.4001 99.8876C28.2501 100.068 30.0001 100.068 31.0701 99.8775C33.5101 99.4575 35.5301 98.4475 36.1801 97.3275C36.3601 97.0075 36.3801 96.8175 36.7401 91.5275C37.3201 82.7675 37.6301 78.4275 37.6701 78.3975C37.6901 78.3775 38.5101 78.3275 39.5001 78.2775C42.1701 78.1375 42.1601 78.1376 39.8201 77.7176C37.9701 77.3776 37.7801 77.3275 37.7601 77.1775C37.7401 77.0875 37.8501 75.4575 37.9801 73.5475C38.1201 71.6375 38.2301 70.0175 38.2301 69.9475C38.2301 69.8275 38.3501 69.8175 39.5301 69.8575C42.4501 69.9575 45.4101 69.3475 47.8301 68.1275L48.7701 67.6575L50.5001 68.6575C51.4501 69.2075 52.2401 69.6375 52.2501 69.6275C52.2601 69.6075 51.6801 69.0475 50.9601 68.3775C50.2401 67.6975 49.6501 67.1275 49.6501 67.0975C49.6501 67.0675 49.8601 66.9075 50.1101 66.7275C50.9101 66.1675 52.6801 64.3275 53.2301 63.4975C55.3101 60.3175 56.8401 55.4275 57.6601 49.2775C57.8401 47.9275 58.0901 45.3875 58.1601 44.2575C58.1901 43.7175 58.2201 43.2876 58.2401 43.2876C58.2501 43.2876 58.9701 43.5375 59.8401 43.8475C60.7101 44.1475 61.4301 44.3876 61.4501 44.3876C61.4601 44.3676 60.7501 43.8976 59.8701 43.3376L58.2601 42.2975L58.3201 41.6575C58.3901 40.8475 58.3901 34.2575 58.3201 33.8275C58.2601 33.5175 58.2801 33.4876 58.8001 32.8676C60.2701 31.1376 60.2501 31.1975 59.1101 32.0275C58.7201 32.3175 58.3501 32.5775 58.3001 32.6075C58.2401 32.6375 58.1601 32.2976 58.0401 31.5376C57.6101 28.8176 56.7301 26.0475 55.7501 24.3275C55.1901 23.3575 54.6601 22.6776 53.9101 21.9676L53.2301 21.3376L53.5601 19.5575C53.7401 18.5875 53.8701 17.7775 53.8601 17.7575C53.8401 17.7475 53.5201 18.4475 53.1401 19.3275L52.4401 20.9075L51.9501 20.7176C50.8801 20.2776 49.4501 20.1975 48.2801 20.4975C45.3301 21.2475 43.3101 24.4075 42.4201 29.6775C42.3101 30.3375 42.2001 30.8875 42.1901 30.8975C42.1701 30.9175 41.7301 30.7175 41.2201 30.4775C40.7101 30.2375 40.1801 29.9975 40.0701 29.9575C39.8901 29.8875 39.8901 29.8975 39.9901 29.9975C40.0501 30.0575 40.5501 30.4675 41.0901 30.8975L42.0701 31.6775L42.0601 41.8975C42.0601 48.0875 42.0201 52.4275 41.9701 52.8975C41.8601 53.9875 41.6401 54.7976 41.2301 55.6376C40.6201 56.8576 39.7501 57.6475 38.6401 57.9975C37.7501 58.2775 37.8301 58.4176 37.8301 56.4176C37.8301 55.4576 37.8501 52.4676 37.8901 49.7676L37.9401 44.8575L39.0901 43.8575C39.7301 43.3175 40.2901 42.8175 40.3401 42.7575C40.4001 42.6975 39.8801 42.9376 39.2001 43.2876L37.9601 43.9376L37.9801 41.6176C37.9901 40.3276 38.0301 36.2476 38.0701 32.5376C38.1401 25.6176 38.1001 23.5975 37.8701 21.0575C37.7401 19.6175 37.7401 19.5876 37.8901 19.4176C38.1801 19.0976 40.9901 15.8075 41.1101 15.6575C41.1701 15.5675 40.4101 16.0975 39.3901 16.8275L37.5501 18.1475L37.4901 17.7376C37.3001 16.5376 36.7601 14.0775 36.4801 13.0975C35.9401 11.2875 35.2601 9.64755 34.5901 8.59755L34.3201 8.17753L34.6701 6.04754C34.8701 4.87754 35.0201 3.91754 35.0101 3.89754C34.9901 3.87754 34.4301 5.06758 33.7701 6.53758L33.5201 7.07753L33.0201 6.64754C31.6801 5.47754 30.3701 4.99754 28.7401 5.09754C27.3801 5.17754 26.3701 5.63753 25.3201 6.62753C24.9501 6.96753 24.4601 7.55756 24.2201 7.91756C22.1001 11.0976 21.0501 16.7875 21.1601 24.3475L21.2101 26.9575L20.9801 26.8475C20.8601 26.7875 20.6701 26.6076 20.5601 26.4676C19.6701 25.2976 19.3501 22.8575 19.5601 18.7975C19.7001 16.0975 19.7001 13.3075 19.5601 12.2775C19.1701 9.21753 18.2401 7.02755 16.7301 5.59754C15.8801 4.78754 15.0301 4.32754 13.8001 3.99754C13.2401 3.84754 11.4001 3.79756 10.8101 3.91756L10.4901 3.97753L9.77008 2.52753C9.06008 1.00753 8.47009 -0.102494 8.46009 0.00750583Z" fill="#6B993E" stroke="black" stroke-width="2" mask="url(#path-1-inside-1_105_7)"/>
</g>
<defs>
<clipPath id="clip0_105_7">
<rect width="61" height="100" fill="white"/>
</clipPath>
</defs>
</svg>
