<svg width="100" height="100" viewBox="0 0 100 100" fill="none" xmlns="http://www.w3.org/2000/svg">
<g clip-path="url(#clip0_116_108)">
<path d="M46.6072 53.2507C46.581 53.2558 46.5552 53.2623 46.5299 53.2705C46.5299 53.2705 46.5167 53.2705 46.5118 53.2705C45.9012 53.3148 45.3171 53.5375 44.832 53.9109C44.3469 54.2844 43.9821 54.792 43.783 55.3709C43.6009 55.9701 43.6205 56.6125 43.8389 57.1993C44.0574 57.7862 44.4624 58.2852 44.9919 58.6195C45.4945 58.9361 46.0772 59.1022 46.6712 59.0984C47.2651 59.0947 47.8456 58.9211 48.3441 58.5981C48.8857 58.252 49.297 57.7359 49.5137 57.1308C49.7304 56.5257 49.7402 55.8658 49.5416 55.2546C49.3429 54.6434 48.947 54.1153 48.416 53.7533C47.8849 53.3912 47.2488 53.2156 46.6072 53.254V53.2507ZM45.3916 56.6835C45.3752 56.644 45.3637 56.598 45.3916 56.6835ZM48.0349 56.2657V56.3299V56.3447C48.0241 56.419 48.0048 56.4919 47.9773 56.5618L47.9592 56.6128C47.9487 56.6419 47.9366 56.6705 47.9231 56.6983C47.8813 56.7746 47.8357 56.8487 47.7865 56.9204C47.7421 56.9664 47.701 57.0141 47.655 57.0585C47.6089 57.103 47.5859 57.1194 47.553 57.149C47.4707 57.1967 47.3885 57.2526 47.3079 57.2971C47.276 57.3155 47.2431 57.3319 47.2092 57.3464H47.1829C47.0715 57.3818 46.9584 57.4114 46.844 57.4352C46.8123 57.4372 46.7804 57.4372 46.7486 57.4352C46.6532 57.4352 46.5611 57.4352 46.4657 57.427L46.3424 57.4007C46.2477 57.379 46.1552 57.3487 46.066 57.3102L45.9229 57.2296C45.8785 57.2033 45.8357 57.1737 45.793 57.1457C45.7272 57.0849 45.6597 57.0273 45.5989 56.9615C45.5857 56.9467 45.5627 56.9187 45.5495 56.9006C45.5364 56.8825 45.5134 56.8496 45.4969 56.8217C45.4805 56.7937 45.4459 56.7263 45.418 56.6802C45.39 56.5931 45.3604 56.5157 45.3406 56.4203L45.3308 56.3858C45.3308 56.3496 45.3308 56.3085 45.3226 56.2822C45.3143 56.2559 45.3226 56.195 45.3226 56.1522V56.0535C45.3226 55.991 45.3226 56.0108 45.311 56.1095C45.288 56.0289 45.3686 55.871 45.39 55.7937V55.7821C45.418 55.7328 45.4426 55.6802 45.4722 55.6308C45.5018 55.5815 45.5216 55.5502 45.5479 55.5107C45.5742 55.4713 45.6005 55.4417 45.5956 55.4466L45.6367 55.4005C45.6762 55.3556 45.7173 55.3128 45.7601 55.2722L45.8505 55.19L45.8637 55.1752H45.8752C45.9624 55.1176 46.0512 55.0683 46.14 55.0107H46.1548C46.2009 54.9926 46.2486 54.9762 46.2947 54.963C46.3486 54.9462 46.4035 54.933 46.4591 54.9235L46.497 54.9137C46.5096 54.9147 46.5222 54.9147 46.5348 54.9137C46.5611 54.9137 46.5858 54.8989 46.6121 54.8939H46.6302C46.737 54.8874 46.8441 54.8874 46.951 54.8939C46.9912 54.9008 47.0319 54.9046 47.0727 54.9054C47.0602 54.908 47.0473 54.908 47.0348 54.9054C47.1154 54.9268 47.1993 54.9515 47.275 54.9745C47.321 54.9992 47.3687 55.0222 47.4148 55.0502C47.4609 55.0781 47.4773 55.0913 47.5086 55.1094L47.5365 55.1258C47.5842 55.167 47.6336 55.2196 47.6632 55.2492C47.6928 55.2788 47.752 55.3578 47.8013 55.4038C47.8096 55.4038 47.8161 55.4252 47.8244 55.4301C47.8326 55.4351 47.8161 55.4203 47.8079 55.4137C47.8375 55.4581 47.8704 55.5025 47.8984 55.5502C47.9264 55.5979 47.9477 55.6473 47.9741 55.6933V55.7065C47.9971 55.7904 48.0217 55.871 48.0415 55.9581C48.0465 56.0024 48.0493 56.0468 48.0497 56.0914C48.0398 56.1555 48.0382 56.2115 48.0349 56.2657Z" fill="black"/>
<path d="M47.0127 54.9007C46.9489 54.9023 46.9489 54.8822 47.0127 54.9007Z" fill="black"/>
<path d="M47.7921 55.4179V55.4079V55.3995C47.7434 55.3507 47.7384 55.3726 47.7921 55.4179Z" fill="black"/>
<path d="M12.5571 37.4223H12.567C12.5428 37.4019 12.5148 37.3862 12.4847 37.3763C12.5097 37.3903 12.5339 37.4056 12.5571 37.4223Z" fill="black"/>
<path d="M10.1046 33.7954L10.0898 33.8184C10.0898 33.8497 10.0799 33.8629 10.0701 33.8925C10.0722 33.8855 10.0722 33.878 10.0701 33.8711V33.8842V33.9418V33.9928C10.081 33.9664 10.0887 33.9388 10.0931 33.9106C10.1093 33.8744 10.1134 33.834 10.1046 33.7954Z" fill="black"/>
<path d="M49.2685 64.7548L49.2554 64.7318C49.2208 64.6972 49.1945 64.6709 49.1649 64.638C49.1649 64.6643 49.2011 64.7071 49.2685 64.7548Z" fill="black"/>
<path d="M43.8768 66.1792C43.8795 66.2148 43.8795 66.2506 43.8768 66.2862V66.3075C43.8905 66.2659 43.8905 66.2209 43.8768 66.1792Z" fill="black"/>
<path d="M80.6689 33.9369C80.6294 33.9665 80.6047 33.9829 80.5784 33.9994L80.5636 34.0142C80.6051 33.9986 80.6415 33.9718 80.6689 33.9369Z" fill="black"/>
<path d="M82.0769 33.3151H82.0522C81.9256 33.3168 81.965 33.3431 82.0769 33.3151Z" fill="black"/>
<path d="M83.2675 34.3234V34.2938V34.2428C83.2645 34.2696 83.2645 34.2966 83.2675 34.3234Z" fill="black"/>
<path d="M79.2525 35.4682C79.2438 35.5078 79.2328 35.5468 79.2196 35.585C79.2406 35.5438 79.2545 35.4993 79.2607 35.4534L79.2525 35.4682Z" fill="black"/>
<path d="M79.1293 36.1245C79.1421 36.1594 79.1525 36.1952 79.1605 36.2315C79.1628 36.1839 79.152 36.1367 79.1293 36.0949V36.1245Z" fill="black"/>
<path d="M83.0521 33.5882C83.011 33.5668 82.9731 33.5438 82.932 33.5174C82.9698 33.5535 83.0146 33.5815 83.0636 33.5997L83.0521 33.5882Z" fill="black"/>
<path d="M90.6743 15.8682C90.2749 15.6886 89.8452 15.5859 89.4078 15.5656C88.8398 14.7975 88.1384 14.1378 87.3369 13.6181C86.8173 13.1737 86.1561 12.9295 85.4725 12.9295C84.7888 12.9295 84.1276 13.1737 83.608 13.6181C82.9445 14.5909 82.6297 15.7596 82.7149 16.9341C82.6271 18.0087 82.5405 19.0817 82.455 20.153L80.3167 21.9854C78.7245 23.3556 77.0961 24.6912 75.5466 26.0975C74.8295 26.6478 74.2502 27.3574 73.8545 28.1701C73.4588 28.9829 73.2576 29.8765 73.2669 30.7804C73.4351 31.5471 73.3352 32.3484 72.9839 33.0503C72.5003 33.6421 72.0858 34.2872 71.7487 34.9731C71.4965 35.7719 71.4482 36.6212 71.6082 37.4434C71.7683 38.2656 72.1315 39.0348 72.6648 39.6807C72.4556 40.209 72.3142 40.7617 72.2438 41.3256C72.229 41.4358 72.229 41.5525 72.2207 41.666C71.3352 41.7249 70.4778 42.0005 69.7238 42.4687C68.2106 43.3701 66.7187 44.306 65.2219 45.2321C62.9388 42.9622 60.687 40.6495 58.2346 38.5638C58.0474 37.7416 57.6687 36.9751 57.1292 36.3269C58.0266 35.3737 58.7503 34.271 59.2675 33.0684C59.4485 32.6523 59.5965 32.2279 59.7297 31.8035C61.0697 32.1628 62.4943 32.0261 63.7415 31.4186C65.3278 30.5739 66.517 29.1377 67.051 27.4216C67.7095 25.6034 67.628 23.5994 66.824 21.8407C66.5114 21.2013 66.0726 20.6318 65.5341 20.1665C64.9956 19.7012 64.3685 19.3497 63.6905 19.1332C63.8452 18.9901 64.008 18.8602 64.156 18.7039C65.2719 17.5972 65.9866 16.1497 66.1868 14.5909C66.387 13.032 66.0614 11.4509 65.2614 10.0981C64.4229 8.83344 63.2041 7.86811 61.7811 7.34153C60.358 6.81494 58.8044 6.75439 57.3447 7.1686C56.6727 4.91041 55.4781 2.84233 53.8576 1.132C53.3201 0.672841 52.6863 0.340186 52.0031 0.158561C51.3199 -0.0230641 50.6046 -0.0490272 49.91 0.0825856C48.7841 0.457811 47.64 0.776217 46.4821 1.0366C45.3028 1.10733 44.1711 0.288192 43.0279 0.0875202C42.3258 -0.0509052 41.6007 -0.0185672 40.9137 0.18181C40.2267 0.382188 39.5979 0.744736 39.0803 1.23892C38.1013 2.27694 37.3208 3.48558 36.7775 4.80495C36.3409 5.74918 35.9565 6.71672 35.6261 7.70317C34.711 7.39862 33.7349 7.32424 32.7841 7.48662C31.8334 7.64899 30.9373 8.04312 30.1751 8.63416C28.8763 9.67819 27.9946 11.153 27.6898 12.7913C27.3851 14.4296 27.6774 16.1228 28.5138 17.564C28.9272 18.335 29.4552 19.0388 30.0797 19.6514C29.0928 20.1345 28.2701 20.8977 27.7144 21.8456C26.837 23.4265 26.6163 25.289 27.0997 27.0312C27.5831 28.7735 28.7319 30.2559 30.2984 31.1587C31.5677 31.7936 33.0161 31.9741 34.4023 31.6703C34.5224 32.0124 34.6408 32.3545 34.7872 32.6901C35.34 33.9532 36.1062 35.1116 37.0522 36.1147C36.7487 36.5706 36.4956 37.0582 36.2972 37.5687C33.4327 39.963 30.7076 42.5195 28.1355 45.2255C26.6387 44.2994 25.1451 43.3635 23.6335 42.4621C22.8785 41.9934 22.02 41.7172 21.1333 41.6578C21.0833 40.9816 20.9336 40.3165 20.6892 39.684C21.1465 39.1037 21.4818 38.4369 21.6749 37.7238C21.8679 37.0106 21.9148 36.2658 21.8127 35.534C21.6109 34.8364 21.2758 34.1845 20.8258 33.6145C20.4688 33.121 20.0905 32.848 20.0264 32.2361C19.9408 31.4236 20.1481 30.6077 20.0527 29.7886C19.9196 28.7979 19.4908 27.8704 18.8223 27.1272C17.4411 25.6716 15.9455 24.329 14.35 23.1121L11.455 20.6218C11.5669 19.4783 11.6179 18.3297 11.608 17.1808C11.7062 16.5115 11.6326 15.8282 11.3941 15.1952C11.1555 14.5621 10.7599 14.0002 10.2444 13.5621C9.68813 13.2366 9.05078 13.0758 8.40662 13.0985C7.76247 13.1213 7.13803 13.3265 6.60603 13.6904C6.08143 14.0379 5.60187 14.4489 5.1783 14.9142C4.99079 15.1132 4.80656 15.3155 4.61411 15.5113L4.58451 15.5425C4.44489 15.5167 4.30364 15.5008 4.16178 15.4948C2.3742 15.7832 0.769024 16.756 -0.313855 18.2072C-0.958737 18.7885 -1.42422 19.5419 -1.65558 20.3788C-1.88694 21.2156 -1.87455 22.1011 -1.61987 22.9312C-0.863235 25.0317 1.23888 26.7423 2.78011 28.2753C4.20126 29.6882 5.66517 31.0568 7.11758 32.4384C7.02295 32.6386 6.94749 32.8474 6.89223 33.0618C6.75091 34.0151 6.83193 34.9882 7.12896 35.905C7.426 36.8218 7.931 37.6574 8.60452 38.3467C7.81892 40.6165 7.56677 43.0367 7.86763 45.4196C8.04631 46.6226 8.52576 47.7611 9.26155 48.7295C9.99734 49.6979 10.9657 50.4649 12.0768 50.9594C13.1587 51.4109 14.3542 51.5155 15.4981 51.2588C16.6182 54.0748 20.5971 56.2739 22.8999 57.4961C23.9001 58.0637 25.0326 58.3567 26.1826 58.3454C27.3326 58.3342 28.4592 58.019 29.4481 57.4319C30.9037 56.672 32.3249 55.8265 33.7378 54.9745C33.6358 58.0471 33.5125 61.1263 33.552 64.1857C33.5558 64.3699 33.5689 64.5538 33.5914 64.7367C32.2993 64.2111 30.9402 63.8684 29.5533 63.7185C29.2653 63.7149 28.9816 63.7885 28.7316 63.9317C28.4817 64.0749 28.2747 64.2824 28.1322 64.5327C26.9195 66.6793 25.8821 68.9203 25.03 71.2339C24.1301 73.427 23.44 75.7005 22.969 78.0238C22.709 79.126 22.6858 80.2707 22.9011 81.3825C23.1163 82.4943 23.5649 83.5477 24.2174 84.4732C25.0964 85.5701 26.3676 86.2821 27.7621 86.4586C27.3081 88.3502 26.8854 90.2417 26.5268 92.1613C26.1041 94.4164 25.3524 97.2603 27.5515 98.8443C29.4283 100.203 32.9911 100.073 35.1869 99.8789C38.1723 99.6157 39.281 97.6715 40.4126 95.173C42.4999 90.5674 44.7106 86.0095 46.6762 81.3563C48.6402 86.0178 50.8492 90.5674 52.9382 95.173C54.0698 97.6715 55.1784 99.6141 58.1638 99.8789C60.3597 100.073 63.9208 100.208 65.7992 98.8443C67.9984 97.2537 67.2467 94.4164 66.824 92.1613C66.4654 90.25 66.0427 88.3502 65.5887 86.4586C66.9833 86.2825 68.2546 85.5704 69.1333 84.4732C69.7857 83.5477 70.2344 82.4942 70.4496 81.3825C70.6648 80.2707 70.6417 79.126 70.3818 78.0238C69.911 75.7004 69.2209 73.4269 68.3208 71.2339C67.4641 68.9261 66.4228 66.6912 65.2071 64.5508C65.0646 64.3005 64.8576 64.093 64.6076 63.9498C64.3577 63.8066 64.074 63.733 63.7859 63.7366C62.3978 63.8863 61.0375 64.2296 59.7445 64.7564C59.769 64.5731 59.7833 64.3886 59.7873 64.2038C59.8334 61.1378 59.7051 58.0537 59.6014 54.9794C60.9584 55.792 62.3187 56.598 63.7136 57.3464C64.7173 57.9756 65.872 58.3229 67.0564 58.3518C68.2407 58.3808 69.411 58.0903 70.4443 57.5109C72.7553 56.2888 76.7375 54.0879 77.856 51.2703C78.6964 51.4736 79.5733 51.4736 80.4137 51.2703C81.606 50.9337 82.6878 50.2871 83.5489 49.3963C84.4099 48.5054 85.0195 47.4023 85.3154 46.1992C85.865 43.5828 85.6678 40.8646 84.7463 38.355C85.8798 37.177 86.5331 35.6187 86.5786 33.9846C86.5583 33.4649 86.4417 32.9535 86.2348 32.4763C89.1273 30.0241 91.7888 27.3119 94.1861 24.3737C94.7678 23.6735 95.1142 22.8078 95.1759 21.8995C95.2376 20.9913 95.0116 20.0866 94.5298 19.3142C93.58 17.838 92.2475 16.647 90.6743 15.8682ZM91.1052 20.3093C91.4027 20.5739 91.6434 20.8963 91.8125 21.2567C91.7434 21.2567 91.6744 21.2567 91.6053 21.2567H91.5494C91.4809 21.2493 91.4133 21.2361 91.347 21.2173C91.2191 21.1877 91.0933 21.1498 90.9704 21.1038L90.9309 21.0758H90.9161C90.8635 21.0478 90.8092 21.0232 90.7516 20.9936C90.6254 20.9349 90.5076 20.8597 90.4013 20.7699L90.3552 20.7238C90.3026 20.6761 90.2516 20.6268 90.2039 20.5758C90.1562 20.5248 90.1266 20.4902 90.0871 20.4458L90.0279 20.3603C89.9547 20.2493 89.8893 20.1333 89.8321 20.0132L89.8108 19.9738C89.8108 19.9738 89.8108 19.9738 89.8108 19.9557C89.791 19.8981 89.768 19.8405 89.7499 19.7813C89.7318 19.7221 89.7055 19.6168 89.6874 19.5444C89.6874 19.5313 89.666 19.3997 89.6561 19.38C89.6463 19.3602 89.6561 19.3158 89.6479 19.2829C89.6479 19.2204 89.6479 19.1596 89.6479 19.0987C89.6479 19.0642 89.6479 19.0313 89.6479 18.9984C90.1869 19.371 90.6766 19.8104 91.1052 20.306V20.3093ZM85.1246 17.6381C85.1662 17.1238 85.2079 16.6089 85.2496 16.0936C85.2578 15.9932 85.2677 15.8929 85.2759 15.7942C85.2759 15.786 85.2759 15.7942 85.2759 15.7843V15.7745C85.2956 15.6889 85.3088 15.61 85.3302 15.5179C85.3302 15.5014 85.3532 15.4488 85.3729 15.3978L85.4766 15.4192L85.5111 15.4307L85.5818 15.4636C85.7713 15.5595 85.9557 15.6649 86.1345 15.7794C86.225 15.837 86.3138 15.8962 86.3993 15.957L86.4931 16.0245C86.6362 16.1495 86.7777 16.2712 86.9158 16.4028C86.4116 16.7606 85.9268 17.1449 85.4634 17.5542L85.1048 17.8634L85.1246 17.6381ZM80.7591 27.2769C80.2339 27.6892 79.7086 28.1015 79.1834 28.5138C79.1071 28.5903 79.0466 28.6811 79.0054 28.7811C78.9641 28.881 78.943 28.988 78.9432 29.0961C78.9453 29.3139 79.0313 29.5225 79.1834 29.6784C79.3386 29.8315 79.5476 29.9177 79.7657 29.9185L79.9844 29.8889C80.1218 29.8514 80.247 29.7788 80.3479 29.6784L81.6375 28.6635C81.986 29.1541 82.361 29.6252 82.7609 30.0748C82.5921 30.0479 82.4218 30.0308 82.251 30.0238C81.3017 30.0333 80.3712 30.2889 79.5502 30.7656C79.3446 30.5436 79.111 30.3478 78.9169 30.1159C78.7787 29.9514 78.6422 29.7869 78.509 29.6109L78.4909 29.5863L78.379 29.4366C78.3132 29.3478 78.2475 29.2573 78.1833 29.1668C78.0188 28.9431 77.879 28.7079 77.7293 28.4776C78.3494 27.8838 79.0962 27.3657 79.6653 26.8755L80.2673 26.3574C80.4252 26.6677 80.5892 26.9731 80.7591 27.2736V27.2769ZM80.8743 37.3878H80.8611C80.7197 37.4289 80.5799 37.4667 80.4384 37.5029C80.3594 37.5029 80.2739 37.5029 80.1999 37.5029C80.1571 37.5029 80.116 37.5029 80.0749 37.5029L80.0305 37.4898C79.9795 37.4766 79.9301 37.4602 79.8808 37.4453L79.866 37.4355C79.764 37.3779 79.7591 37.3253 79.8101 37.4092C79.7689 37.3697 79.7278 37.3302 79.69 37.2874C79.6435 37.2512 79.5946 37.2182 79.5436 37.1888L79.4959 37.1197C79.4337 36.9774 79.36 36.8404 79.2755 36.7101C79.2574 36.6591 79.2393 36.6081 79.2245 36.5571C79.1982 36.4716 79.1834 36.3449 79.1604 36.2282C79.1604 36.2742 79.1291 36.2759 79.1291 36.1706V36.1212C79.1235 36.0926 79.1153 36.0645 79.1044 36.0374C79.114 36.0548 79.1222 36.073 79.1291 36.0916C79.1291 36.0357 79.1291 35.9798 79.1291 35.9272C79.1291 35.914 79.1291 35.8943 79.1291 35.8762L79.1439 35.812C79.1651 35.7345 79.1904 35.6582 79.2196 35.5834C79.1998 35.6064 79.1932 35.5719 79.236 35.4962L79.2525 35.4666C79.2611 35.4425 79.2677 35.4178 79.2722 35.3926C79.2722 35.4189 79.264 35.4304 79.2607 35.4518C79.3018 35.3745 79.3429 35.2972 79.389 35.2232C79.435 35.1491 79.4679 35.1064 79.5074 35.0488C79.5469 34.9912 79.5485 34.9847 79.5551 34.9715C79.6439 34.8777 79.7574 34.7741 79.7854 34.7429C80.0328 34.4847 80.2948 34.2409 80.57 34.0125H80.5535L80.5848 33.9912L80.6062 33.9714C80.6818 33.9089 80.6884 33.9122 80.6753 33.9287L80.746 33.876C80.8924 33.7773 81.0421 33.6852 81.195 33.6013C81.2806 33.5553 81.3595 33.5142 81.4549 33.4681C81.4833 33.4563 81.509 33.439 81.5306 33.4171C81.6671 33.3743 81.8464 33.348 81.9319 33.3283C82.0089 33.3209 82.0849 33.3061 82.1589 33.2839C82.1331 33.2965 82.1053 33.3044 82.0767 33.3069C82.1902 33.3069 82.302 33.3069 82.4155 33.3069C82.478 33.3217 82.5422 33.3349 82.6047 33.353C82.6672 33.3711 82.7149 33.3875 82.7692 33.4056C82.8185 33.4352 82.8761 33.4665 82.9336 33.5026C82.9123 33.473 82.9468 33.4697 83.0093 33.5323L83.0537 33.5734C83.0722 33.5861 83.0914 33.5976 83.1113 33.6079C83.0899 33.6079 83.0833 33.5931 83.0652 33.5849L83.1508 33.6655L83.1804 33.6967C83.1928 33.7136 83.2044 33.7312 83.2149 33.7494C83.2281 33.7757 83.2445 33.8168 83.2642 33.8579V33.8859C83.2594 33.9034 83.2586 33.9218 83.2617 33.9397C83.2648 33.9576 83.2719 33.9746 83.2823 33.9895C83.2823 34.0372 83.2823 34.0866 83.2823 34.0948C83.2823 34.103 83.2823 34.1672 83.2823 34.2214C83.2971 34.1672 83.3103 34.1458 83.2823 34.2724V34.3448C83.2823 34.3448 83.2823 34.3251 83.2823 34.3086C83.2379 34.483 83.1804 34.6524 83.1327 34.8251V34.8366C83.0833 34.932 83.0373 35.0274 82.9863 35.1212C82.8126 35.4272 82.6227 35.7237 82.4172 36.0094L82.404 36.0291C82.3546 36.0916 82.302 36.1558 82.2494 36.215C82.1145 36.3795 81.973 36.5259 81.825 36.6723C81.677 36.8187 81.547 36.9272 81.4039 37.0506C81.3003 37.1114 81.2016 37.1871 81.098 37.2496C81.0179 37.3033 80.9434 37.3483 80.8743 37.3845V37.3878ZM77.147 39.4257C77.1219 39.4234 77.0966 39.4234 77.0714 39.4257C77.0944 39.4257 77.1142 39.4126 77.1372 39.4093L77.147 39.4257ZM77.6537 47.678C77.6899 47.7092 77.6767 47.6977 77.6537 47.678ZM79.542 34.9929L79.4466 35.1294C79.4433 35.1014 79.4877 35.0472 79.542 34.9896V34.9929ZM79.2837 36.7397C79.3215 36.8318 79.3676 36.9881 79.2936 36.771L79.2837 36.7397ZM79.139 35.7972C79.139 35.7824 79.139 35.7791 79.139 35.7972ZM75.0038 35.8186C75.0901 35.6634 75.1903 35.5164 75.3032 35.3794C75.7793 34.8509 76.151 34.2369 76.3986 33.5701C76.6097 32.656 76.6631 31.7125 76.5566 30.7804C76.552 30.4645 76.6143 30.1512 76.7391 29.8609C77.1861 30.5074 77.6723 31.1259 78.1948 31.713C77.7815 32.0685 77.4011 32.4604 77.0582 32.8842C76.2608 33.7928 75.8288 34.965 75.846 36.1739C75.846 36.266 75.8756 36.3515 75.8855 36.442C75.5275 36.5731 75.185 36.743 74.864 36.9486C74.8071 36.8078 74.7721 36.6592 74.7604 36.5078C74.7604 36.256 74.8463 36.0117 75.0038 35.8153V35.8186ZM39.0375 39.9439C40.0843 41.4604 41.5798 42.6109 43.3141 43.2336C43.4183 43.2623 43.527 43.2702 43.6342 43.257C43.7414 43.2437 43.8449 43.2094 43.9388 43.1561C44.0328 43.1028 44.1153 43.0315 44.1817 42.9463C44.248 42.8611 44.297 42.7636 44.3257 42.6595C44.378 42.4492 44.3474 42.2269 44.2402 42.0386C44.133 41.8503 43.9575 41.7104 43.75 41.6479C43.63 41.6052 43.5115 41.5591 43.3931 41.5114L43.2928 41.467L43.1283 41.3913C42.8855 41.2723 42.6489 41.1411 42.4193 40.9982C42.3108 40.9291 42.2022 40.8584 42.0904 40.7844C42.041 40.7515 41.9933 40.717 41.9456 40.6824L41.8667 40.6232C41.6627 40.4587 41.4637 40.2942 41.2745 40.1084C41.0854 39.9225 40.911 39.7399 40.7416 39.5442L40.6067 39.3797L40.564 39.3271C40.485 39.2218 40.4093 39.1165 40.3353 39.008C40.2152 38.832 40.1067 38.6477 40.0063 38.4619C40.5988 38.7972 41.2151 39.0885 41.8502 39.3336C43.8268 40.095 45.943 40.4264 48.0578 40.3055C50.1725 40.1847 52.2372 39.6145 54.1142 38.6329C54.1202 38.7256 54.1345 38.8175 54.157 38.9076C52.9393 40.5492 51.2698 41.8004 49.3524 42.5082C49.1452 42.571 48.9701 42.711 48.8632 42.8993C48.7564 43.0876 48.726 43.3097 48.7783 43.5198C48.8071 43.6239 48.856 43.7213 48.9224 43.8065C48.9888 43.8917 49.0713 43.963 49.1652 44.0163C49.2592 44.0696 49.3627 44.1039 49.4699 44.1172C49.577 44.1305 49.6858 44.1226 49.7899 44.0938C51.9011 43.3353 53.7672 42.0188 55.19 40.2844C54.9048 41.6513 54.2585 42.9168 53.3181 43.9491C52.2451 45.1647 51.0685 46.2847 49.8014 47.2964C48.8589 48.053 47.6121 49.1846 46.3028 49.0136C44.9845 48.6661 43.7732 47.9963 42.7779 47.0644C41.6255 46.1982 40.6481 45.1209 39.8978 43.8899C39.2019 42.6982 38.9008 41.317 39.0375 39.9439ZM56.1111 32.0782C55.2665 33.6726 53.9783 34.9884 52.4021 35.8664C50.8259 36.7444 49.0291 37.1471 47.2289 37.0259C45.5972 37.0826 43.9752 36.7529 42.4951 36.0637C41.015 35.3746 39.7187 34.3454 38.7119 33.0602C36.6624 30.1274 36.4864 26.4693 36.5604 22.9707C36.5604 22.9394 36.5604 22.9082 36.5604 22.8786V22.849C36.5949 22.849 36.6278 22.8654 36.6607 22.8703C42.6279 23.8681 48.7214 23.8425 54.6801 22.7947C55.4926 22.6549 56.3085 22.497 57.1144 22.3094C57.6829 25.5961 57.3358 28.9758 56.1111 32.0782ZM63.9554 23.4691C63.9915 23.5678 64.0244 23.6664 64.0524 23.7668C64.1012 23.9393 64.1402 24.1145 64.1692 24.2915C64.1692 24.3441 64.1922 24.6797 64.1939 24.7274C64.1939 24.9379 64.1807 25.1485 64.1675 25.359V25.4067C64.1494 25.5054 64.1314 25.6057 64.11 25.7044C64.0332 26.057 63.927 26.4025 63.7925 26.7374C63.753 26.8081 63.6461 27.0335 63.628 27.0663C63.5589 27.193 63.4849 27.3164 63.4076 27.4364C63.3632 27.5039 63.3172 27.5697 63.2695 27.6355L63.2382 27.6733C63.1083 27.8131 62.9849 27.9546 62.8451 28.0829L62.6806 28.2227C62.6584 28.2363 62.637 28.2511 62.6164 28.2671C62.452 28.3608 62.2973 28.4562 62.1329 28.5451C62.4618 28.3691 61.9684 28.601 61.8763 28.6257C61.8187 28.6421 61.5325 28.6915 61.4996 28.7063C61.3596 28.7186 61.219 28.7236 61.0785 28.7211C61.0242 28.7211 60.97 28.7211 60.914 28.7096C60.8926 28.7096 60.891 28.7096 60.8334 28.6931C60.7155 28.6484 60.5952 28.6099 60.4732 28.578L60.4156 28.5451C60.5945 26.8174 60.6137 25.0769 60.4732 23.3457C60.516 23.2848 60.5785 23.2486 60.613 23.1812C60.6755 23.0546 60.7479 22.9378 60.8219 22.8177C60.8301 22.8276 61.0193 22.5841 61.0621 22.5364L61.1098 22.4937C61.1509 22.4657 61.192 22.4361 61.2331 22.4114C61.3022 22.3687 61.5736 22.2617 61.5522 22.2601L61.8812 22.1663L61.9273 22.1565C61.9684 22.1565 62.0111 22.1565 62.0539 22.1466C62.1707 22.1466 62.2891 22.1466 62.4076 22.1565C62.5264 22.1932 62.6472 22.2234 62.7694 22.2469L62.7957 22.2552C62.8599 22.2881 62.924 22.3193 62.9865 22.3555C63.049 22.3917 63.48 22.7387 63.2053 22.4854C63.3056 22.5776 63.4076 22.6664 63.5014 22.7634C63.5557 22.8193 63.605 22.8769 63.656 22.9279L63.6724 22.9526C63.7662 23.1072 63.86 23.2585 63.9455 23.4197L63.9554 23.4691ZM47.3424 15.2448C47.2305 15.2547 47.122 15.2448 47.0134 15.2448C46.3087 15.3092 45.5982 15.2308 44.9244 15.0143C44.2506 14.7978 43.6274 14.4477 43.0921 13.9849C42.811 13.7468 42.5425 13.4942 42.2878 13.2282C45.3379 13.5936 48.4266 13.4748 51.4397 12.8762C50.992 13.5678 50.3869 14.1434 49.6738 14.556C48.9608 14.9686 48.1601 15.2063 47.3374 15.2497L47.3424 15.2448ZM39.6116 6.4646C40.0018 5.49338 40.534 4.58541 41.1906 3.77034C41.9127 2.99397 42.6907 3.35255 43.574 3.67329C44.5827 4.11982 45.679 4.33345 46.7815 4.29834C47.8589 4.11962 48.9158 3.83364 49.9363 3.44466C50.2906 3.27714 50.6912 3.23473 51.0728 3.32436C51.4543 3.41399 51.7941 3.63036 52.0368 3.93811C53.1046 5.40231 53.9294 7.02911 54.4794 8.75588C53.849 9.40303 53.2878 10.1142 52.8049 10.8777C48.8058 11.9415 44.6181 12.0888 40.5541 11.3087C40.1179 10.778 39.6511 10.2733 39.156 9.79707C38.9602 9.61285 38.748 9.4533 38.5408 9.28717C38.8286 8.32403 39.1843 7.38247 39.605 6.46954L39.6116 6.4646ZM32.3907 11.0702C35.4847 9.12926 38.1723 13.7842 39.957 15.5738C40.8266 16.5287 41.8902 17.2868 43.0765 17.7974C44.2628 18.308 45.5445 18.5593 46.8358 18.5345C46.9706 18.5477 47.0956 18.5477 47.2634 18.551C48.5318 18.5642 49.7856 18.2793 50.9236 17.719C52.0616 17.1587 53.052 16.3388 53.8149 15.3254C55.3758 13.294 56.2311 10.1507 59.3136 10.1704C59.9698 10.1579 60.6167 10.3266 61.1832 10.658C61.7497 10.9894 62.2138 11.4706 62.5244 12.0487C62.8351 12.6269 62.9803 13.2795 62.944 13.9348C62.9077 14.5901 62.6913 15.2227 62.3187 15.7629C60.6114 18.1924 57.5799 18.9161 54.8445 19.431C50.0539 20.2797 45.1703 20.4756 40.3271 20.0132C37.9059 19.9955 35.5288 19.3633 33.4187 18.1759C31.1587 16.6742 29.4744 12.9009 32.3841 11.0768L32.3907 11.0702ZM33.1884 22.8605C33.1572 22.8276 33.1292 22.7963 33.1391 22.7947C33.149 22.793 33.1621 22.8374 33.1819 22.867L33.1884 22.8605ZM32.4729 22.4344C32.4729 22.4427 32.4269 22.4344 32.3808 22.4229C32.4252 22.4312 32.4647 22.4328 32.4746 22.441L32.4729 22.4344ZM33.4105 28.5319C33.2378 28.5697 33.3019 28.5648 33.3743 28.5516C33.1433 28.5621 32.9118 28.5549 32.6818 28.5303C32.6725 28.5294 32.6632 28.5294 32.6539 28.5303C32.6375 28.5213 32.6197 28.5152 32.6012 28.5122C32.4532 28.476 32.3052 28.4431 32.1588 28.3954C32.0124 28.3477 31.7229 28.1914 32.0042 28.346C31.889 28.2835 31.7722 28.2293 31.6587 28.1618C31.5452 28.0944 31.4416 28.0187 31.3298 27.9447C31.5913 28.124 31.3084 27.9151 31.2146 27.8263C31.1209 27.7374 31.032 27.6437 30.9465 27.5466L30.8741 27.4628C30.7097 27.2062 30.5698 26.9479 30.4202 26.6864L30.3873 26.5992C30.3423 26.4753 30.3028 26.3503 30.2688 26.2242C30.2327 26.0992 30.2014 25.9709 30.1751 25.8426C30.1751 25.8278 30.157 25.7653 30.1471 25.7126C30.1471 25.7126 30.1471 25.7126 30.1471 25.6978C30.1227 25.4035 30.1189 25.1078 30.1356 24.8129C30.1356 24.7652 30.1356 24.7191 30.1488 24.6714C30.1899 24.507 30.2146 24.3425 30.2606 24.178C30.3001 24.0382 30.3511 23.9033 30.3971 23.7668C30.3083 24.0267 30.4185 23.7306 30.4712 23.6335C30.5485 23.4888 30.6356 23.3556 30.7261 23.2174C30.7771 23.1615 30.8248 23.1055 30.8774 23.0529C30.9712 22.9575 31.0732 22.8703 31.1719 22.7815C30.9663 22.9674 31.162 22.7963 31.2755 22.7272C31.389 22.6581 31.4778 22.617 31.5798 22.5627C31.6522 22.5414 31.7212 22.5134 31.7936 22.4937C31.866 22.4739 31.9581 22.4591 32.0272 22.4377C32.0749 22.4377 32.2344 22.4377 32.3562 22.4377C32.4302 22.4591 32.5075 22.4723 32.5831 22.4937L32.7049 22.5315C32.7591 22.5611 32.8151 22.5891 32.8693 22.6203L32.9664 22.673L32.9861 22.6894C33.0585 22.7568 33.1292 22.8407 33.2049 22.9049L33.2181 22.9147C33.2444 22.9575 33.269 23.0036 33.2756 23.0134L33.2855 23.0332C33.2343 24.8627 33.3372 26.6933 33.5931 28.5056L33.4105 28.5319ZM16.2662 39.4208C16.1906 39.4109 16.1741 39.4208 16.1873 39.4208L16.2021 39.4011C16.2185 39.4142 16.2383 39.4257 16.2597 39.4274L16.2662 39.4208ZM12.9173 37.5079L12.743 37.4766C12.6837 37.4618 12.6262 37.4437 12.567 37.4256C12.5785 37.4256 12.5949 37.4421 12.5966 37.4519C12.5846 37.4406 12.5714 37.4306 12.5571 37.4223H12.5423C12.363 37.3631 12.4123 37.3615 12.4847 37.3828C12.3778 37.3269 12.2314 37.2595 12.2018 37.243C12.1327 37.2003 12.0669 37.1526 11.9978 37.1098C11.9848 37.1014 11.9711 37.0942 11.9567 37.0884L11.9403 37.072C11.6705 36.8444 11.4176 36.5976 11.1836 36.3334C11.1146 36.2561 11.0504 36.1689 10.9813 36.0966L10.9698 36.0834C10.8545 35.9395 10.75 35.7872 10.6573 35.6278C10.5668 35.4896 10.478 35.3482 10.3974 35.2034C10.3563 35.1278 10.3152 35.0521 10.2757 34.9764C10.2757 34.9682 10.2198 34.8416 10.1918 34.7823L10.1507 34.6623C10.126 34.5833 10.103 34.4978 10.0832 34.4205C10.0832 34.404 10.0651 34.3382 10.052 34.2774C10.0388 34.2165 10.052 34.1688 10.052 34.1129C10.052 34.0997 10.052 34.0454 10.052 33.9945C10.0339 34.0422 10.0174 34.0619 10.052 33.9517C10.0257 33.9829 10.0191 33.9665 10.052 33.8941V33.8694V33.881L10.0635 33.8563L10.08 33.8283L10.0948 33.7708C10.0948 33.7823 10.0948 33.7938 10.0948 33.8053C10.1111 33.781 10.126 33.7558 10.1392 33.7296C10.1754 33.6934 10.2082 33.6573 10.2444 33.6227L10.2559 33.6112C10.3587 33.5578 10.4576 33.4973 10.552 33.4303L10.6228 33.4056C10.7033 33.3809 10.7872 33.3579 10.8662 33.3398C10.9451 33.3217 11.0915 33.3217 10.9369 33.3234H10.9731C11.057 33.3234 11.1376 33.3234 11.2231 33.3234C11.2417 33.3254 11.2605 33.3254 11.279 33.3234L11.3925 33.3513C11.5439 33.3859 11.6886 33.4369 11.835 33.4796L11.9041 33.4994C11.9485 33.524 11.9913 33.552 12.0258 33.5701C12.1991 33.6598 12.3671 33.7592 12.5291 33.8678L12.6591 33.9435L12.7183 33.9945C12.84 34.0964 12.9601 34.1984 13.0769 34.3053C13.3433 34.5488 13.5802 34.8152 13.8253 35.0801C13.8713 35.1475 13.919 35.2149 13.9618 35.284C14.0046 35.3531 14.0325 35.4041 14.0654 35.4666L14.0786 35.4896C14.1197 35.6327 14.1575 35.7758 14.1954 35.9206C14.1954 35.9929 14.1954 36.0686 14.1954 36.1393C14.1954 36.2101 14.1362 36.4107 14.1954 36.1722C14.2743 35.8877 14.1756 36.2545 14.1625 36.3137C14.1246 36.4782 14.072 36.6229 14.0194 36.7775C13.9717 36.8647 13.9289 36.9552 13.8779 37.0424C13.845 37.0966 13.8105 37.1509 13.7759 37.2068C13.724 37.2378 13.674 37.2719 13.6262 37.3088C13.5917 37.345 13.5539 37.3812 13.516 37.4157C13.4782 37.4503 13.4387 37.4536 13.3877 37.4815L13.2562 37.5177L12.9173 37.5079ZM16.809 33.6096C16.6494 33.3717 16.4741 33.1448 16.2843 32.9302C16.4488 32.746 16.5952 32.5486 16.7498 32.3562C16.7575 32.7649 16.8188 33.1708 16.9324 33.5635C17.1801 34.2304 17.5518 34.8443 18.0279 35.3728C18.1402 35.5103 18.2403 35.6572 18.3272 35.812C18.4871 36.0076 18.5754 36.2519 18.5772 36.5045C18.5648 36.6547 18.5298 36.8022 18.4736 36.942C18.149 36.7324 17.802 36.5597 17.439 36.4272C17.5399 35.4445 17.3188 34.4557 16.809 33.6096ZM16.5475 29.7294C16.309 30.1192 16.1001 30.5288 15.8271 30.8972L15.7382 31.0156C15.7382 31.0271 15.6379 31.1472 15.6905 31.0798C15.7432 31.0123 15.6297 31.1587 15.6182 31.1719L15.5244 31.2887C15.3978 31.4449 15.2662 31.5996 15.1346 31.7509C15.0425 31.6736 14.9586 31.5864 14.8648 31.5074C14.0239 30.7947 13.0131 30.3114 11.9304 30.1044C11.7612 30.0832 11.591 30.0711 11.4205 30.0682C11.7676 29.754 12.1393 29.4678 12.4699 29.1356L14.248 30.4514C14.3427 30.5067 14.4476 30.5424 14.5563 30.5565C14.6651 30.5707 14.7756 30.5629 14.8813 30.5337C15.0881 30.4753 15.2646 30.3399 15.3747 30.1554C15.43 30.0606 15.4657 29.9558 15.4798 29.8471C15.4939 29.7383 15.4862 29.6278 15.457 29.5221L15.3747 29.3247C15.303 29.2027 15.201 29.1013 15.0787 29.0303L13.5588 27.9085C13.7513 27.6914 13.9486 27.4792 14.1345 27.2506C15.1132 27.887 15.9376 28.7339 16.5475 29.7294ZM7.63735 15.9768L7.68176 15.9356C7.70276 15.9254 7.72309 15.9139 7.74262 15.9011C7.83638 15.8419 7.92684 15.781 8.02389 15.7284L8.1637 15.6478H8.18179C8.24923 15.633 8.33476 15.5985 8.41536 15.5787C8.47013 15.5752 8.52508 15.5752 8.57985 15.5787C8.62697 15.5763 8.67418 15.5763 8.7213 15.5787C8.78874 15.5952 8.86276 15.6248 8.91046 15.6396L8.87592 15.6313C8.86605 15.6313 8.8496 15.6182 8.85454 15.6313C8.74433 15.6034 8.81342 15.6396 8.88414 15.6642C8.90158 15.682 8.92027 15.6985 8.94007 15.7136C8.97132 15.7942 9.06179 15.9554 8.98119 15.73C9.01695 15.8289 9.04607 15.93 9.06837 16.0327C9.06837 16.0689 9.08975 16.2169 9.09304 16.2268C9.11771 16.7301 9.13581 17.2318 9.13416 17.7351C9.13416 18.0312 9.11442 18.3256 9.10456 18.6217C8.44662 18.0361 7.71959 17.2894 6.92842 16.6709C7.15541 16.4258 7.3824 16.184 7.63735 15.9768ZM3.95782 18.8701C3.97088 18.9119 3.98024 18.9549 3.98578 18.9984C3.98578 19.0263 3.98578 19.0526 3.98578 19.0806C3.98578 19.1447 3.98578 19.2089 3.98578 19.273C3.98578 19.3076 3.98578 19.3306 3.98578 19.352C3.96323 19.4877 3.92967 19.6214 3.88545 19.7517C3.87558 19.7813 3.78511 19.9754 3.869 19.8076C3.83939 19.8685 3.81143 19.9293 3.78018 19.9886C3.712 20.1148 3.63448 20.2358 3.54825 20.3504L3.48081 20.431C3.42818 20.4902 3.37225 20.5462 3.31633 20.5955C3.2604 20.6449 3.22257 20.681 3.17323 20.7238C3.15349 20.7386 3.11566 20.7699 3.08934 20.788C2.96801 20.8702 2.84105 20.9439 2.70938 21.0084C2.69063 21.0163 2.67249 21.0257 2.6551 21.0363H2.62385C2.55476 21.0577 2.48568 21.084 2.4166 21.1038C2.34751 21.1235 2.27514 21.14 2.20277 21.1531L2.11559 21.1679H2.09585C1.93137 21.1679 1.78004 21.1827 1.62213 21.1679L1.5514 21.1778C1.7268 20.8503 1.95714 20.5555 2.23237 20.306C2.63207 19.8964 3.3739 18.9868 3.95782 18.8701ZM3.47423 24.3129C3.03506 23.8507 2.46594 23.3473 2.02677 22.7963C2.60687 22.7778 3.17509 22.627 3.68806 22.3555C4.15693 22.0871 4.56421 21.7232 4.88354 21.2874C5.20287 20.8516 5.42713 20.3537 5.54181 19.8257C5.72768 20.0132 5.89874 20.1892 6.03527 20.3077L8.52228 22.446L12.8762 26.1913C11.752 27.5271 10.5089 28.7581 9.16212 29.8692C7.94823 28.7178 6.72939 27.5664 5.54345 26.4002C4.8411 25.7176 4.14862 25.0234 3.47423 24.3129ZM14.6477 48.1286L14.503 48.15C14.4388 48.15 14.2069 48.15 14.1329 48.15L13.919 48.127L13.7957 48.099C13.7134 48.0744 13.6312 48.0546 13.544 48.03C13.521 48.03 13.3795 47.9707 13.3269 47.9592C12.7404 47.7172 12.235 47.3133 11.8695 46.7947C11.4184 46.1249 11.1285 45.3598 11.0224 44.5593C10.8813 43.1815 11.0178 41.7894 11.4238 40.4653C11.823 40.6211 12.2402 40.7261 12.6657 40.7778C13.721 40.8896 14.7778 40.5791 15.605 39.9143C15.7729 39.8431 15.9241 39.7378 16.0491 39.605C16.0968 39.5508 16.1346 39.4883 16.1807 39.4323C16.2268 39.4603 16.559 39.5442 16.4422 39.4965C16.3863 39.4751 16.689 39.633 16.7712 39.684L16.8288 39.7185C16.8995 39.7761 16.9702 39.8403 17.036 39.9044C17.1018 39.9686 17.1545 40.0278 17.212 40.0919C17.2245 40.1073 17.2389 40.1211 17.2548 40.133L17.2762 40.1659C17.7167 40.7786 17.927 41.5271 17.87 42.2796C17.87 42.3026 17.87 42.3256 17.87 42.3486L15.4405 41.1084C15.2521 40.9983 15.0276 40.9675 14.8164 41.0229C14.6053 41.0782 14.4248 41.2152 14.3146 41.4037C14.2045 41.5921 14.1737 41.8166 14.2291 42.0278C14.2844 42.2389 14.4214 42.4194 14.6099 42.5296L17.6216 44.0642C17.5574 44.3307 17.4999 44.5972 17.4193 44.8636C17.2519 45.4027 17.0258 45.9218 16.7449 46.4114L13.5424 44.2287C13.3541 44.1186 13.1298 44.0877 12.9189 44.1429C12.7079 44.1982 12.5275 44.3349 12.4173 44.5231C12.3124 44.7127 12.2847 44.9355 12.3398 45.145C12.395 45.3546 12.5288 45.5348 12.7134 45.6482L15.6872 47.6763C15.6724 47.6828 15.6581 47.6905 15.6445 47.6993C15.5441 47.7635 15.4455 47.8276 15.3402 47.8852C15.276 47.9198 15.2102 47.9543 15.1444 47.9855C15.1181 47.9954 15.0293 48.03 15.0013 48.0365C14.8747 48.0678 14.7645 48.099 14.6477 48.1286ZM40.8156 67.5379C41.2218 68.9218 42.1305 70.1039 43.3635 70.8523C43.6333 71.0088 43.9148 71.1441 44.2056 71.2569C41.5856 73.9173 38.0777 75.5199 34.3514 75.7588C35.3251 73.001 36.4008 70.282 37.5786 67.602C38.6526 67.6251 39.7465 67.5675 40.8156 67.5329V67.5379ZM43.9408 65.2877C43.9726 65.2241 44.0055 65.1616 44.0395 65.1002C44.0774 65.0311 44.1218 64.967 44.1612 64.9012C44.1668 64.8922 44.1717 64.8828 44.176 64.8732L44.1908 64.8601C44.3274 64.712 44.4688 64.5771 44.6152 64.439C44.6317 64.4242 44.6152 64.4291 44.6333 64.4192C44.6514 64.4094 44.6333 64.4192 44.6646 64.4044C44.7665 64.3419 44.8652 64.2712 44.9705 64.2103C45.0396 64.1709 45.1103 64.133 45.181 64.0968L45.2452 64.0656C45.4296 64.0269 45.6101 63.9719 45.7847 63.9011L45.8587 63.8764H45.9081L46.1285 63.8666C46.1548 63.8666 46.1762 63.8518 46.2009 63.8501C46.3736 63.8583 46.5463 63.8666 46.719 63.883C46.7979 63.883 46.8835 63.8995 46.9558 63.9077H46.9739C47.352 63.9423 47.724 64.0252 48.0809 64.1544C48.2734 64.2103 48.4592 64.2778 48.6467 64.3436H48.6599L48.7718 64.4044C48.8063 64.4225 49.0464 64.5854 49.1599 64.6479L49.1978 64.6643C49.2136 64.681 49.2269 64.6998 49.2372 64.7202L49.2488 64.7416C49.2683 64.7643 49.2904 64.7847 49.3146 64.8025C49.2956 64.792 49.2779 64.7793 49.2619 64.7647C49.303 64.8453 49.3491 64.9291 49.3952 65.0065V65.0344C49.4149 65.1183 49.4461 65.1989 49.4675 65.2861C49.489 65.3582 49.505 65.4319 49.5152 65.5065C49.5152 65.5262 49.5152 65.5443 49.5152 65.5624C49.5218 65.6721 49.5218 65.7817 49.5152 65.8914V66.0246C49.4971 66.2138 49.5004 66.2006 49.5267 65.9818C49.5728 66.097 49.4198 66.4556 49.3853 66.5592C49.3688 66.6102 49.3277 66.7006 49.3129 66.7237C49.2981 66.7467 49.2849 66.7829 49.2685 66.8125C49.229 66.8865 49.1863 66.9589 49.1418 67.0313L49.0876 67.1316C49.0497 67.1777 48.9626 67.2961 48.9543 67.2961C48.8704 67.3882 48.7898 67.4787 48.6912 67.5642C48.6303 67.6201 48.5678 67.6744 48.5036 67.7287C48.3535 67.8512 48.1875 67.953 48.0102 68.0313C47.9362 68.0708 47.8622 68.107 47.7865 68.1448H47.7766C47.5822 68.2302 47.3777 68.2904 47.168 68.3241C47.0924 68.3406 47.0035 68.3619 46.9197 68.3718H46.9081C46.6927 68.3718 46.4821 68.3916 46.265 68.38L46.1005 68.3702L46.0709 68.3619C45.8419 68.3133 45.6157 68.2523 45.3932 68.1794H45.3686C45.2897 68.15 45.2146 68.1114 45.1449 68.0642C45.0692 68.0231 44.9968 67.9803 44.9244 67.9343L44.7698 67.8241L44.6596 67.7303C44.6021 67.6744 44.5445 67.6185 44.4951 67.5658L44.4162 67.4869L44.3751 67.4293L44.3076 67.329C44.205 67.185 44.1179 67.0307 44.0477 66.8684V66.852C44.0198 66.7549 43.9836 66.6595 43.9573 66.5625C43.931 66.4654 43.9162 66.398 43.8964 66.3092C43.8979 66.3212 43.8979 66.3333 43.8964 66.3454C43.8964 66.3322 43.8964 66.3042 43.8964 66.2878V66.2664C43.8685 66.1578 43.8964 66.148 43.9063 66.1809C43.9063 66.0296 43.8767 65.8519 43.8816 65.7417C43.8816 65.6825 43.9721 65.3617 43.8915 65.6002C43.8109 65.8387 43.9326 65.4588 43.9491 65.4045C43.926 65.3749 43.9359 65.3223 43.9458 65.2828L43.9408 65.2877ZM43.9408 65.2779C43.9483 65.2224 43.9698 65.1697 44.0033 65.1249L43.9408 65.2779ZM45.8998 63.8633H45.8637C45.9624 63.8255 46.0808 63.7777 45.9081 63.8583L45.8998 63.8633ZM49.1649 64.638C49.1649 64.638 49.1764 64.638 49.1912 64.6528C49.1846 64.6468 49.1785 64.6402 49.1731 64.6331L49.1649 64.638ZM50.188 70.5512C51.2501 69.8057 52.057 68.7513 52.499 67.5313C53.5731 67.5576 54.6587 67.6004 55.7328 67.5774C56.9181 70.2639 57.9977 72.9911 58.9715 75.7588C55.2016 75.5183 51.6561 73.8836 49.0251 71.173C49.4376 71.0086 49.8305 70.7983 50.1962 70.5463L50.188 70.5512ZM26.3031 81.5964C25.9055 79.9269 26.046 78.1744 26.7044 76.5895C27.6337 73.3379 28.8891 70.1885 30.4514 67.1892C31.5842 67.4306 32.6703 67.8544 33.6671 68.4442C31.6867 73.1567 30.011 77.9916 28.6503 82.9189C28.6273 82.9995 28.6108 83.0833 28.5894 83.1607C28.0831 83.2242 27.5709 83.1002 27.1497 82.812C26.7285 82.5238 26.4273 82.0914 26.3031 81.5964ZM63.332 96.3639C62.698 96.4945 62.0531 96.5644 61.4058 96.5728C60.3152 96.7254 59.2093 96.7353 58.1161 96.6024C57.0289 96.3704 56.7032 95.5694 56.2657 94.6286C55.7147 93.4393 55.185 92.2419 54.634 91.0526C52.4299 86.2974 50.1551 81.5717 48.2915 76.6668C48.2783 76.6339 48.2536 76.6174 48.2405 76.5862C48.1755 76.393 48.0689 76.2164 47.9282 76.0689C47.7875 75.9214 47.6162 75.8066 47.4263 75.7325C47.3934 75.7161 47.3621 75.6996 47.3292 75.6865C47.1988 75.6428 47.0644 75.6125 46.9279 75.596C46.843 75.5815 46.7573 75.5727 46.6713 75.5697C46.4481 75.5824 46.2272 75.6216 46.0133 75.6865C45.9772 75.6996 45.9459 75.7161 45.9114 75.7325C45.7214 75.807 45.5501 75.9221 45.4094 76.0699C45.2687 76.2177 45.1622 76.3945 45.0972 76.5878C45.084 76.6174 45.0593 76.6355 45.0478 76.6668C43.2204 81.4763 40.9965 86.1132 38.8319 90.7763C38.2836 91.965 37.7354 93.1575 37.1871 94.3539C36.7298 95.3687 36.4189 96.3672 35.2133 96.6024C34.1197 96.7296 33.0146 96.7196 31.9236 96.5728C31.351 96.5624 30.7802 96.5074 30.2162 96.4083C29.4908 96.2438 29.374 96.2142 29.3066 95.4855C29.3538 94.2644 29.5572 93.0544 29.9119 91.8849C30.1444 90.7193 30.3938 89.5569 30.6603 88.3979C31.2163 85.9854 31.8484 83.5911 32.5568 81.2148C32.8562 80.2082 33.1786 79.2081 33.5059 78.2113C36.0037 78.1969 38.4696 77.6494 40.7389 76.6056C43.0081 75.5617 45.0284 74.0455 46.6647 72.1583C48.3006 74.046 50.3208 75.5625 52.5901 76.6064C54.8595 77.6503 57.3256 78.1975 59.8235 78.2113C60.1196 79.1143 60.4156 80.0206 60.6903 80.9302C61.4327 83.3964 62.0906 85.8856 62.6642 88.3979C62.9306 89.5558 63.1801 90.7182 63.4126 91.8849C63.7684 93.0541 63.9719 94.2643 64.0179 95.4855C63.9669 96.0974 63.9619 96.1944 63.332 96.3639ZM66.6217 76.5895C67.2508 78.1315 67.4054 79.8262 67.0658 81.4566C66.9594 81.9793 66.6615 82.4433 66.2306 82.7577C65.7997 83.0721 65.2669 83.214 64.7367 83.1557C64.7153 83.0751 64.6988 82.9912 64.6758 82.9139C63.3154 77.9865 61.6397 73.1517 59.659 68.4393C60.6554 67.8483 61.7416 67.4239 62.8747 67.1826C64.4391 70.1838 65.6961 73.3354 66.6266 76.5895H66.6217ZM72.5925 52.3033C71.2023 53.4125 69.6665 54.3257 68.028 55.0173C66.4259 55.5403 64.763 54.162 63.457 53.3971L58.7017 50.6107C58.4514 50.4707 58.1691 50.398 57.8822 50.3997C57.5954 50.4014 57.314 50.4775 57.0654 50.6206C56.8168 50.7636 56.6095 50.9687 56.4639 51.2157C56.3182 51.4628 56.2392 51.7435 56.2344 52.0302C56.3035 55.196 56.3737 58.3613 56.445 61.5259C56.4614 62.2563 56.4812 62.9866 56.4943 63.7169C56.4848 63.8928 56.4848 64.069 56.4943 64.2449H56.037C54.8857 64.2449 53.7343 64.2334 52.5829 64.2235C52.55 64.1182 52.5352 64.0113 52.494 63.9061C52.2688 63.2532 51.8857 62.6661 51.3788 62.197C50.8593 61.765 50.2696 61.4251 49.6353 61.192C48.5197 60.779 47.3425 60.5566 46.1532 60.5341C46.0849 60.5425 46.0173 60.5557 45.9508 60.5736C44.8432 60.6342 43.776 61.0099 42.8747 61.6565C41.9734 62.3031 41.2756 63.1937 40.8633 64.2235C39.6724 64.2317 38.4832 64.2416 37.294 64.2449C37.1821 64.2449 37.0061 64.2252 36.8334 64.2169C36.8334 64.1314 36.8334 64.0524 36.8334 63.9603C36.8449 63.1494 36.8696 62.3369 36.8877 61.5259C36.959 58.3613 37.0292 55.196 37.0983 52.0302C37.0935 51.7435 37.0144 51.4628 36.8688 51.2157C36.7232 50.9687 36.5159 50.7636 36.2673 50.6206C36.0187 50.4775 35.7372 50.4014 35.4504 50.3997C35.1636 50.398 34.8813 50.4707 34.631 50.6107L29.8741 53.3971C28.5582 54.1685 26.9133 55.5354 25.303 55.0173C23.6623 54.3302 22.1258 53.4167 20.7386 52.3033C19.9079 51.7309 18.1874 50.6305 18.6003 49.4281L18.6299 49.3985C19.6874 48.1222 20.424 46.6112 20.7781 44.9919C21.3899 44.6317 22.9443 45.9196 23.4378 46.2223L27.5219 48.729C27.8372 48.9078 28.202 48.9794 28.5615 48.9331C28.921 48.8868 29.2557 48.7252 29.5155 48.4724C31.6275 46.4098 33.672 44.2649 35.8465 42.2648C35.8942 42.5345 35.9403 42.8059 36.011 43.0707C36.9674 45.9985 38.9012 48.5085 41.4884 50.1798C42.7227 51.1888 44.176 51.8952 45.7321 52.2424C46.5783 52.339 47.4353 52.2675 48.2539 52.0321C49.0724 51.7966 49.8365 51.402 50.5021 50.8706C53.2516 49.0802 55.5886 46.7253 57.3579 43.9622C57.5857 43.5564 57.7778 43.1315 57.9319 42.6924C59.9353 44.5692 61.8417 46.5512 63.804 48.4658C64.0638 48.7186 64.3985 48.8803 64.758 48.9265C65.1175 48.9728 65.4823 48.9012 65.7976 48.7224L69.8817 46.2157C70.3752 45.9114 71.8408 44.6991 72.4855 44.959C72.7744 46.2449 73.301 47.4655 74.0383 48.558C74.239 48.8418 74.4589 49.1116 74.6962 49.3656C75.1979 50.5959 73.4313 51.7194 72.5925 52.3033ZM81.8036 46.2058C81.6591 46.5054 81.4767 46.7851 81.2608 47.0381C81.0444 47.2914 80.7903 47.51 80.5075 47.6862C80.0021 48.0513 79.3785 48.2144 78.759 48.1435C78.9975 48.1599 78.4942 48.0826 78.4185 48.0612C78.3429 48.0398 78.2672 48.0152 78.1932 47.9872L78.1504 47.9658C77.9794 47.879 77.8146 47.7806 77.657 47.6714L80.6177 45.6466C80.7193 45.5971 80.8097 45.5273 80.8831 45.4414C80.9565 45.3555 81.0115 45.2554 81.0445 45.1473C81.0775 45.0392 81.0879 44.9255 81.075 44.8132C81.0621 44.7009 81.0262 44.5925 80.9696 44.4947C80.9129 44.3969 80.8367 44.3119 80.7457 44.2448C80.6547 44.1778 80.5509 44.1302 80.4407 44.1051C80.3305 44.08 80.2163 44.0779 80.1053 44.0989C79.9942 44.1198 79.8887 44.1635 79.7953 44.2271L76.5763 46.4197C76.4048 46.1355 76.2589 45.8366 76.1404 45.5265C75.9671 45.0495 75.8215 44.5629 75.7045 44.0692L78.7278 42.5279C78.916 42.4178 79.0527 42.2374 79.1079 42.0264C79.1632 41.8154 79.1323 41.5911 79.0222 41.4029C78.9085 41.2186 78.7282 41.085 78.5188 41.0299C78.3094 40.9748 78.0868 41.0023 77.8971 41.1068L75.4578 42.3503C75.4488 42.0805 75.462 41.8103 75.4973 41.5427C75.5414 41.3072 75.6024 41.0753 75.6798 40.8485L75.6979 40.7877C75.7374 40.7005 75.7802 40.615 75.8262 40.5327C75.9814 40.1838 76.2324 39.8861 76.55 39.6741C76.397 39.7876 76.7852 39.5475 76.8526 39.5096L76.8855 39.4981C76.9016 39.4958 76.9175 39.4925 76.9332 39.4883C76.9645 39.4784 77.1273 39.4406 77.1553 39.4257C77.2013 39.4833 77.2375 39.5458 77.2869 39.6017C77.393 39.7062 77.5166 39.7914 77.652 39.8534C78.2411 40.3315 78.9486 40.6413 79.6995 40.7499C80.4504 40.8584 81.2167 40.7618 81.9171 40.4702C82.2553 41.6527 82.4036 42.8813 82.3563 44.1103C82.3071 44.8368 82.1219 45.5477 81.8102 46.2058H81.8036ZM89.8502 24.3129C89.1758 25.0234 88.485 25.7176 87.7859 26.4035C86.7119 27.4595 85.6147 28.4908 84.5226 29.5287C83.2859 28.289 82.277 26.8414 81.5421 25.2521L84.8005 22.4558L87.2876 20.3175C87.4866 20.153 87.7481 19.8619 88.0327 19.5889C88.129 20.3754 88.4649 21.1134 88.9949 21.7025C89.6 22.3319 90.4032 22.7338 91.2697 22.8407C90.8388 23.3687 90.2878 23.8605 89.8568 24.3129H89.8502Z" fill="black"/>
<path d="M42.1203 23.7191C41.9022 23.7196 41.693 23.8058 41.538 23.9592C41.3872 24.116 41.3014 24.324 41.2979 24.5415V26.3393C41.3007 26.5565 41.3866 26.7643 41.538 26.92C41.6922 27.0741 41.9014 27.1607 42.1195 27.1607C42.3375 27.1607 42.5467 27.0741 42.7009 26.92C42.8528 26.7644 42.9393 26.5567 42.9427 26.3393V24.5415C42.94 24.3235 42.8534 24.115 42.7009 23.9592C42.5468 23.8055 42.338 23.7191 42.1203 23.7191Z" fill="black"/>
<path d="M51.4019 23.6549C51.185 23.6587 50.978 23.7466 50.8246 23.9C50.6711 24.0534 50.5833 24.2604 50.5795 24.4774V26.3393C50.5795 26.5574 50.6661 26.7666 50.8203 26.9209C50.9746 27.0751 51.1838 27.1618 51.4019 27.1618C51.62 27.1618 51.8292 27.0751 51.9834 26.9209C52.1377 26.7666 52.2243 26.5574 52.2243 26.3393V24.4774C52.2243 24.2592 52.1377 24.05 51.9834 23.8958C51.8292 23.7416 51.62 23.6549 51.4019 23.6549Z" fill="black"/>
<path d="M46.5891 30.9614C45.9823 30.9738 45.3842 31.1079 44.8301 31.3557C44.2761 31.6035 43.7774 31.9599 43.3636 32.4039C43.2137 32.559 43.1308 32.7667 43.1327 32.9824C43.1346 33.198 43.2211 33.4043 43.3736 33.5568C43.5261 33.7093 43.7323 33.7958 43.948 33.7976C44.1636 33.7995 44.3714 33.7166 44.5265 33.5668C44.7953 33.2594 45.1283 33.0146 45.5019 32.8496L45.5594 32.825L45.6943 32.774C45.8012 32.7378 45.9081 32.7065 46.0233 32.6802C46.1384 32.6539 46.2256 32.6342 46.3276 32.6194H46.3868L46.5957 32.6095C46.9909 32.5983 47.3839 32.6735 47.7471 32.8299C47.9362 32.9199 48.1187 33.0232 48.2932 33.1391C48.357 33.1776 48.4161 33.2234 48.4692 33.2757C48.5679 33.3612 48.6583 33.4517 48.7488 33.5471C48.8254 33.6233 48.9162 33.6837 49.0161 33.7249C49.1161 33.766 49.2231 33.7871 49.3312 33.7868C49.4392 33.7866 49.5462 33.7651 49.6459 33.7235C49.7457 33.682 49.8363 33.6212 49.9125 33.5446C49.9888 33.468 50.0492 33.3772 50.0903 33.2772C50.1315 33.1773 50.1525 33.0703 50.1523 32.9622C50.1521 32.8541 50.1306 32.7472 50.089 32.6474C50.0474 32.5477 49.9866 32.4571 49.9101 32.3809C49.4833 31.9293 48.9683 31.5703 48.397 31.3261C47.8258 31.0819 47.2104 30.9578 46.5891 30.9614Z" fill="black"/>
</g>
<defs>
<clipPath id="clip0_116_108">
<rect width="100" height="100" fill="white"/>
</clipPath>
</defs>
</svg>
