<svg width="20" height="24" viewBox="0 0 20 24" fill="none" xmlns="http://www.w3.org/2000/svg">
<path d="M12.565 10.106L12.447 10.07L12.28 10.021L7.82901 8.679L7.30701 10.832L12.565 12.293V10.106Z" fill="#63BAC0"/>
<path d="M6.95399 20.834L7.05899 20.807V11.256L5.59099 11.635C5.49699 11.943 5.41399 12.255 5.35999 12.578C5.35999 12.578 5.27799 13.09 5.19899 13.353C5.10399 13.672 4.75199 13.868 4.39499 13.868C4.03799 13.868 3.68599 13.673 3.58999 13.353C3.51099 13.09 3.42899 12.578 3.42899 12.578C3.40899 12.454 3.37599 12.335 3.34899 12.214L2.36099 12.468V22.072L6.79199 20.878L6.95399 20.834Z" fill="#63BAC0"/>
<path d="M7.181 20.81L7.276 20.836L7.437 20.881L9.776 21.544V11.959L7.181 11.238V20.81Z" fill="#63BAC0"/>
<path d="M12.565 12.733L10.201 12.077V17.027L12.565 18.246V12.733Z" fill="#63BAC0"/>
<path d="M10.201 21.664L12.565 22.332V18.723L10.201 17.506V21.664Z" fill="#63BAC0"/>
<path d="M12.687 18.304L17.994 16.912V11.306L12.687 12.728V18.304Z" fill="#63BAC0"/>
<path d="M17.994 20.964V17.35L17.155 17.571V21.187L17.994 20.964Z" fill="#63BAC0"/>
<path d="M7.556 8.64101C7.261 9.10701 6.65701 9.86001 6.04601 11.079L7.059 10.818L7.556 8.64101Z" fill="#63BAC0"/>
<path d="M12.687 22.366L12.697 22.368L16.732 21.3V17.683L12.687 18.744V22.366Z" fill="#63BAC0"/>
<path d="M17.994 8.632L12.95 10.028L12.781 10.073L12.687 10.099V12.288L17.994 10.866V8.632Z" fill="#63BAC0"/>
<path d="M12.627 8.85699L8.153 7.51399C8.037 7.68999 7.919 7.86599 7.803 8.04299L12.454 9.43799L12.621 9.48799L12.788 9.44199L18.601 7.83399V21.43L12.692 22.996L7.271 21.464L7.10999 21.418L6.948 21.462L1.755 22.863V9.26799L1.866 9.21899C1.758 9.03699 1.64599 8.85699 1.53299 8.67899L1.14799 8.79699V23.656L7.107 22.049L12.686 23.625C12.686 23.625 18.107 22.185 18.61 22.056C19.111 21.926 19.207 21.791 19.207 21.28C19.207 21.027 19.207 7.03799 19.207 7.03799L12.627 8.85699Z" fill="#63BAC0"/>
<path d="M4.395 0C1.967 0 0 1.931 0 4.315C0 7.083 3.114 9.243 3.626 12.335C3.626 12.335 3.691 12.99 3.754 13.2C3.83 13.455 4.111 13.611 4.395 13.611C4.68 13.611 4.96 13.455 5.036 13.2C5.099 12.991 5.164 12.335 5.164 12.335C5.677 9.237 8.79 7.208 8.79 4.315C8.79 1.931 6.823 0 4.395 0ZM4.395 7.372C2.75 7.372 1.417 6.038 1.417 4.394C1.417 2.749 2.75 1.416 4.395 1.416C6.04 1.416 7.373 2.749 7.373 4.394C7.373 6.039 6.04 7.372 4.395 7.372Z" fill="#63BAC0"/>
<path d="M4.395 2.64101C3.377 2.64101 2.552 3.46601 2.552 4.48401C2.552 5.50201 3.377 6.32601 4.395 6.32601C5.413 6.32601 6.238 5.50101 6.238 4.48401C6.238 3.46601 5.413 2.64101 4.395 2.64101Z" fill="#63BAC0"/>
</svg>
