<svg width="150" height="150" viewBox="0 0 150 150" fill="none" xmlns="http://www.w3.org/2000/svg">
<path d="M142.453 60.5583C136.379 38.8862 94.4057 10.8158 92.6235 9.63008C91.7539 9.05737 90.6697 8.92314 89.6868 9.26916C88.7696 9.59727 84.7725 11.0723 80.1744 13.5078L75.6046 9.77028C71.9446 6.92461 66.647 7.57786 63.7939 11.2393L60.6514 15.2752C57.8013 18.9382 58.462 24.2328 62.0608 27.0382L64.1906 28.7772C63.5448 30.8354 63.4195 32.9264 63.8685 34.9727C61.6447 35.9436 58.626 37.3411 55.418 39.0383L49.4507 34.391C47.6759 33.0114 45.4671 32.4074 43.2403 32.6803C41.0091 32.9577 39.0181 34.0867 37.64 35.8616L34.499 39.8944C33.1164 41.6677 32.5079 43.8706 32.7853 46.1048C33.0657 48.3375 34.1918 50.3226 35.9666 51.7066L37.8189 53.1459C37.3417 54.0124 36.9554 54.8849 36.7526 55.7619C36.4274 57.1608 36.4453 58.5255 36.8003 59.8186C35.1731 60.6851 33.1299 61.8261 30.9255 63.1549L24.733 58.3346C21.0701 55.4874 15.7754 56.1392 12.9208 59.8037L9.77985 63.835C8.39579 65.6098 7.78728 67.8172 8.06618 70.0484C8.34359 72.2796 9.4741 74.2721 11.2474 75.6487L13.6009 77.4787C12.2989 79.3505 11.413 81.2402 11.1833 83.103C10.9312 85.1716 11.2817 88.1888 14.3988 90.8331C29.2894 103.472 58.0563 131.306 59.852 137.711C59.9848 138.185 60.2234 138.62 60.547 138.993C60.7901 139.272 63.0512 141.73 67.0751 141.979C67.2988 141.994 67.5225 142 67.7477 142C70.3935 142 73.1035 141.026 75.8343 139.12C77.1468 139.936 78.6561 140.422 80.2594 140.422C81.897 140.422 83.4899 139.951 84.8605 139.048L89.1395 136.246C93.0217 133.708 94.1104 128.482 91.572 124.599L90.6309 123.159C94.4669 119.217 94.1224 114.244 92.6473 111.348C84.2237 90.4573 47.7191 61.9901 43.6207 58.8447C43.1255 58.2257 43.0673 57.7664 43.1866 57.2533C43.3761 56.4464 47.3194 48.9609 69.2839 39.8646C70.1534 39.5051 70.8365 38.8086 71.1571 37.9257C71.4763 37.0413 71.4077 36.0644 70.9633 35.2381C70.0729 33.5797 69.9625 32.0241 70.6113 30.3358C73.0304 24.0598 84.5294 18.3953 90.3594 16.0776C97.6586 21.1112 131.37 45.1189 136.117 62.4271C136.169 62.6091 136.165 62.63 136.247 62.803C136.545 63.7172 135.898 65.9096 131.822 68.2974C130.424 67.3026 128.766 66.6986 126.989 66.6986C125.352 66.6986 123.76 67.1699 122.382 68.0692L118.105 70.8702C116.227 72.1006 114.94 73.9888 114.479 76.1901C114.149 77.7636 114.293 79.3624 114.84 80.8315C104.573 60.5225 78.674 41.4828 77.5032 40.6312C76.0356 39.5588 73.967 39.878 72.8902 41.3545C71.8149 42.8296 72.1385 44.8937 73.6121 45.9691C73.8954 46.1779 102.069 66.8761 110.264 86.6765C110.264 87.625 110.067 90.0322 108.401 91.8637C106.91 90.6333 105.05 89.9054 103.059 89.9054C101.423 89.9054 99.8286 90.3797 98.4565 91.279L94.1731 94.083C90.2923 96.6259 89.2021 101.852 91.745 105.733L97.1142 113.931C98.6757 116.319 101.308 117.743 104.161 117.743C105.797 117.743 107.39 117.266 108.767 116.367L113.041 113.564C114.925 112.334 116.214 110.443 116.671 108.244C117.132 106.046 116.707 103.8 115.475 101.919L112.398 97.218C117.395 92.7601 116.864 86.0023 116.836 85.6682C116.804 85.355 116.731 85.0478 116.615 84.7555C116.254 83.8442 121.044 90.7227 121.044 90.7227C122.604 93.1076 125.24 94.5319 128.096 94.5319C129.731 94.5319 131.322 94.0621 132.696 93.1583L136.97 90.3588C138.849 89.1299 140.139 87.2372 140.6 85.0374C141.061 82.8345 140.636 80.5899 139.406 78.7107L135.981 73.4772C144.335 68.1572 143.013 62.1706 142.453 60.5583ZM39.7086 43.9526L42.8511 39.9168C43.1494 39.538 43.5744 39.2949 44.0562 39.2352C44.5394 39.1696 45.0122 39.3068 45.391 39.6021L49.2434 42.6014C46.608 44.2718 44.0949 46.0973 42.0039 48.0287L40.0233 46.4881C39.6445 46.1928 39.4014 45.7647 39.3417 45.2875C39.2821 44.8087 39.4088 44.3344 39.7086 43.9526ZM14.9924 67.8932L18.1289 63.8604C18.7404 63.0774 19.8814 62.9267 20.6704 63.5442L25.0448 66.9536C22.5719 68.6763 20.1379 70.5585 18.0066 72.5361L15.3027 70.4302C14.9238 70.1379 14.6807 69.7098 14.6211 69.2326C14.5614 68.7553 14.6941 68.2765 14.9924 67.8932ZM85.5182 130.719L81.2408 133.526C80.425 134.054 79.2572 133.802 78.7366 132.998L73.366 124.796C73.1035 124.392 73.0125 123.909 73.1109 123.438C73.2109 122.966 73.4868 122.559 73.8924 122.292L78.1684 119.49C78.4637 119.296 78.8008 119.199 79.1498 119.199C79.7687 119.199 80.337 119.502 80.671 120.016L86.0387 128.216C86.5861 129.05 86.3534 130.174 85.5182 130.719ZM86.5697 113.953C86.6055 114.041 87.387 116.003 86.7934 117.302L86.2028 116.399C84.6413 114.016 82.0059 112.59 79.1513 112.59C77.5137 112.59 75.9253 113.063 74.5502 113.965L70.2742 116.763C68.395 117.995 67.1049 119.886 66.644 122.088C66.1832 124.289 66.6082 126.534 67.8387 128.414L71.5151 134.036C68.4144 135.985 66.5471 135.342 65.8372 134.89C60.9124 123.357 24.2543 90.5333 18.6688 85.792C17.6979 84.9673 17.68 84.3901 17.7397 83.9083C17.8978 82.6242 20.8702 78.9046 20.8821 78.8867C25.3878 74.2289 33.8815 68.7851 40.9137 65.1162C48.3918 71.0074 79.5659 96.3142 86.5697 113.953ZM67.5359 22.98L66.1802 21.8718C65.3942 21.2589 65.2525 20.1209 65.864 19.3364L69.005 15.3005C69.6225 14.5146 70.7619 14.3714 71.4867 14.9351L74.1743 17.135C71.7045 18.8382 69.3883 20.7995 67.5359 22.98ZM110.2 106.893C110.102 107.364 109.823 107.771 109.417 108.038L105.143 110.838C104.328 111.37 103.163 111.118 102.638 110.314L97.2678 102.114C96.7249 101.276 96.9606 100.155 97.7913 99.6102L102.072 96.8078C102.367 96.6169 102.709 96.514 103.056 96.514C103.671 96.514 104.24 96.8198 104.576 97.3343L109.945 105.534C110.206 105.938 110.299 106.423 110.2 106.893ZM134.127 83.6846C134.029 84.1559 133.751 84.5631 133.344 84.8286L129.074 87.631C128.251 88.159 127.089 87.9099 126.567 87.1045L121.196 78.9016C120.933 78.4974 120.843 78.0142 120.941 77.5429C121.038 77.0716 121.314 76.6644 121.72 76.4004L125.994 73.5995C126.29 73.4056 126.631 73.3042 126.983 73.3042C127.598 73.3042 128.167 73.6085 128.502 74.1215L133.872 82.3244C134.136 82.7271 134.227 83.2118 134.127 83.6846Z" fill="black"/>
<path d="M123.195 61.0953C123.714 62.3824 124.95 63.1654 126.258 63.1654C126.667 63.1654 127.086 63.0878 127.493 62.9238C129.183 62.2422 130.002 60.3182 129.32 58.6284C124.032 45.4784 102.737 29.1724 101.83 28.4849C100.377 27.3797 98.3058 27.6586 97.2037 29.1128C96.097 30.5684 96.3774 32.6371 97.8301 33.7422C103.584 38.1181 119.359 51.5694 123.195 61.0953Z" fill="black"/>
<path d="M99.8316 86.068C100.24 86.068 100.659 85.9904 101.062 85.8263C102.756 85.1477 103.575 83.2223 102.894 81.5265C97.6064 68.3824 76.3086 52.075 75.4048 51.3845C73.9536 50.2823 71.8835 50.5582 70.7753 52.0154C69.6731 53.468 69.9506 55.5396 71.4047 56.6433C77.1587 61.0237 92.9352 74.4705 96.7652 83.9948C97.2827 85.282 98.5236 86.068 99.8316 86.068Z" fill="black"/>
<path d="M46.9674 82.1097C52.7199 86.4855 68.4979 99.9354 72.3309 109.46C72.8514 110.747 74.0878 111.531 75.3958 111.531C75.806 111.531 76.2236 111.455 76.6292 111.293C78.322 110.611 79.1408 108.687 78.4592 106.993C73.1721 93.8473 51.8713 77.5399 50.9675 76.8523C49.5178 75.7472 47.4432 76.0246 46.338 77.4787C45.2344 78.9344 45.5148 81.0045 46.9674 82.1097Z" fill="black"/>
</svg>
