<svg width="150" height="150" viewBox="0 0 150 150" fill="none" xmlns="http://www.w3.org/2000/svg">
<g clip-path="url(#clip0_114_10)">
<path d="M122.904 32.2771C120.023 30.496 117.027 29.064 113.989 27.7969C113.923 27.7513 113.878 27.6865 113.805 27.6484C91.2246 15.8923 59.7828 22.2595 43.8406 27.5002C43.8036 27.5068 43.7695 27.4956 43.7324 27.5042C42.6609 27.7645 41.7466 28.1129 40.9202 28.5062C39.4296 29.0474 38.0702 29.5704 37.0113 30.0313C33.6089 31.5159 29.178 33.5848 25.1146 36.4427C11.5563 45.9728 2.84298 60.6341 0.576578 77.7252C-1.71331 94.991 2.93627 113.495 12.4127 124.87C14.3189 127.157 16.2945 128.569 18.2857 129.11C18.3081 129.118 18.324 129.135 18.3472 129.143C18.3756 129.152 18.4038 129.154 18.4325 129.162C18.4491 129.166 18.4656 129.176 18.4822 129.18C18.5023 129.185 18.5218 129.183 18.542 129.187C19.6655 129.524 20.7972 129.669 21.8753 129.669C25.6036 129.669 28.7125 128.107 28.7453 128.084L142.974 84.1671C148.183 82.1634 151.194 76.7758 150.137 71.3557C148.303 61.9143 142.323 44.2833 122.904 32.2771ZM32.2794 116.23L24.2581 119.031L22.2753 113.364L26.7601 111.797L33.9718 109.28C33.9761 109.279 33.9787 109.275 33.983 109.273L35.0244 108.91C34.2775 111.531 33.3803 114.02 32.2794 116.23ZM10.7461 98.5006L22.4857 85.8639C23.2945 90.4572 25.7928 94.592 29.4847 97.3742L21.0833 100.309C20.0873 100.656 19.5659 101.743 19.9103 102.736L21.1518 106.291L10.7461 98.5006ZM30.6627 72.901C33.0468 71.012 35.9352 70.1443 38.9671 70.3173C38.6373 73.0806 38.458 76.0996 38.4497 79.6919C38.4431 83.2617 38.2922 88.6635 37.6719 94.5136L34.0724 95.771C28.7645 93.2201 25.5291 87.4676 26.0224 81.4723C26.3294 78.0653 27.9768 75.0211 30.6627 72.901ZM36.134 104.485L25.8216 108.088L24.1417 103.278L37.1466 98.7341C36.8687 100.653 36.5376 102.584 36.134 104.485ZM39.7805 65.3445C39.6935 65.7342 39.6327 66.1487 39.5549 66.546C36.8059 66.329 34.1098 66.7852 31.6429 67.9149C31.0315 63.5089 33.5824 59.1262 37.9376 57.6065C39.3326 57.1182 40.768 57.0835 42.1902 57.2538C41.2656 59.7637 40.4342 62.4271 39.7805 65.3445ZM45.0405 50.7616L42.9828 48.8049C41.6609 47.5481 41.2189 45.6327 41.8564 43.9247L42.8991 41.1343C43.0668 40.6781 43.4112 40.3268 43.8624 40.1452C44.314 39.9659 44.798 39.9775 45.2495 40.1918L50.2531 42.6137C48.4114 44.9876 46.6393 47.6649 45.0405 50.7616ZM54.0664 38.199L53.0365 34.8208C52.9389 34.5065 53.0504 34.26 53.1249 34.1413C53.1993 34.0225 53.3717 33.8131 53.6929 33.7618L60.4474 32.685C58.4258 34.1409 56.2663 35.9508 54.0664 38.199ZM69.3919 27.6726C69.0896 27.5561 68.7723 27.489 68.4521 27.5485L53.0924 29.9968C51.7659 30.2109 50.6024 30.986 49.8902 32.124C49.1779 33.262 48.9967 34.6491 49.3873 35.9336L50.1135 38.3122L46.9112 36.7623C45.5102 36.0828 43.8859 36.0269 42.4429 36.6065C41.0045 37.1861 39.8689 38.3495 39.3244 39.8018L38.2816 42.5922C37.1086 45.7339 37.9234 49.2574 40.3575 51.5705L42.2259 53.3473C40.3641 53.1845 38.4874 53.3737 36.6805 54.0069C30.0808 56.3114 26.4987 63.3107 28.2342 69.9706C24.9658 72.5817 22.9379 76.258 22.3699 80.3859L12.6079 90.8945C11.9751 89.6484 11.3201 87.8474 11.7885 86.4669C12.1421 85.4407 13.171 84.661 15.1677 84.0328C15.3166 83.9584 18.8216 82.1571 20.0317 78.2241C20.8789 75.4548 20.3995 72.4153 18.6029 69.1876C18.2304 68.5174 17.672 67.2093 18.156 65.9923C18.7332 64.533 20.6367 63.658 22.131 63.1787C23.1784 62.8436 25.7197 61.7962 26.6969 59.3016C27.4045 57.4957 27.1203 55.4476 25.8589 53.2229C25.724 52.9576 25.5612 51.8662 25.98 50.9816C26.2592 50.3951 26.7339 50.0461 27.4601 49.8833L29.0381 49.5132C33.1527 48.5009 36.6855 45.331 37.8211 41.6216C38.0259 40.9421 38.1655 40.1111 38.3097 39.1991C38.7554 36.4034 39.2423 33.5418 42.5686 31.9516C50.8545 28.9475 63.4714 25.821 76.727 25.0608C74.2208 25.7433 71.7784 26.6209 69.3919 27.6726ZM4.35578 78.228C5.85933 66.8921 11.0581 50.981 27.3115 39.5613C29.9481 37.7058 32.7759 36.2085 35.3549 34.9819C34.9394 36.2846 34.7115 37.552 34.5444 38.6C34.4326 39.3168 34.335 39.9709 34.1719 40.5038C33.4273 42.9356 30.9419 45.1186 27.9305 45.8563L26.646 46.159C24.719 46.5848 23.2389 47.7648 22.4757 49.4824C21.5726 51.5046 21.824 53.8365 22.5409 55.0956C23.0017 55.9078 23.4811 57.0573 23.146 57.9115C22.834 58.7028 21.8194 59.2751 20.9675 59.5477C17.6535 60.6089 15.5124 62.3054 14.6097 64.5909C13.823 66.5761 14.0605 68.866 15.2706 71.0444C16.5366 73.3112 16.9138 75.338 16.397 77.0649C15.7222 79.3224 13.6788 80.5024 13.7347 80.5116C10.8209 81.3936 8.94978 82.9831 8.18196 85.236C6.99666 88.7115 8.97955 92.3994 9.88565 93.8262L6.51103 97.4588C6.14317 97.8568 5.96188 98.3897 6.00819 98.9273C6.05484 99.4672 6.33404 99.9605 6.76675 100.284L11.5314 103.851C8.85285 107.568 10.9138 111.428 11.6538 112.781C13.8607 116.801 13.6695 118.312 13.0178 119.219C5.80243 108.53 2.403 92.9565 4.35578 78.228ZM19.2735 125.423C18.0574 125.092 16.7361 124.104 15.3447 122.431C15.3302 122.414 15.3186 122.393 15.304 122.375C17.2297 120.471 18.7303 117.746 14.9957 110.949C13.8203 108.797 13.7247 107.406 14.5948 106.143L19.9384 110.143L19.2172 110.395C18.7379 110.56 18.3468 110.912 18.1282 111.366C17.9095 111.822 17.8768 112.345 18.0445 112.822L21.2841 122.09C21.5587 122.876 22.2987 123.367 23.0854 123.367C23.2948 123.367 23.5042 123.335 23.7136 123.26L28.6811 121.524C28.4204 121.803 28.177 122.111 27.9027 122.364C25.4302 124.649 22.5713 125.634 19.2735 125.423ZM141.606 80.6066L32.985 122.378C33.7462 121.362 34.3942 120.188 35.038 119.011C35.1856 118.841 35.3027 118.656 35.3821 118.447C41.1825 107.31 42.2408 90.1869 42.2656 79.7011C42.2749 74.1322 42.6566 69.9617 43.5038 66.1775C47.9301 46.3986 59.8222 37.0594 66.5155 33.252C74.023 28.9839 82.4941 26.866 91.1376 26.866C101.252 26.866 111.598 29.7679 120.903 35.5211C139.083 46.7638 144.678 63.2545 146.395 72.0842C147.098 75.6867 145.083 79.2708 141.606 80.6066Z" fill="black"/>
<path d="M23.9786 64.1182C22.8803 64.0484 22.0004 64.8 21.9074 65.8451L21.5071 70.2806C21.4142 71.3303 22.1866 72.2565 23.234 72.3518C23.2945 72.3564 23.3504 72.3588 23.4063 72.3588C24.3839 72.3588 25.2169 71.6141 25.3052 70.625L25.7055 66.1894C25.7988 65.1398 25.026 64.2135 23.9786 64.1182Z" fill="black"/>
<path d="M13.902 61.1836C14.4978 61.1836 15.0843 60.9067 15.4565 60.383L19.2125 55.1095C19.8222 54.253 19.6221 53.0615 18.7656 52.4518C17.9091 51.8398 16.7129 52.033 16.1032 52.8987L12.3472 58.1722C11.7375 59.0287 11.9376 60.2202 12.7941 60.8299C13.1292 61.0694 13.5156 61.1836 13.902 61.1836Z" fill="black"/>
<path d="M8.78673 78.2793C8.94022 78.3167 9.09405 78.3352 9.24755 78.3352C10.104 78.3352 10.8811 77.758 11.0955 76.8899L12.5524 71.0557C12.8084 70.0365 12.1895 69.0007 11.1653 68.7446C10.1507 68.4978 9.11258 69.1099 8.85653 70.134L7.39963 75.9683C7.14358 76.9875 7.76286 78.0233 8.78673 78.2793Z" fill="black"/>
<path d="M75.0714 51.4851C76.4919 50.9892 77.0976 49.0246 76.4247 47.0979C75.7515 45.1712 74.0545 44.0114 72.6336 44.5073C71.2131 45.0035 70.6074 46.9679 71.2806 48.8945C71.9535 50.8215 73.6509 51.9814 75.0714 51.4851Z" fill="black"/>
<path d="M86.2984 38.0141C87.6865 37.5291 88.4193 36.0107 87.934 34.6226C87.449 33.2342 85.9306 32.5018 84.5425 32.9867C83.1541 33.4717 82.422 34.9902 82.9066 36.3786C83.3916 37.7667 84.91 38.4991 86.2984 38.0141Z" fill="black"/>
<path d="M88.9605 64.1824C88.4669 62.7695 87.1324 61.9504 85.9798 62.353C84.8273 62.7556 84.293 64.2274 84.7869 65.6406C85.2805 67.0535 86.615 67.8726 87.7672 67.47C88.9198 67.0674 89.454 65.5953 88.9605 64.1824Z" fill="black"/>
<path d="M129.24 60.1021C127.442 60.7304 126.493 62.6974 127.121 64.4957C127.75 66.294 129.717 67.2427 131.515 66.6145C133.314 65.9863 134.262 64.019 133.634 62.2207C133.006 60.4224 131.039 59.4739 129.24 60.1021Z" fill="black"/>
<path d="M137.205 72.4434C135.407 73.0717 134.267 74.4935 134.661 75.6192C135.054 76.745 136.83 77.1483 138.629 76.5197C140.427 75.8915 141.566 74.4697 141.173 73.3442C140.78 72.2185 139.003 71.8156 137.205 72.4434Z" fill="black"/>
<path d="M59.5945 61.6014C57.3996 62.3679 56.1299 64.4474 56.7578 66.2457C57.386 68.044 59.6746 68.8803 61.8692 68.1138C64.0642 67.347 65.3341 65.2675 64.7059 63.4692C64.078 61.6709 61.7895 60.8346 59.5945 61.6014Z" fill="black"/>
<path d="M62.9424 77.7503C62.5388 76.5952 60.2575 76.3411 57.8476 77.183C55.4373 78.0249 53.8103 79.6439 54.2139 80.7991C54.6175 81.9547 56.8988 82.2084 59.3091 81.3668C61.7191 80.5249 63.346 78.9055 62.9424 77.7503Z" fill="black"/>
<path d="M98.1131 44.4994C96.8411 44.9436 96.1709 46.3344 96.6145 47.606C97.0588 48.878 98.4498 49.5486 99.7215 49.1046C100.993 48.6603 101.664 47.2693 101.22 45.9976C100.776 44.7256 99.3847 44.0551 98.1131 44.4994Z" fill="black"/>
<path d="M114.117 46.8187C112.845 47.263 112.174 48.6537 112.618 49.9257C113.063 51.1973 114.453 51.8679 115.725 51.4239C116.997 50.9797 117.668 49.5886 117.224 48.317C116.779 47.0453 115.388 46.3744 114.117 46.8187Z" fill="black"/>
<path d="M112.74 62.488C111.481 62.9276 110.951 64.6869 111.556 66.4174C112.16 68.1478 113.671 69.1945 114.929 68.7549C116.187 68.3149 116.717 66.556 116.113 64.8255C115.508 63.095 113.998 62.0483 112.74 62.488Z" fill="black"/>
<path d="M89.6314 78.4014C88.4021 78.1682 87.2495 78.8013 87.0573 79.8159C86.8648 80.8302 87.7051 81.8422 88.9344 82.0751C90.1633 82.3083 91.3159 81.6751 91.5084 80.6605C91.701 79.6462 90.8604 78.6346 89.6314 78.4014Z" fill="black"/>
<path d="M74.5718 94.3224C73.3783 94.7393 72.6865 95.866 73.0263 96.8389C73.3664 97.8118 74.6092 98.2627 75.8028 97.8456C76.996 97.4288 77.6881 96.302 77.3483 95.3291C77.0079 94.3562 75.7651 93.9056 74.5718 94.3224Z" fill="black"/>
<path d="M110.269 87.0508C109.149 87.4425 108.521 88.563 108.867 89.5538C109.213 90.5449 110.402 91.0308 111.523 90.6398C112.643 90.2485 113.27 89.128 112.924 88.1369C112.578 87.1458 111.389 86.6595 110.269 87.0508Z" fill="black"/>
<path d="M60.0746 94.9205C58.489 95.4743 57.6524 97.2088 58.2065 98.7943C58.7606 100.38 60.4947 101.217 62.0803 100.662C63.6659 100.109 64.5025 98.3742 63.9484 96.7886C63.3946 95.203 61.6599 94.3667 60.0746 94.9205Z" fill="black"/>
</g>
<defs>
<clipPath id="clip0_114_10">
<rect width="150" height="150" fill="white"/>
</clipPath>
</defs>
</svg>
