<svg width="150" height="150" viewBox="0 0 150 150" fill="none" xmlns="http://www.w3.org/2000/svg">
<g clip-path="url(#clip0_114_7)">
<path d="M13.8946 57.7511C13.9032 57.7253 13.9118 57.6209 13.9461 57.6209H14.0247L14.3524 57.794C15.5615 57.8112 16.7534 57.9057 17.9453 57.9168C19.1115 57.9254 20.2776 57.9511 21.4253 57.9695C21.3131 56.3049 21.3913 54.6328 21.6585 52.9859C21.8013 52.0812 21.9919 51.1847 22.2293 50.3001C22.3324 49.868 22.4748 49.4409 22.5976 49.021L22.6933 48.7105C22.7105 48.6761 22.7277 48.573 22.7707 48.4859L22.8566 48.314L23.177 47.6917C24.011 46.1624 25.2019 44.857 26.6483 43.8864C27.7513 43.1671 28.766 42.3209 29.6717 41.3651C31.2944 39.568 32.5207 37.3659 34.2576 35.8548C35.7465 34.5038 37.5684 33.5738 39.5359 33.1605C40.9124 32.8919 42.3155 32.7844 43.7168 32.8401C44.8571 32.8843 45.7458 32.9702 46.4369 33.0647C47.8191 33.2378 48.4144 33.4109 48.4144 33.5913C48.4144 33.7718 47.8105 33.9375 46.4283 34.075C44.2585 34.1692 42.1019 34.4613 39.9852 34.9477C38.3834 35.3942 36.9234 36.2451 35.7454 37.4187C35.0102 38.1625 34.348 38.9752 33.7679 39.8455C33.0556 40.9188 32.2857 41.9526 31.4614 42.9424C30.9874 43.5142 30.4601 44.0395 29.8865 44.5112C29.3083 44.9948 28.713 45.4355 28.1422 45.8614C27.0117 46.6262 26.0847 47.6551 25.4417 48.859L25.2085 49.3341L25.1569 49.4372C25.1483 49.4458 25.1483 49.4372 25.1312 49.4973L25.044 49.7833C24.9323 50.1626 24.8108 50.5431 24.7248 50.9396C24.5083 51.7413 24.3382 52.5549 24.2154 53.3762C23.9729 54.9038 23.9119 56.4547 24.0338 57.9966C24.4315 58.0051 24.828 58.0137 25.2257 58.0137C30.0129 58.0567 34.691 58.1168 39.2425 58.1512C41.5146 58.1684 43.7512 58.1954 45.9619 58.2126L49.2442 58.2384C50.3318 58.2556 51.4292 58.3157 52.4996 58.3415C53.1477 58.3673 53.7786 58.4016 54.4169 58.4372C53.9978 56.2478 54.1768 53.986 54.9349 51.8897C55.5561 50.1266 56.5966 48.5409 57.9669 47.2694C58.6705 46.5882 59.5008 46.0515 60.4108 45.6896C60.989 45.4993 61.2836 45.5165 61.3695 45.6724C61.4554 45.8283 61.3437 46.1033 60.9804 46.5317C60.6171 46.9601 60.0303 47.5677 59.3134 48.5178C58.3699 49.7544 57.6564 51.1506 57.2071 52.6397C56.6252 54.5785 56.5861 56.6398 57.0941 58.5993C63.9681 59.0657 70.3598 59.9213 76.2677 60.4737C84.1766 61.3451 92.1312 61.7346 100.087 61.6398C106.003 61.4667 111.894 60.9315 117.8 60.6725C120.875 60.5338 124.935 61.83 127.819 60.3963C131.239 58.6864 130.263 52.2862 128.907 49.2985C127.702 46.9755 126.079 44.8948 124.12 43.1609C123.058 42.2065 121.943 41.3138 120.779 40.4874C120.043 39.978 119.743 39.6503 119.812 39.4858C119.881 39.3213 120.296 39.3213 121.229 39.5803C122.686 40.0793 124.053 40.8082 125.279 41.7395C127.672 43.4493 129.649 45.6748 131.066 48.2514C131.983 50.2021 132.393 52.3529 132.258 54.5043C132.198 56.5518 131.826 58.6496 131.671 60.8088C132.3 60.8779 132.925 60.979 133.544 61.112C133.736 61.0551 133.924 60.9858 134.106 60.9045C136.144 60.0318 136.852 56.828 136.326 53.8046C135.573 50.4505 134.252 47.2494 132.422 44.3393C131.507 42.7595 130.496 41.0054 129.546 39.4686C128.553 37.9257 127.299 36.5674 125.84 35.4547C124.297 34.3684 122.544 33.6159 120.694 33.2452C118.75 32.8217 116.651 32.6056 114.484 32.3466C113.405 32.2239 112.307 32.079 111.194 31.9158C110.632 31.8114 110.071 31.7341 109.501 31.6212C108.93 31.4751 108.335 31.3757 107.773 31.1903C105.528 30.4817 103.356 29.5589 101.288 28.4346C99.2233 27.3642 97.2028 26.2496 95.0952 25.3597C93.0098 24.4441 90.7908 23.8697 88.5231 23.6584C83.6282 23.541 78.7347 23.9492 73.9269 24.876L72.9854 25.0319L72.7522 25.0663L72.6294 25.1007L72.2403 25.2234C70.9001 25.749 69.5889 26.3456 68.3123 27.0107C66.5791 27.7034 64.9255 28.5808 63.3802 29.6277C61.8949 30.6637 60.8503 31.9514 60.8761 33.1875C61.0387 34.5959 61.6785 35.9063 62.6891 36.9007C62.9579 37.1597 63.2169 37.4101 63.4759 37.6691C63.6134 37.7918 63.7349 37.9146 63.8724 38.0373L64.3045 38.3651C64.5893 38.5811 64.8753 38.7886 65.1515 39.0046L66.0574 39.5484C68.303 40.7935 70.6493 41.8479 73.0713 42.7006C75.2379 43.5304 77.1552 44.2817 78.7792 45.0587C81.1673 46.0836 83.3035 47.6162 85.0395 49.5501C86.0215 50.8193 86.267 51.4846 86.1369 51.5706C85.9724 51.6933 85.4544 51.2342 84.3226 50.267C82.4236 48.7692 80.2996 47.5814 78.0292 46.7477C76.4408 46.1082 74.5406 45.4785 72.3287 44.7358C69.7432 43.9296 67.2369 42.8889 64.8409 41.6266C64.5046 41.4277 64.1682 41.2289 63.8135 41.03C63.4857 40.7845 63.1482 40.5464 62.8118 40.3045C62.1143 39.7795 61.4577 39.2022 60.8478 38.5774C60.563 38.2239 60.2783 37.8606 59.9886 37.4985C59.8511 37.3082 59.6952 37.1302 59.5663 36.9363L59.1981 36.2894C58.6377 35.3364 58.3411 34.2513 58.3388 33.1457C58.3287 32.5897 58.4198 32.0366 58.6076 31.5132C58.4754 31.4175 58.3367 31.331 58.1927 31.2542C57.2376 30.726 56.2186 30.3226 55.1608 30.0537C53.4694 29.5969 51.7415 29.2877 49.9967 29.1293C49.0147 29.0176 47.9836 28.9649 46.939 28.9219C46.4124 28.9047 45.8858 28.9047 45.3506 28.9047L44.5895 28.9305L43.8039 29.0078C38.5114 29.5709 33.3504 31.016 28.535 33.2832C23.8583 35.3639 19.8085 38.6337 16.789 42.7669C15.4152 44.7859 14.431 47.0441 13.8872 49.4249C13.4017 51.7753 13.3286 54.1923 13.6712 56.5677C13.7136 56.9539 13.7772 57.3374 13.8614 57.7167L13.8946 57.7511ZM59.7148 29.3172V29.3086H59.7026V29.3C59.6921 29.285 59.6851 29.2678 59.6822 29.2497C59.6792 29.2317 59.6803 29.2132 59.6854 29.1956C59.7027 29.1108 59.7486 29.0345 59.8155 28.9796C59.8155 28.9796 59.9616 28.8249 60.0303 28.7636L60.2905 28.5401C60.4624 28.3843 60.6269 28.2627 60.8 28.1253C61.4557 27.6398 62.1389 27.1927 62.8462 26.786C64.2112 25.9833 65.5835 25.3008 66.9657 24.6526C68.3479 24.0045 69.7129 23.4178 71.1724 22.8912L71.7444 22.6948C71.8671 22.6604 71.9346 22.6346 72.0979 22.5917C72.2612 22.5487 72.3581 22.5401 72.4441 22.5229L73.5316 22.3498C74.2485 22.2271 74.9653 22.1166 75.6822 21.9951C77.1159 21.7705 78.5497 21.59 79.9662 21.3912C81.3999 21.2525 82.8251 21.1322 84.233 21.0229C85.6667 21.0229 87.0661 20.9714 88.4998 21.0229C89.9353 21.1283 91.3576 21.3683 92.7482 21.7398C98.2499 23.2692 102.499 26.4473 106.864 28.0185C107.922 28.4134 109.007 28.7281 110.111 28.96C111.252 29.1502 112.401 29.3282 113.548 29.4608C115.846 29.7468 118.151 29.9186 120.475 30.3507C122.856 30.7128 125.132 31.5786 127.151 32.8904C129.034 34.2108 130.649 35.877 131.909 37.8004C133.084 39.6748 134.025 41.289 135.044 43.0173C136.04 44.7023 136.937 46.4438 137.731 48.233C138.527 49.9967 139.085 51.8583 139.39 53.769C139.708 55.6974 139.569 57.6735 138.983 59.5383C138.665 60.5199 138.147 61.4254 137.464 62.1983C137.09 62.6077 136.666 62.9678 136.202 63.2699C136.426 63.3129 136.668 63.3472 136.893 63.3927C138.352 63.6946 139.785 64.1133 141.177 64.6447C142.506 65.1348 143.752 65.8252 144.873 66.6922C145.433 67.1405 145.928 67.6634 146.346 68.2462C146.763 68.8538 147.055 69.5381 147.205 70.2593C147.272 70.5947 147.304 70.9362 147.3 71.2781C147.291 71.5629 147.291 71.8563 147.283 72.1374C147.257 72.7076 147.179 73.2743 147.049 73.8301C146.786 74.9707 146.151 75.9915 145.245 76.7319C145.098 76.8277 144.951 76.905 144.804 76.9909C144.943 77.0437 145.072 77.0953 145.21 77.1468C146.09 77.5113 146.902 78.0222 147.611 78.6579C147.792 78.8224 147.965 78.9869 148.138 79.1587L148.553 79.7209C148.833 80.0774 149.065 80.4696 149.243 80.887C149.339 81.0761 149.433 81.2749 149.52 81.4738C149.589 81.6726 149.649 81.8715 149.709 82.0691C149.857 82.484 149.9 82.8474 149.995 83.2181C150.123 83.9296 150.212 84.6475 150.263 85.3687C150.373 86.7394 150.28 88.119 149.985 89.4624C150.138 90.5776 149.903 91.7114 149.321 92.6748C148.651 93.7425 147.668 94.5779 146.505 95.0672C145.381 95.5525 144.17 95.8031 142.946 95.8037C142.464 95.8053 141.982 95.7766 141.503 95.7177C141.073 95.7779 140.675 95.8307 140.329 95.8822H140.312C140.371 96.6148 140.259 97.3513 139.984 98.0328C139.857 98.4031 139.686 98.7567 139.474 99.086C139.243 99.4291 138.974 99.7449 138.672 100.027C138.046 100.582 137.323 101.016 136.538 101.305C136.293 101.401 136.029 101.461 135.778 101.539C135.545 111.039 131.632 120.893 122.348 124.909C109.652 130.393 94.1414 128.363 80.6769 128.303C65.6069 128.243 49.2528 129.097 34.5842 125.056C29.5318 123.666 23.598 122.033 20.2997 117.629C17.429 113.632 15.8874 108.834 15.893 103.913C15.2117 103.067 14.555 102.185 13.929 101.227C13.063 99.8911 12.3064 98.4876 11.6667 97.0299C10.5255 97.1546 9.37625 97.1891 8.22966 97.1331C7.74776 97.1105 7.26839 97.0502 6.79593 96.9526C6.24282 96.8504 5.7111 96.6549 5.2235 96.3745C4.89563 96.1758 4.60487 95.9216 4.36425 95.6232L4.19117 95.39L4.10524 95.2672L3.98249 95.0856C3.64273 94.5753 3.42669 93.9927 3.35156 93.3843C3.2874 92.674 3.4775 91.9641 3.88797 91.381C4.21159 90.9482 4.61285 90.5794 5.07129 90.2934C5.7586 89.8874 6.48843 89.5581 7.24765 89.3114C7.89455 89.104 8.51689 88.9051 9.12082 88.7062L9.50994 88.5675L9.67443 88.5074L9.73458 88.4816C9.76035 88.473 9.76894 88.4558 9.78613 88.4386C9.43143 88.2528 9.06191 88.0968 8.68138 87.9722C8.11848 87.7773 7.57483 87.5308 7.05739 87.2357C6.71818 87.0264 6.41721 86.7607 6.16745 86.4501C5.90894 86.1223 5.74205 85.7317 5.68381 85.3183C5.62993 84.9313 5.65625 84.5373 5.76115 84.1608C5.84227 83.8583 5.96628 83.5689 6.1294 83.3015C6.14035 83.2736 6.15479 83.2473 6.17236 83.223C6.11346 83.2066 6.05565 83.1865 5.99928 83.1628C5.33528 82.9153 4.74015 82.5125 4.26359 81.9881C3.40748 80.9559 2.95903 79.6459 3.00295 78.3056C3.01518 77.1457 3.21967 75.9959 3.6081 74.903C3.9741 73.8147 4.4791 72.7783 5.11057 71.8195C5.44019 71.3161 5.81269 70.8422 6.22391 70.4029L6.56393 70.0703L6.62408 70.0089H6.63267V69.9966L6.5983 69.9365L6.40804 69.4271C6.31093 69.0753 6.23591 68.7178 6.18341 68.3567C6.14481 68.0008 6.12759 67.643 6.13185 67.2851C6.21973 65.9368 6.5965 64.6231 7.23661 63.4332C8.35163 61.4395 9.69945 59.5852 11.2518 57.9094L11.2002 57.616L11.1229 57.0551C11.014 56.3253 10.9448 55.5902 10.9154 54.8529C10.731 51.8104 11.1959 48.7634 12.2792 45.9142C13.4285 42.9954 15.1525 40.3373 17.3488 38.0975C19.5737 35.8311 22.1133 33.8968 24.8893 32.354C30.6605 29.1941 37.0032 27.2153 43.5474 26.5332C44.24 26.4527 44.9369 26.4154 45.6341 26.4215C46.308 26.4215 46.9721 26.4387 47.6288 26.4644C48.941 26.5246 50.2066 26.6289 51.412 26.7922C53.5328 27.0338 55.6186 27.5195 57.6281 28.2394C58.0418 28.4039 58.4309 28.577 58.7758 28.7304C59.009 28.8605 59.2251 28.9759 59.4153 29.0766C59.4447 29.1022 59.4764 29.1253 59.5098 29.1453C59.5184 29.1539 59.5356 29.1625 59.5442 29.1711C59.5491 29.1761 59.5556 29.1792 59.5626 29.1797L59.6314 29.2484C59.6486 29.2582 59.6486 29.2668 59.6571 29.2668L59.6657 29.2754C59.6743 29.2754 59.6829 29.284 59.6915 29.2926L59.7001 29.3012L59.7148 29.3172ZM147.445 90.1436C147.458 89.266 147.172 88.41 146.633 87.7169C145.757 86.6101 144.685 85.6732 143.471 84.9525C142.354 84.3017 141.177 83.7583 139.957 83.3298C137.978 82.6572 135.939 82.177 133.868 81.896C132.465 81.6914 131.053 81.5615 129.636 81.5069C127.451 81.421 126.475 81.4554 126.444 81.2307C126.41 81.0491 127.325 80.6268 129.597 80.3494C131.07 80.1766 132.555 80.1356 134.035 80.2266C136.261 80.3359 138.466 80.7008 140.609 81.3142C141.997 81.7264 143.342 82.2732 144.624 82.9468C145.775 83.5813 146.833 84.372 147.767 85.2962C147.671 84.1678 147.376 83.0652 146.896 82.0397C146.321 80.9305 145.34 80.0862 144.157 79.6829C142.807 79.1722 141.014 78.6714 139.304 78.1104C137.559 77.5495 135.737 76.9701 133.828 76.4091C129.981 75.2176 125.994 74.5382 121.97 74.3886C120.728 77.2927 119.021 79.9752 116.917 82.3306C117.504 82.4767 118.091 82.624 118.671 82.7614C120.144 83.2279 121.572 83.7729 122.967 84.2565C124.34 84.8003 125.627 85.4386 126.906 86.0008C128.185 86.563 129.361 87.2357 130.55 87.831C131.74 88.4264 132.9 89.0585 133.97 89.6796C135.041 90.3008 136.086 90.8716 137.105 91.3638C138.895 92.3517 140.885 92.9243 142.926 93.0393C143.78 93.0618 144.63 92.9089 145.423 92.5901C145.527 92.548 145.627 92.4992 145.725 92.444C146.151 92.1386 146.524 91.7654 146.83 91.3392C147.095 90.9729 147.301 90.5674 147.441 90.1375L147.445 90.1436ZM144.646 73.2851C144.707 72.8764 144.736 72.4635 144.733 72.0502C144.724 71.8256 144.724 71.601 144.716 71.3678C144.708 71.1819 144.685 70.9971 144.646 70.8154C144.388 70.0147 143.869 69.3234 143.173 68.8514C141.09 67.518 138.752 66.6354 136.307 66.2601C134.837 65.9774 133.352 65.7814 131.859 65.6734C130.509 65.5776 127.998 65.0252 126.807 65.7593C125.788 66.3988 125.304 67.9185 124.752 68.8857C124.268 69.7229 123.827 70.5871 123.395 71.4635C127.218 71.727 130.996 72.4457 134.649 73.6043C136.613 74.2008 138.454 74.8134 140.194 75.4013C140.573 75.5302 140.945 75.6603 141.316 75.7806C141.623 75.7488 141.929 75.7001 142.231 75.6346C142.812 75.5298 143.36 75.2869 143.827 74.9263C144.262 74.4743 144.547 73.8989 144.642 73.279L144.646 73.2851ZM137.281 98.4489C137.666 98.1247 137.97 97.7159 138.171 97.2545C138.372 96.7931 138.463 96.2915 138.438 95.7889C138.231 94.5197 136.926 94.451 135.873 93.9477C134.758 93.4211 133.663 92.8159 132.559 92.212C132.377 92.1077 132.19 92.0131 132.006 91.9088C130.481 93.3877 128.695 94.571 126.738 95.3986C126.168 95.5974 125.606 95.8037 125.054 96.0025C124.493 96.1412 123.939 96.2787 123.387 96.4088C122.846 96.537 122.298 96.6321 121.746 96.6936C121.21 96.7538 120.667 96.8667 120.15 96.8753C116.437 97.0595 112.716 96.9672 109.018 96.5991C106.181 96.3296 103.327 96.2886 100.484 96.4763C99.8886 96.5549 99.2834 96.5991 98.7482 96.701C98.2288 96.8181 97.7158 96.9624 97.2114 97.1331C96.1913 97.478 95.2155 97.8757 94.301 98.212C93.1435 98.6527 92.0804 99.0246 91.0874 99.3168C92.4781 99.9649 93.7388 100.682 94.9479 101.311C96.1612 101.987 97.4404 102.537 98.7654 102.953C99.9505 103.312 101.194 103.437 102.427 103.321C103.591 103.228 104.721 102.886 105.741 102.318C106.908 101.64 108.124 101.048 109.377 100.548C110.651 100.162 111.962 99.9149 113.289 99.8115C113.903 99.7513 114.507 99.7255 115.103 99.6728C115.69 99.647 116.278 99.6642 116.856 99.6384C119.154 99.5696 121.305 99.6998 123.308 99.7255C124.31 99.7341 125.272 99.9502 126.227 99.9502H127.618C128.119 99.9502 128.585 99.7857 129.026 99.8029C130.632 99.8674 132.241 99.8038 133.836 99.6126C134.502 99.5448 135.159 99.415 135.8 99.2247C136.336 99.0545 136.836 98.7874 137.276 98.4367L137.281 98.4489ZM119.286 123.362C128.588 119.855 132.81 111.383 133.165 101.892C130.901 102.091 128.466 102.021 126.247 102.1C125.297 102.134 124.312 102.134 123.301 102.151C122.661 102.151 121.996 102.16 121.337 102.168C121.129 102.211 120.93 102.246 120.714 102.306C118.594 102.971 116.623 104.042 114.911 105.458C112.439 107.535 109.862 109.484 107.19 111.297C106.404 111.815 105.531 112.273 104.641 112.757C104.193 113.002 103.683 113.17 103.191 113.386C102.697 113.601 102.193 113.788 101.68 113.949C100.622 114.285 99.5464 114.565 98.4585 114.786C97.8976 114.89 97.3354 115.031 96.7658 115.105C96.1963 115.179 95.6083 115.261 95.0129 115.338C89.7668 115.906 84.4695 115.799 79.2506 115.019C76.2306 114.573 73.2443 113.924 70.3119 113.076C67.4256 112.253 64.6481 111.087 62.0385 109.604C60.6993 109.924 59.3527 110.321 58.0393 110.709C55.3337 111.577 52.5798 112.286 49.7917 112.834C48.4399 113.091 47.0651 113.207 45.6894 113.18C44.2778 113.18 42.8834 112.87 41.6043 112.273C41.2176 112.081 40.8554 111.843 40.5253 111.565C38.7188 110.573 37.1181 109.245 35.8092 107.653C35.1439 106.883 34.5142 106.046 33.8918 105.19C33.3578 104.876 32.7666 104.672 32.1526 104.589C31.5387 104.506 30.9144 104.546 30.3161 104.707C29.5358 105.022 28.8107 105.46 28.168 106.003C27.2489 106.787 26.2403 107.459 25.1631 108.006C24.418 108.344 23.6067 108.509 22.789 108.492C21.9713 108.474 21.1681 108.273 20.4384 107.903C19.8277 107.6 19.2515 107.232 18.7199 106.806C19.3508 111.505 21.2682 116.547 25.4712 118.854C30.7313 121.528 36.4146 123.273 42.2696 124.009C54.8527 125.901 67.9882 125.685 80.6904 125.702C92.9704 125.72 107.54 127.801 119.286 123.362ZM129.183 90.4137C128.034 89.8527 126.869 89.2046 125.651 88.6694C124.434 88.1342 123.18 87.5291 121.877 87.0196C120.555 86.5704 119.225 86.061 117.835 85.6203C116.531 85.3097 115.192 84.982 113.837 84.653C113.707 84.723 113.578 84.7917 113.448 84.8691C113.024 85.025 112.609 85.171 112.196 85.3269C111.809 85.4712 111.41 85.5781 111.004 85.6461L109.863 85.8793C109.112 86.0356 108.369 86.1911 107.635 86.3458C106.162 86.5274 104.725 86.714 103.317 86.8809C101.918 86.9681 100.562 87.0454 99.2319 87.1264C93.9376 87.2909 89.2744 87.0663 85.1549 86.9202C82.1143 86.7729 79.3856 86.7385 76.8802 86.6256C76.9846 86.7987 77.0877 86.9718 77.2006 87.1449C77.5885 87.6543 77.9371 88.1637 78.3398 88.6645C78.7424 89.1653 79.1438 89.6661 79.5403 90.1584L80.1454 90.9182C80.3683 91.1766 80.5757 91.4479 80.7665 91.7308C81.4598 92.8245 82.0886 93.9578 82.6495 95.1249C82.9171 95.6343 83.1847 96.1523 83.4535 96.5979C84.109 97.8254 85.1377 98.8172 86.2854 97.694C87.4773 96.5279 88.4016 94.9997 89.6107 93.8077C90.0048 93.4009 90.4354 93.0311 90.8971 92.703L91.2862 92.444C91.3936 92.3751 91.5061 92.3144 91.6226 92.2623C91.8472 92.1494 92.0718 92.0463 92.2879 91.9333C95.3745 90.4075 98.6642 89.3327 102.056 88.7418C104.636 88.2894 107.245 88.0325 109.863 87.9734C113.024 87.8892 116.188 87.99 119.337 88.2754C121.28 88.4571 122.119 88.6559 122.119 88.8634C122.119 89.0708 121.272 89.2598 119.329 89.4329C117.385 89.606 114.338 89.7177 109.985 90.081C107.483 90.288 104.996 90.6513 102.54 91.1686C99.4155 91.8296 96.3941 92.9081 93.5571 94.3749C92.8152 94.698 92.1501 95.1745 91.6054 95.773C91.0272 96.3781 90.4405 97.0864 89.7924 97.8376C90.8628 97.4399 92.0718 96.9047 93.4749 96.2566C94.3648 95.8515 95.3161 95.3974 96.4111 94.9616C97.001 94.7234 97.6038 94.5185 98.2167 94.3478C98.8734 94.2018 99.5117 94.1244 100.181 94.0029C103.167 93.6838 106.175 93.6288 109.171 93.8384C112.735 94.1124 116.312 94.1502 119.881 93.9514C120.365 93.9342 120.831 93.8286 121.315 93.7697C121.8 93.7139 122.282 93.6274 122.757 93.5107C123.232 93.3879 123.707 93.2775 124.191 93.1572C124.656 92.9841 125.122 92.811 125.589 92.6293C126.891 92.0746 128.102 91.3278 129.183 90.4137ZM124.404 64.0985L123.317 64.1243C123.317 64.1243 119.854 64.15 113.022 64.2102C111.311 64.229 109.391 64.2466 107.261 64.263C107.608 64.7756 107.89 65.3299 108.099 65.9127C108.429 66.8756 108.652 67.8717 108.765 68.8833C108.941 70.6278 109.007 72.3817 108.962 74.1345C108.954 75.7487 108.928 77.261 109.024 78.6248C109.006 79.725 109.273 80.8112 109.801 81.777C109.852 81.8469 109.904 81.8813 109.955 81.9415C110 81.9587 110.042 82.0188 110.078 82.0274C110.114 82.036 110.155 82.0802 110.234 82.0532C110.551 81.976 110.836 81.8049 111.054 81.5622C111.744 80.8657 112.339 80.0816 112.824 79.2299C113.844 77.5458 114.612 75.9304 115.286 74.5396C116.192 72.5036 117.201 70.5149 118.309 68.5813C119.045 67.3722 119.673 66.9573 119.811 67.1218C119.948 67.2863 119.751 67.7601 119.362 69.065C118.973 70.3698 118.334 72.4148 117.23 75.3694C116.676 76.854 116.047 78.3096 115.347 79.7307C117.093 77.4561 118.544 74.9689 119.665 72.3289C120.416 70.7405 121.202 69.0735 122.152 67.398C122.808 66.2365 123.562 65.1327 124.404 64.0985ZM115.935 102.354C115.718 102.362 115.521 102.379 115.305 102.388L113.612 102.57C112.505 102.676 111.411 102.892 110.347 103.217C109.221 103.689 108.131 104.24 107.083 104.866C106.421 105.223 105.73 105.524 105.018 105.765C104.266 106.001 103.489 106.155 102.703 106.223C101.104 106.379 99.4901 106.233 97.9454 105.791C96.427 105.324 94.96 104.705 93.5669 103.942C91.5655 102.755 89.443 101.785 87.2355 101.049C85.7201 102.309 83.9669 103.252 82.08 103.822C81.1471 104.141 80.2387 104.391 79.3598 104.633C78.9277 104.763 78.5214 104.866 78.0979 105.001C77.6745 105.136 77.2522 105.286 76.8287 105.432C73.4948 106.59 70.1707 107.617 66.9915 108.473C66.854 108.499 66.7239 108.533 66.595 108.567C68.0884 109.208 69.6166 109.765 71.1724 110.234C73.9668 111.049 76.8112 111.68 79.6876 112.126C84.6584 112.897 89.7046 113.059 94.7147 112.609C95.2683 112.541 95.8194 112.487 96.3558 112.419C96.8923 112.352 97.4176 112.23 97.9369 112.143C98.9338 111.966 99.9198 111.732 100.89 111.443C101.381 111.332 101.797 111.124 102.247 110.977C102.682 110.826 103.108 110.652 103.524 110.455C104.353 110.041 105.157 109.644 105.908 109.177C108.939 107.399 111.349 105.343 113.672 103.744C114.4 103.239 115.155 102.775 115.935 102.354ZM107.16 83.5311C107.308 83.4955 107.462 83.4611 107.61 83.4267C107.106 82.7598 106.747 81.9951 106.555 81.1816C106.363 80.4168 106.24 79.6363 106.187 78.8494C106.048 77.304 106.057 75.7401 106.048 74.1345C106.063 72.5048 105.988 70.8755 105.824 69.254C105.743 68.5452 105.593 67.8462 105.374 67.1672C105.067 67.9019 104.709 68.6147 104.304 69.3006C103.283 71.0179 101.903 72.4947 100.259 73.63C98.7816 74.6312 97.1427 75.3707 95.4143 75.8162C93.9106 76.2051 92.3711 76.4391 90.8198 76.5147C88.2746 76.6267 85.7246 76.4998 83.2031 76.1354C81.3619 75.8899 79.7563 75.583 78.3312 75.297C77.5112 75.2454 76.6642 75.1939 75.7927 75.1251C72.8123 74.9005 69.3581 74.7876 65.5749 74.5543C58.1657 74.2782 48.9766 74.0793 38.085 74.0879C37.9475 74.1579 37.8174 74.2266 37.6799 74.2868C36.36 74.873 35.0041 75.3748 33.6206 75.7892C32.9209 76.0053 32.204 76.2127 31.5044 76.4116C30.8047 76.6104 29.9331 76.7798 29.1463 76.9124C27.5468 77.0968 25.9371 77.1788 24.3271 77.1579C23.5158 77.1493 22.7559 77.1837 21.9617 77.1923C21.5812 77.218 21.1921 77.2524 20.8042 77.2794L20.2248 77.3125L19.6724 77.4071C19.3042 77.4856 18.9212 77.5298 18.5579 77.6231C18.2129 77.736 17.8594 77.8477 17.5133 77.9693C17.1844 78.056 16.874 78.202 16.5975 78.4001C16.4601 78.4873 16.3042 78.5904 16.1581 78.7033C18.9539 80.2701 21.9367 81.4769 25.0354 82.295C28.7928 83.3408 32.5146 84.0405 36.0829 84.8862C37.8542 85.3011 39.6329 85.759 41.2998 86.277C42.9668 86.795 44.5294 87.2872 46.0589 87.642C47.5037 88.0128 48.9865 88.2155 50.4779 88.2459C51.1583 88.2552 51.8379 88.1972 52.5069 88.0728C53.1324 87.9997 53.7404 87.8186 54.304 87.5377C55.5024 86.8855 56.646 86.1376 57.7238 85.3011C58.3462 84.8852 58.9986 84.5159 59.6756 84.1964C60.0119 84.0417 60.3409 83.8858 60.6772 83.7299C61.0135 83.574 61.3597 83.4967 61.7046 83.3764C64.1731 82.7226 66.6979 82.3034 69.2452 82.1244C71.4387 81.8396 73.5979 81.3474 75.5926 80.984C77.5873 80.6207 79.4617 80.2586 81.1802 79.9308C95.008 77.3531 100.301 76.6485 100.38 77.0548C100.458 77.4611 95.3014 78.896 81.6123 82.0028C79.9024 82.3834 78.0623 82.7983 76.0762 83.2377C74.6339 83.5409 73.14 83.9116 71.5075 84.2308C72.4404 84.275 73.4076 84.3265 74.4351 84.3695C77.4584 84.4824 81.1029 84.3437 85.2224 84.4382C89.3419 84.4824 93.9708 84.6113 99.1103 84.3781C100.388 84.2835 101.709 84.1878 103.057 84.0933C104.387 83.9104 105.752 83.7201 107.16 83.5311ZM103.265 64.301L100.216 64.3268C97.6594 64.3526 94.9049 64.3783 91.9344 64.4127C90.4614 64.4471 88.8852 64.344 87.2784 64.3182C85.6716 64.2924 84.0231 64.1537 82.3218 64.042C75.5165 63.5645 67.9931 62.4745 59.7148 61.6631C59.4816 61.6373 59.2484 61.6287 59.0238 61.603C57.315 63.8796 55.2641 65.8779 52.9439 67.5269C50.951 68.9591 48.8113 70.175 46.5609 71.1542C53.8498 71.2585 60.2758 71.4917 65.7161 71.8023C69.5422 72.1043 73.0811 72.3117 76.0885 72.648C78.6534 72.9873 81.2351 73.1836 83.8218 73.236C86.932 73.2852 90.02 72.7035 92.8992 71.5261C93.8063 71.137 94.4618 70.8694 94.8853 70.6877C95.3088 70.506 95.5592 70.4889 95.6218 70.576C95.6844 70.6632 95.553 70.8608 95.2069 71.1971C95.035 71.3616 94.8018 71.5654 94.5158 71.8023C94.2298 72.0392 93.8431 72.2687 93.411 72.5535C92.7091 72.995 91.9726 73.3792 91.2089 73.7025C93.8355 73.5199 96.3713 72.6666 98.5739 71.2241C100.869 69.5066 102.521 67.0688 103.265 64.301ZM82.8398 100.311C82.6053 100.177 82.3926 100.008 82.2089 99.8102L81.778 99.361C81.6651 99.2149 81.5791 99.0848 81.4748 98.9375C81.2781 98.6718 81.0965 98.3951 80.931 98.1089C80.7408 97.7898 80.5628 97.478 80.3958 97.1588C76.282 99.885 71.8201 102.045 67.1302 103.581C63.7587 104.69 60.2892 105.474 56.7688 105.924C55.4468 106.063 54.3335 106.21 53.4006 106.236C52.4677 106.262 51.7164 106.262 51.1297 106.236C49.955 106.185 49.4455 106.046 49.4271 105.839C49.4087 105.631 49.885 105.381 51.0082 105.079C51.5605 104.923 52.2774 104.76 53.1759 104.578C54.0745 104.396 55.1399 104.111 56.3969 103.841C59.7279 103.095 63.0088 102.141 66.2206 100.985C70.7198 99.348 75.0059 97.1761 78.9867 94.516C78.7706 94.1367 78.5632 93.7648 78.3471 93.4542C77.3111 92.0635 75.9559 90.5868 74.7284 88.8069C73.2432 90.3278 71.7922 91.7357 70.3671 92.9964C69.2624 93.8765 68.2693 94.7664 67.1756 95.4661C66.6404 95.8209 66.131 96.1916 65.613 96.5107C65.095 96.8299 64.5586 97.1073 64.0492 97.3835C61.8157 98.6019 59.4108 99.4755 56.9161 99.9747C55.9403 100.182 54.8858 100.191 53.9358 100.424C52.6321 100.743 51.3715 101.486 50.0838 101.897C48.5892 102.408 47.0169 102.653 45.4377 102.622C41.881 102.416 38.3489 101.902 34.8812 101.084C34.7781 101.067 34.6652 101.059 34.5621 101.041C35.7896 102.751 36.8501 104.341 37.9819 105.679L38.0077 105.706C38.7442 106.379 39.2953 106.941 39.7176 107.38L39.7519 107.416C40.0292 106.946 40.3827 106.525 40.7978 106.171C41.0278 105.959 41.274 105.766 41.5343 105.593C41.7755 105.417 42.0258 105.254 42.2843 105.104C44.1154 104.096 46.1099 103.418 48.1763 103.101C49.8244 102.812 51.4563 102.437 53.0655 101.978C56.079 101.218 58.5315 100.294 60.6048 99.5856C62.6167 98.7263 64.2873 98.1347 65.5271 97.5565C68.0324 96.4162 69.1801 96.0185 69.2845 96.2001C69.3888 96.3818 68.4375 97.1159 66.0623 98.5926C64.8802 99.3438 63.2476 100.104 61.2529 101.132C58.7827 102.241 56.2473 103.198 53.6608 103.998C52.0245 104.546 50.3576 104.997 48.6685 105.349C46.8825 105.679 45.1654 106.31 43.5904 107.215C42.8751 107.58 42.2834 108.148 41.889 108.847C41.8638 108.926 41.8522 109.009 41.8547 109.093C42.3258 109.355 42.8238 109.566 43.3399 109.722C43.5613 109.79 43.7863 109.845 44.0138 109.887C44.2426 109.945 44.4774 109.977 44.7135 109.981C45.2045 110.016 45.6808 110.051 46.1386 110.077C46.6051 110.077 47.0716 110.051 47.5208 110.033C47.7455 110.024 47.9603 110.016 48.1849 110.016L48.833 109.938C49.68 109.852 50.4828 109.757 51.234 109.619C51.5102 109.585 51.7692 109.541 52.0196 109.496C53.6866 109.056 55.4051 108.529 57.2193 107.968C58.6273 107.536 60.0782 107.095 61.658 106.716C61.9784 106.638 62.2975 106.56 62.6167 106.492L62.6253 106.466C62.6338 106.474 62.6424 106.474 62.651 106.483C63.8257 106.207 65.0177 105.921 66.2439 105.636C69.3274 104.777 72.5042 103.795 75.9081 102.597C76.3316 102.458 76.755 102.311 77.1871 102.165C77.6192 102.019 78.093 101.897 78.5374 101.767C79.4101 101.521 80.2817 101.276 81.1151 100.99C81.7166 100.795 82.2874 100.561 82.8398 100.311ZM72.9596 86.3543C72.5447 86.3114 72.1396 86.277 71.7419 86.2316C71.5431 86.2402 71.3442 86.2402 71.138 86.2574C70.7231 86.3175 70.2996 86.3801 69.8417 86.4476C69.4015 86.5589 68.9436 86.6817 68.4682 86.8159C68.0029 86.9975 67.5193 87.1841 67.0173 87.3781C66.7718 87.5008 66.5422 87.6236 66.2918 87.7463C66.0463 87.8936 65.8008 88.0397 65.5553 88.187C64.4654 88.9101 63.4239 89.7035 62.4374 90.5622C61.3413 91.4865 60.1666 92.5483 58.7549 93.5929C57.2267 94.793 55.4781 95.6821 53.608 96.21L53.2189 96.3229C53.0961 96.3573 52.8997 96.383 52.7438 96.4088C52.4486 96.4395 52.1519 96.4538 51.8551 96.4518C51.3123 96.4488 50.77 96.4144 50.2311 96.3487C49.1767 96.2259 48.1321 96.0455 47.0789 95.8393C42.8551 95.0267 38.3121 93.8433 33.2683 92.9289C30.6925 92.4075 28.0721 92.1382 25.4442 92.1248C24.2826 92.0834 23.1311 92.3547 22.1103 92.9104C21.9605 93.0176 21.8352 93.1555 21.7429 93.3149C21.6507 93.4742 21.5934 93.6515 21.5751 93.8347C21.5376 94.3739 21.6021 94.9153 21.7653 95.4305C22.1117 95.6345 22.4723 95.8133 22.8443 95.9657C24.8944 96.7051 27.0211 97.212 29.1844 97.4768C31.2994 97.8057 33.3382 98.0132 35.3587 98.3667C37.2843 98.7759 39.101 99.1617 40.8088 99.5242C41.646 99.6617 42.4586 99.8262 43.2442 99.9305C46.5781 100.37 49.2295 99.248 52.4505 98.5741C52.5536 98.5226 52.6751 98.4796 52.7782 98.4268C54.5269 97.5789 56.2279 96.636 57.8736 95.6024C59.2717 94.7431 60.4035 94.0643 61.3106 93.5635C63.1236 92.5532 64.0111 92.2856 64.1081 92.4501C64.221 92.6392 63.5557 93.2443 61.9575 94.5221C61.2504 95.1015 60.3433 95.827 59.2116 96.6813C60.4195 96.2024 61.5911 95.6367 62.7173 94.9886C63.1752 94.7124 63.6404 94.4362 64.1154 94.1514C64.5819 93.8397 65.0398 93.4861 65.5234 93.1486C66.4993 92.4931 67.4236 91.6289 68.4424 90.8004C69.8847 89.4808 71.3884 87.9918 72.9596 86.3543ZM65.3491 85.9137C65.4952 85.8449 65.6339 85.7848 65.7799 85.716C65.4866 85.6989 65.1932 85.6804 64.9207 85.6718H63.5459C63.4072 85.6633 63.3004 85.6718 63.1776 85.6718C62.9616 85.7332 62.737 85.802 62.5295 85.8707C62.2422 85.9604 61.9595 86.0645 61.6825 86.1825C61.4063 86.3114 61.1387 86.4415 60.8626 86.579C60.2999 86.8526 59.7597 87.1702 59.2472 87.5291C58.0647 88.4616 56.8085 89.2966 55.491 90.0258C52.27 91.2578 48.7334 91.3971 45.4255 90.4223C43.7499 90.054 42.1112 89.5409 40.4676 89.0487C38.824 88.5565 37.1865 88.1342 35.4238 87.7365C31.9352 86.9337 28.1815 86.2426 24.2535 85.1588C24.0804 85.1072 23.9086 85.0556 23.7269 85.0041C23.1475 86.1346 22.5779 87.189 22.0771 88.2422C21.8095 88.8118 21.5505 89.3826 21.3259 89.9522C21.8422 89.7128 22.3842 89.5333 22.9413 89.417C23.7383 89.2593 24.5473 89.1697 25.3595 89.1494C28.1981 89.162 31.0281 89.463 33.8059 90.0479C38.9958 91.0299 43.5474 92.2758 47.6325 93.1388C48.6428 93.3548 49.6358 93.5365 50.5687 93.6666C51.0064 93.7346 51.448 93.7756 51.8907 93.7893C52.0982 93.7979 52.2872 93.7893 52.4517 93.7807C52.529 93.7636 52.5745 93.7635 52.6763 93.7378L52.9783 93.669C54.5446 93.2526 56.0184 92.5446 57.3224 91.5823C59.9223 89.7508 62.133 87.6702 64.4825 86.374C64.7722 86.2169 65.0569 86.061 65.3515 85.9137H65.3491ZM51.2193 65.1689C52.7422 64.0401 54.143 62.7553 55.3989 61.3354C52.5929 61.1537 49.7082 61.0236 46.6763 61.0064C42.0822 60.9458 37.292 60.8796 32.3059 60.8075C27.3198 60.7355 22.1291 60.6664 16.7338 60.6001C16.0599 60.5915 15.3835 60.5829 14.7047 60.5657L13.1495 60.5485H12.9163C11.7546 61.846 10.7418 63.2693 9.89661 64.792C9.44966 65.5947 9.18127 66.4845 9.10978 67.4005C9.12696 67.5981 9.10978 67.8055 9.13555 67.9958C9.16368 68.1825 9.20469 68.3671 9.2583 68.5482L9.36141 68.817L9.3786 68.8857C9.40448 68.9743 9.44605 69.0574 9.50135 69.1312L9.71739 69.4934L10.5766 70.9357C10.1286 71.2131 9.61796 71.5065 9.16992 71.7949L8.59913 72.227L8.38309 72.443C8.09063 72.757 7.82497 73.095 7.5889 73.4533C7.09808 74.1981 6.70337 75.0019 6.41418 75.8457C6.12768 76.6314 5.97096 77.4585 5.95018 78.2946C5.90622 78.9154 6.07983 79.5321 6.44118 80.0388C6.6162 80.2184 6.82871 80.3572 7.06353 80.4451C7.35109 80.5544 7.65463 80.6158 7.96206 80.6268C8.62066 80.5859 9.25729 80.3744 9.80945 80.0131C11.2366 79.0357 12.601 77.9698 13.8946 76.8215C14.2715 76.5155 14.6666 76.2326 15.0779 75.9746C15.5122 75.6831 15.9865 75.4562 16.4858 75.3007C16.9523 75.1546 17.4102 75.0073 17.868 74.8612C18.3259 74.7483 18.7825 74.6967 19.2318 74.6157L19.9057 74.5028L20.5624 74.4512L21.866 74.3739C22.6958 74.3653 23.5415 74.3481 24.321 74.3567C25.8095 74.3989 27.2991 74.3506 28.7817 74.2119C29.4728 74.0891 30.0854 73.9787 30.7936 73.8056C31.416 73.6423 32.0027 73.4778 32.5907 73.3146L33.8771 72.9267C36.0019 72.2442 40.9844 70.862 41.0028 67.9172C41.0115 67.5142 40.935 67.1139 40.7781 66.7425C40.608 66.4225 40.3581 66.1519 40.0527 65.9569C39.2615 65.5225 38.3773 65.2855 37.4749 65.2658C36.5158 65.2098 35.5536 65.2356 34.5989 65.3432C32.815 65.5421 31.0464 65.8595 29.3047 66.2932C16.0906 69.5498 11.8741 72.9611 11.5746 72.4516C11.5132 72.3645 11.7465 72.1227 12.3172 71.6734C12.5934 71.4586 12.9641 71.1824 13.422 70.862C13.9523 70.4679 14.5125 70.1158 15.0975 69.8088C15.7714 69.4406 16.5484 69.022 17.4212 68.5555C18.3185 68.1419 19.33 67.7098 20.4519 67.2176C21.5923 66.7511 22.8529 66.3018 24.2351 65.7924C25.6087 65.326 27.1283 64.8166 28.8038 64.3501C30.6217 63.8209 32.4745 63.4197 34.3485 63.1496C35.4266 62.9983 36.5157 62.9404 37.6038 62.9765C38.8996 62.9911 40.1721 63.3232 41.3097 63.9438C41.988 64.3557 42.5453 64.9397 42.925 65.6365C43.268 66.342 43.448 67.1156 43.4516 67.9001C43.4445 68.5145 43.3273 69.1228 43.1055 69.6959C43.7021 69.4369 44.3146 69.1693 44.9369 68.8759C47.1525 67.8571 49.2583 66.615 51.2217 65.1689H51.2193ZM31.2797 102.125C31.427 102.134 31.5645 102.151 31.7032 102.168C31.2969 101.616 30.8746 101.064 30.434 100.519C29.889 100.45 29.3366 100.38 28.767 100.302C26.368 100.035 24.0085 99.487 21.7371 98.6699C21.0736 98.4105 20.4395 98.0813 19.8455 97.6879C19.1505 97.2382 18.5612 96.6431 18.1184 95.9436C16.9609 96.2026 15.8377 96.4272 14.7416 96.6089C15.2474 97.6435 15.8096 98.6495 16.4257 99.6224C17.1894 100.829 18.0437 101.975 18.9814 103.052C19.7269 103.967 20.6344 104.737 21.6585 105.323C21.8696 105.43 22.0892 105.52 22.3153 105.591C22.5103 105.643 22.7102 105.675 22.9118 105.685C23.3118 105.709 23.7115 105.635 24.0767 105.47C25.7265 104.788 27.3591 102.939 29.6005 102.335C30.1455 102.176 30.7124 102.105 31.2797 102.125ZM17.8238 91.0017C18.5687 88.5949 19.5769 86.2777 20.83 84.0921C18.3399 83.2402 15.955 82.1073 13.7215 80.7152C12.9534 81.3773 12.1364 81.9805 11.2775 82.5196C10.5049 82.9933 9.64932 83.3157 8.75625 83.4697C8.7047 83.5225 8.64332 83.5655 8.60036 83.6084C8.39037 83.8213 8.21552 84.0661 8.08236 84.3339C8.023 84.4497 7.9816 84.5739 7.9596 84.7021C7.94322 84.7678 7.94621 84.8369 7.9682 84.901C7.98008 84.9512 8.00707 84.9966 8.04553 85.0311C8.1205 85.0841 8.19837 85.1328 8.27876 85.1772C8.66906 85.3592 9.0734 85.5094 9.48785 85.6264C10.1227 85.7957 10.7324 86.0483 11.3009 86.3777C11.8094 86.6864 12.1897 87.1679 12.3725 87.7341C12.4185 87.9005 12.4473 88.0712 12.4584 88.2435C12.4656 88.402 12.4598 88.5609 12.4412 88.7185C12.4154 88.8486 12.3897 88.9861 12.3553 89.1162C12.3209 89.2463 12.2767 89.3323 12.2252 89.4845C12.018 90.0217 11.6345 90.4727 11.1376 90.7635L10.9302 90.8666L10.7915 90.944L10.5239 91.0569L10.023 91.2558C9.4277 91.4706 8.81395 91.6866 8.18178 91.9112C7.63296 92.1018 7.1062 92.3508 6.61058 92.6539C6.45772 92.7527 6.32316 92.8773 6.21287 93.0221C6.1699 93.0995 6.19568 93.0651 6.19568 93.1081C6.23144 93.2506 6.29301 93.3854 6.37735 93.5058L6.41172 93.5659L6.49888 93.6789L6.64495 93.8679L6.67073 93.9121C6.66617 93.9037 6.66325 93.8945 6.66213 93.8851C6.67932 93.8937 6.68791 93.8937 6.7051 93.9035C7.23727 94.1197 7.80622 94.231 8.38064 94.2312C10.0126 94.2618 11.6438 94.1385 13.2526 93.863C14.6029 93.6555 16.0501 93.3622 17.4924 93.0258C17.5371 92.342 17.6481 91.6641 17.8238 91.0017Z" fill="black"/>
<path d="M121.928 49.9392C122.352 52.1328 121.928 54.6811 119.666 55.6827C118.822 56.073 117.881 56.205 116.962 56.0622C116.043 55.9194 115.187 55.508 114.501 54.8799C112.842 53.1528 113.534 50.8034 114.924 49.1536C115.849 48.0648 117.308 46.7698 118.852 46.8741C119.636 46.9615 120.367 47.3122 120.926 47.869C121.485 48.4257 121.838 49.1556 121.928 49.9392ZM119.363 52.4961C119.55 51.8908 119.571 51.2465 119.424 50.6303C119.346 50.3026 119.243 49.6483 118.923 49.49C118.828 49.468 118.728 49.4659 118.632 49.4839C118.535 49.5018 118.443 49.5394 118.361 49.5943C117.542 50.0472 116.863 50.7164 116.397 51.5288C116.237 51.7637 116.134 52.0327 116.095 52.3144C116.094 52.3347 116.092 52.3549 116.087 52.3746C116.087 52.421 116.09 52.4673 116.095 52.5133C116.095 52.5563 116.095 52.5734 116.087 52.5734C116.095 52.5992 116.104 52.625 116.113 52.6606C116.143 52.774 116.195 52.8805 116.266 52.9738C116.337 53.0671 116.426 53.1454 116.527 53.2044C116.613 53.2559 116.699 53.2989 116.795 53.3505C116.855 53.3676 116.994 53.4204 117.028 53.429C117.131 53.4634 117.236 53.4806 117.339 53.5063C117.408 53.5063 117.555 53.5235 117.598 53.5235C117.736 53.5336 117.875 53.5307 118.013 53.5149C118.028 53.5172 118.043 53.5142 118.056 53.5063C118.073 53.5063 118.107 53.4892 118.178 53.472C118.29 53.4462 118.393 53.4118 118.506 53.3775C118.549 53.3505 118.629 53.3161 118.644 53.3075C118.688 53.2817 118.877 53.1442 118.889 53.1442C118.972 53.0757 119.05 53.0006 119.121 52.9196C119.126 52.9061 119.346 52.5428 119.363 52.4912V52.4961Z" fill="black"/>
<path d="M116.435 36.0991C117.8 37.7489 118.645 40.5034 115.969 41.4105C113.681 42.1875 111.565 40.0799 110.278 38.4314C109.337 37.2223 107.764 34.6482 109.362 33.5079C109.529 33.3461 109.739 33.2379 109.968 33.1973C110.134 33.1387 110.31 33.1153 110.486 33.1286C111.637 33.1438 112.77 33.4189 113.8 33.9333C114.83 34.4476 115.731 35.188 116.435 36.0991ZM114.492 38.8364C114.838 39.0181 114.95 39.082 115.2 38.9408C115.192 38.9408 115.063 38.6118 115.002 38.5001C114.676 37.9845 114.274 37.5213 113.81 37.1265C113.159 36.5355 112.404 36.0724 111.582 35.7616V35.7714C111.949 36.3933 112.383 36.9725 112.878 37.4985C113.338 38.0307 113.884 38.4828 114.492 38.8364Z" fill="black"/>
<path d="M106.193 40.1069C108.335 40.8667 110.338 42.6626 110.054 45.1397C110.016 45.6451 109.87 46.1364 109.625 46.5799C109.379 47.0234 109.041 47.4085 108.633 47.7089C108.225 48.0092 107.756 48.2176 107.26 48.3197C106.764 48.4218 106.251 48.4153 105.757 48.3005C104.612 48.0171 103.592 47.3661 102.853 46.4473C102.113 45.5286 101.696 44.3927 101.664 43.2137C101.684 40.6335 103.818 39.3827 106.193 40.1069ZM106.426 45.8062C107.126 45.8406 107.522 45.4699 107.488 44.7015C107.39 44.2005 107.153 43.7374 106.803 43.3659C106.453 42.9944 106.005 42.7297 105.511 42.6024C105.219 42.4793 104.902 42.4287 104.586 42.4551C104.44 42.4981 104.432 42.4981 104.414 42.5337C104.242 42.8501 104.195 43.2203 104.284 43.5697C104.519 44.5456 105.346 45.7547 106.426 45.8062Z" fill="black"/>
<path d="M95.2854 29.0078C95.7988 29.071 96.2938 29.2388 96.7398 29.5008C97.1858 29.7629 97.5733 30.1136 97.8784 30.5313C98.1835 30.949 98.3997 31.4249 98.5136 31.9295C98.6276 32.434 98.6368 32.9566 98.5408 33.4649C98.5304 33.5744 98.5044 33.6819 98.4634 33.784C98.4261 33.9043 98.3707 34.0181 98.299 34.1216C97.9709 34.9818 97.319 35.6794 96.483 36.0651C95.647 36.4507 94.6933 36.4938 93.8259 36.185C92.2535 35.5983 90.4749 34.0872 90.6344 32.2128C90.704 31.6851 90.8836 31.1778 91.1615 30.7237C91.4394 30.2697 91.8095 29.879 92.2478 29.577C92.6862 29.2749 93.183 29.0682 93.7063 28.9701C94.2295 28.8721 94.7675 28.8849 95.2854 29.0078ZM95.9667 33.093C96.0223 32.9072 96.0327 32.7108 95.9969 32.5202C95.9611 32.3296 95.8803 32.1504 95.7611 31.9974C95.6419 31.8445 95.4878 31.7223 95.3118 31.641C95.1357 31.5598 94.9427 31.5218 94.749 31.5303C94.5327 31.4909 94.3106 31.4967 94.0967 31.5472C93.8827 31.5976 93.6814 31.6918 93.5056 31.8237C93.4102 31.926 93.3236 32.036 93.2466 32.1527C93.2294 32.2128 93.2208 32.3074 93.2122 32.3074C93.3052 32.6242 93.4718 32.9145 93.6983 33.1547C93.9249 33.3949 94.205 33.5781 94.5158 33.6895C95.1553 33.8884 95.6476 33.9142 95.9667 33.093Z" fill="black"/>
<path d="M98.04 53.596C98.4339 54.4898 98.4709 55.5006 98.1433 56.4208C97.8158 57.3411 97.1486 58.1012 96.2785 58.5452C94.6828 59.348 92.3395 59.5641 91.0187 58.1046C90.6502 57.6675 90.3763 57.1589 90.2141 56.6108C90.052 56.0627 90.0051 55.4869 90.0765 54.9197C90.1479 54.3526 90.336 53.8064 90.6289 53.3155C90.9218 52.8247 91.3132 52.3998 91.7785 52.0677C92.2072 51.7169 92.7034 51.458 93.2364 51.307C93.7693 51.1559 94.3276 51.116 94.8766 51.1897C95.4256 51.2633 95.9536 51.449 96.4279 51.7352C96.9022 52.0214 97.3126 52.4019 97.6337 52.8533C97.7475 52.9564 97.839 53.0817 97.9025 53.2216C97.9622 53.3408 98.0083 53.4664 98.04 53.596ZM93.0833 56.445C94.1795 56.9986 96.3644 56.0571 95.6611 54.5362C94.3305 52.1279 91.4164 55.6005 93.0833 56.445Z" fill="black"/>
<path d="M84.7657 36.7472C88.2457 36.2464 97.8927 39.6576 94.5342 44.1908C92.7114 46.6618 89.7752 46.1548 87.7829 44.2178C86.7883 43.2208 85.9103 42.1138 85.1659 40.9183C84.8627 40.4518 84.5693 39.9682 84.276 39.4932C84.1729 39.3373 84.0771 39.174 83.974 39.0181C83.8529 38.907 83.7559 38.7722 83.689 38.6221C83.622 38.472 83.5866 38.3097 83.5849 38.1454C83.531 37.8807 83.5736 37.6054 83.7051 37.3694C83.8366 37.1334 84.0483 36.9523 84.3017 36.8589C84.447 36.7901 84.605 36.752 84.7657 36.7472ZM91.6754 43.2935C93.67 42.1961 91.3071 41.0042 90.1201 40.4604C89.2231 40.0237 88.2864 39.6739 87.3226 39.4158C87.4425 39.6471 87.5749 39.8716 87.7191 40.0885C88.2813 40.9011 90.319 44.0472 91.6754 43.2935Z" fill="black"/>
<path d="M78.9535 27.2304C81.8467 26.7725 84.6356 28.3622 84.2563 31.5659C84.2557 31.5926 84.2498 31.6189 84.2391 31.6433C84.2387 31.7335 84.23 31.8235 84.2134 31.9121C83.1503 36.9633 76.8888 34.9809 74.2374 32.3859C73.3573 31.5267 73.9527 30.2451 74.6437 29.4497C75.7737 28.2249 77.3002 27.4389 78.9535 27.2304ZM81.6872 31.3057C81.7301 30.4857 81.4969 29.8032 80.4781 29.7517C79.5675 29.6656 78.6507 29.8298 77.8267 30.2267C77.4177 30.4105 77.0461 30.6681 76.7305 30.9866C76.7219 30.9952 76.7133 30.9952 76.7047 31.0123C78.0808 31.8839 81.0955 33.7239 81.6872 31.3057Z" fill="black"/>
<path d="M77.9175 51.8173C78.0236 52.0642 78.0489 52.3383 77.9898 52.6004C77.9307 52.8626 77.7902 53.0993 77.5885 53.2768C77.469 53.4183 77.3139 53.5255 77.1392 53.5874C74.9955 54.9482 72.4927 55.6345 69.9547 55.5575C67.9072 55.4102 64.9538 54.4343 64.5647 52.0076C64.1756 49.5808 66.0672 48.3251 68.3049 48.0599C71.6646 47.6917 74.6437 49.2089 77.3123 51.1004C77.4262 51.1645 77.5283 51.2475 77.6143 51.3459L77.6671 51.3975C77.6891 51.4251 77.7092 51.4542 77.7272 51.4846C77.8093 51.5838 77.8737 51.6963 77.9175 51.8173ZM67.9588 52.4225C69.8 53.4327 72.255 53.0264 74.273 52.1635C72.9886 51.2577 71.4854 50.7118 69.9191 50.5824C68.8917 50.5652 65.4203 51.0317 67.9588 52.4225Z" fill="black"/>
<path d="M59.6597 29.2681C59.6511 29.2681 59.6511 29.2595 59.6338 29.2497V29.2411C59.6424 29.2497 59.6511 29.2497 59.6597 29.2681Z" fill="black"/>
<path d="M57.7508 35.5553C58.1661 35.9364 58.502 36.3957 58.7392 36.907C58.9764 37.4182 59.1102 37.9713 59.133 38.5345C59.0821 39.1346 58.8533 39.7058 58.4759 40.1751C58.0984 40.6443 57.5895 40.9903 57.0143 41.1687C54.6907 41.9887 52.6101 40.064 51.4611 38.2669C50.7614 37.1621 49.0945 34.3021 50.9345 33.4391H50.9431C51.029 33.4391 51.1334 33.2145 51.2451 33.1801C53.484 32.5492 56.257 33.9485 57.7508 35.5553ZM56.1784 38.7247C56.516 38.5345 56.6277 38.4486 56.5246 38.2411C56.2134 37.6676 55.7801 37.1694 55.2553 36.7816C54.5909 36.2492 53.8316 35.8477 53.0176 35.5983C53.2707 36.1519 53.5774 36.6794 53.9333 37.1732C54.2966 37.6875 55.453 39.1298 56.1784 38.7247Z" fill="black"/>
<path d="M44.4079 39.3201C47.3011 38.8622 50.09 40.4518 49.7107 43.6556C49.7099 43.6827 49.7041 43.7093 49.6935 43.7342C49.6932 43.824 49.6841 43.9137 49.6665 44.0018C48.6047 49.0542 42.3432 47.0705 39.6918 44.4768C38.8105 43.6176 39.407 42.3348 40.0981 41.5394C41.2279 40.3144 42.7545 39.5283 44.4079 39.3201ZM47.1452 43.3966C47.1882 42.5766 46.9549 41.8942 45.9361 41.8426C45.0255 41.7555 44.1084 41.9198 43.2847 42.3176C42.8756 42.5018 42.5037 42.7593 42.1873 43.0775C42.1787 43.0861 42.1701 43.0861 42.1615 43.1032C43.5351 43.976 46.5499 45.8148 47.1452 43.3966Z" fill="black"/>
<path d="M39.3297 48.2416C39.5551 48.6463 39.6916 49.0945 39.73 49.5561C39.7685 50.0178 39.708 50.4824 39.5527 50.9188C39.3974 51.3553 39.1508 51.7536 38.8293 52.0872C38.5078 52.4208 38.1189 52.6819 37.6885 52.8533C36.0078 53.5476 34.2124 53.9222 32.3943 53.9581C32.11 53.9601 31.833 53.8681 31.6065 53.6962C31.38 53.5243 31.2168 53.2823 31.1422 53.008C30.9775 51.8796 31.1 50.7278 31.4984 49.6593C31.8969 48.5908 32.5584 47.6401 33.4217 46.895C33.8102 46.5309 34.2746 46.2574 34.7813 46.094C35.2881 45.9306 35.8247 45.8814 36.3528 45.9499C36.8808 46.0184 37.3871 46.203 37.8354 46.4903C38.2836 46.7777 38.6627 47.1607 38.9455 47.6119C39.0294 47.6993 39.1046 47.7947 39.1701 47.8966C39.2389 48.0038 39.2925 48.1198 39.3297 48.2416ZM35.9172 50.7899C36.8845 50.4609 37.4897 50.1675 36.9373 49.2088C36.2462 48.1728 35.5293 48.3115 34.7609 49.2174C34.2567 49.8078 33.8932 50.505 33.6979 51.2563C34.4519 51.1789 35.1958 51.0226 35.9172 50.7899Z" fill="black"/>
<path d="M20.2248 46.7133C20.1901 46.627 20.1642 46.5373 20.1475 46.4457C19.7793 45.7718 19.1287 45.4441 18.5321 46.1524C18.2798 46.4752 18.1651 46.8846 18.213 47.2915C18.242 47.3776 18.2963 47.4529 18.3689 47.5075C18.4032 47.5247 18.429 47.5419 18.4462 47.5505C18.4629 47.5575 18.4801 47.5633 18.4977 47.5677C18.5514 47.5842 18.6065 47.5961 18.6622 47.6033C18.688 47.5947 18.9728 47.6205 19.0243 47.6205C19.0588 47.6143 19.0937 47.6114 19.1287 47.6119C19.1521 47.6083 19.1751 47.6025 19.1974 47.5947C19.2748 47.5763 19.3619 47.5591 19.4429 47.5333C19.7105 47.4474 19.5902 47.4903 19.7363 47.4044C19.9533 47.3153 20.1269 47.1448 20.2199 46.9294C20.2314 46.8579 20.2331 46.7852 20.2248 46.7133ZM22.6087 45.616C23.8791 49.1057 18.7138 51.8762 16.3557 49.1659C16.0582 48.7481 15.8479 48.2745 15.7375 47.7736C15.6271 47.2726 15.6189 46.7546 15.7133 46.2504C15.8077 45.7462 16.0029 45.2662 16.287 44.8391C16.5712 44.4121 16.9386 44.0467 17.3672 43.7649C17.793 43.4854 18.275 43.3028 18.779 43.2299C19.2831 43.157 19.7971 43.1956 20.2846 43.343C20.7721 43.4903 21.2214 43.7429 21.6007 44.0828C21.98 44.4227 22.2801 44.8418 22.4798 45.3103L22.5313 45.4662L22.6087 45.616Z" fill="black"/>
</g>
<defs>
<clipPath id="clip0_114_7">
<rect width="150" height="150" fill="white"/>
</clipPath>
</defs>
</svg>
