<svg width="150" height="150" viewBox="0 0 150 150" fill="none" xmlns="http://www.w3.org/2000/svg">
<g clip-path="url(#clip0_114_26)">
<path d="M127.768 11.6871L113.335 7.5764C112.657 7.38575 111.937 7.39271 111.263 7.59646C110.588 7.80021 109.985 8.19231 109.525 8.72669C109.065 9.26107 108.767 9.91555 108.667 10.6133C108.566 11.311 108.666 12.0231 108.956 12.6658L112.422 20.3105C109.618 20.5946 106.916 21.5145 104.522 23.0004C98.5435 26.6537 97.2235 32.5042 95.9335 38.1624C95.5819 39.7444 95.2022 41.3811 94.6815 42.9399C92.1212 51.3741 85.7368 58.8664 75.6578 65.2278L74.628 65.7999L74.1802 66.0487L72.6878 66.8779L70.6431 68.0138L69.0163 68.9176L67.033 70.0586C63.7084 71.6317 60.2257 72.8464 56.6438 73.6821L56.5543 73.7318C53.1888 74.5299 49.7122 74.7509 46.2728 74.3854C45.4095 74.2599 44.5544 74.0827 43.7124 73.8547C41.5607 73.2724 39.4431 72.571 37.3693 71.7538C30.6565 69.2332 23.7115 66.6464 16.2807 72.7474C14.744 73.9725 13.4142 75.4367 12.3423 77.0839L8.53311 71.3877C8.13917 70.8107 7.59013 70.3569 6.94933 70.0786C6.30854 69.8002 5.60211 69.7088 4.91156 69.8147C4.22101 69.9207 3.57449 70.2197 3.0466 70.6773C2.51871 71.1349 2.13096 71.7325 1.9281 72.401L-2.12127 86.8382C-2.31195 87.5157 -2.3057 88.2335 -2.10327 88.9076C-1.90084 89.5817 -1.51059 90.1841 -0.9782 90.6445C-0.445812 91.1048 0.206687 91.404 0.902925 91.507C1.59916 91.61 2.31033 91.5125 2.9532 91.226L9.50345 88.2509C9.74447 92.2625 11.3562 96.0696 14.0689 99.0348C22.5595 108.341 37.0415 111.662 47.7227 111.588C59.5745 111.546 72.0864 108.052 85.9679 100.906C87.1221 100.265 88.2663 99.6291 89.4006 98.9989C99.6134 93.4707 108.806 86.2367 116.58 77.6098C120.412 79.6212 123.075 76.5401 124.538 74.8486C124.91 74.3796 125.32 73.9424 125.765 73.5418C126.619 74.1902 127.278 75.0603 127.671 76.0574C128.183 77.083 128.82 78.041 129.568 78.9097C132.583 82.1566 135.695 82.9078 138.77 81.1997C139.539 80.7743 140.215 80.1975 140.757 79.5041C141.298 78.8108 141.693 78.0151 141.919 77.165C143.045 73.0043 140.468 67.8736 139.31 65.8604C138.879 65.0843 138.27 64.2701 137.643 63.3879C135.642 60.5937 133.159 57.1096 134.285 53.8278C136.526 46.9972 134.542 43.7437 131.864 42.2628C131.497 35.2399 128.781 26.9053 122.159 22.6154L128.68 18.2507C129.263 17.8562 129.721 17.3038 130.001 16.6583C130.282 16.0127 130.372 15.3006 130.263 14.6054C130.153 13.9102 129.848 13.2606 129.382 12.7326C128.917 12.2046 128.311 11.8201 127.635 11.6241L127.768 11.6871ZM93.0018 54.5763C97.2355 58.0835 98.607 61.3255 98.0398 62.1679C97.8176 62.5062 96.7265 62.8976 94.6121 62.4316C92.45 61.9389 90.3773 61.1138 88.4681 59.9857C89.965 58.4767 91.3531 56.8635 92.6221 55.1584L92.7448 54.9925L93.0018 54.5763ZM76.5251 69.1795C76.5915 69.2989 76.6578 69.4183 76.7241 69.5377C80.3393 76.0448 79.9878 80.6151 79.0476 81.1375C78.1073 81.6599 74.0328 79.529 70.4259 73.0368C70.3596 72.9174 70.2933 72.798 70.2269 72.6786L70.7791 72.3718L72.2716 71.5427L76.5997 69.1381L76.5251 69.1795ZM52.3903 78.1546L53.1664 78.075L53.3306 77.9838L54.0072 77.9009L54.3338 77.8561L54.896 77.7781L55.0453 77.6952C55.0072 84.2007 52.8796 87.6484 51.8648 87.6849C51.4601 87.6948 50.5215 87.0249 49.5945 85.0399C48.6668 82.8519 48.1011 80.5276 47.9195 78.158C49.3633 78.215 50.8093 78.1751 52.2477 78.0385L52.3903 78.1546ZM5.57141 73.58L10.3292 80.7023L9.34751 84.1383L1.54525 87.6723L5.57141 73.58ZM84.2632 97.5563C70.9272 104.419 58.9344 107.722 47.7342 107.812C37.8308 107.845 24.6009 104.844 16.8697 96.4826C15.5866 95.0723 14.6066 93.4135 13.9904 91.6091C13.3743 89.8046 13.1351 87.8929 13.2877 85.9923C13.4303 84.0003 13.9746 82.0579 14.8877 80.2818C15.8008 78.5057 17.0638 76.9328 18.6007 75.6577C19.2831 75.0893 20.0158 74.5842 20.7897 74.1486C25.6849 71.4289 30.3149 73.1535 35.9864 75.276C38.1913 76.1452 40.4436 76.8892 42.7324 77.5047C43.2265 77.6207 43.7124 77.7219 44.1983 77.823C44.353 80.9222 45.0601 83.9688 46.2862 86.8193C48.2763 91.1043 50.7687 91.6532 52.0887 91.6034C52.7882 91.5776 53.4715 91.3855 54.082 91.0429C57.3952 89.2021 58.9739 83.1493 58.8693 77.055C61.5907 76.3433 64.2539 75.4252 66.8357 74.3088C66.9435 74.5028 67.0596 74.7118 67.1674 74.9058C70.7992 81.4427 76.6813 86.8272 80.9049 84.4806C85.1286 82.1341 83.6642 74.2953 80.0324 67.7583C79.9246 67.5643 79.8168 67.3703 79.709 67.1762C81.7818 65.7691 83.7697 64.2407 85.6623 62.5993C88.1973 64.2476 91.0012 65.4396 93.9472 66.1214C95.8688 66.6448 97.9147 66.4582 99.7098 65.5956C100.319 65.2645 100.84 64.794 101.232 64.2225C103.666 60.624 99.9634 55.2594 95.1244 51.3658C96.4822 49.04 97.5646 46.5641 98.3497 43.988C98.8505 42.323 99.2501 40.6166 99.6066 38.9732C100.819 33.6318 101.878 29.0002 106.487 26.186C108.362 24.9436 110.526 24.2059 112.769 24.0441C115.013 23.8822 117.26 24.3018 119.294 25.2621C125.138 28.3631 127.662 35.6131 128.183 41.6128L127.884 41.7787L127.078 42.2264L126.75 42.4088L126.421 42.5913L125.887 43.1418L125.416 43.7355L125.022 44.3259L124.687 44.8831L124.425 45.3607L124.319 45.5563C123.417 47.3111 122.613 49.1142 121.909 50.9575C121.2 52.7385 120.475 54.7036 119.687 56.8013L119.12 58.3469C118.942 58.7949 118.734 59.2304 118.497 59.6503C118.057 60.4414 117.485 61.3451 116.928 62.2406C115.301 64.5219 114.071 67.061 113.288 69.7511L113.2 70.1906C112.9 71.7396 113.211 73.3445 114.067 74.6696C105.664 84.1086 95.5514 91.8738 84.2632 97.5563ZM130.836 52.7168C129.176 57.7796 132.406 62.2935 134.751 65.6001C135.314 66.401 135.866 67.1489 136.206 67.7608C137.59 70.2532 139.105 73.9628 138.486 76.2596C138.391 76.63 138.22 76.9764 137.983 77.2763C137.746 77.5762 137.448 77.8231 137.11 78.0008C135.841 78.7056 134.566 78.7305 132.456 76.4454C131.926 75.7928 131.472 75.0818 131.103 74.3261C130.726 73.3104 130.136 72.3873 129.372 71.619C128.609 70.8506 127.689 70.2549 126.675 69.872C125.86 69.6724 124.998 69.8004 124.276 70.2286C123.344 70.8286 122.522 71.5829 121.843 72.459C119.988 74.6032 119.314 74.9382 118.306 74.2484C118.07 74.1116 117.846 73.9552 117.636 73.7807C115.611 72.0346 117.333 68.9103 119.976 64.6683C120.57 63.733 121.133 62.8143 121.623 61.9371C121.966 61.3244 122.265 60.6882 122.518 60.0333L123.067 58.4198L124.402 54.8461L125.364 52.3587C125.929 50.9508 126.47 49.6739 126.997 48.6192C128.534 45.48 129.305 45.286 129.377 45.344L129.524 45.3987C130.695 45.7834 132.759 46.863 130.836 52.7168ZM119.416 19.9987L115.98 19.017L112.446 11.2147L126.632 15.2674L119.416 19.9987Z" fill="black"/>
</g>
<defs>
<clipPath id="clip0_114_26">
<rect width="150" height="150" fill="white"/>
</clipPath>
</defs>
</svg>
