<svg width="100" height="100" viewBox="0 0 100 100" fill="none" xmlns="http://www.w3.org/2000/svg">
<path d="M36.7097 29.2258C37.5292 29.2258 38.1936 28.5615 38.1936 27.7419C38.1936 26.9224 37.5292 26.2581 36.7097 26.2581C35.8902 26.2581 35.2258 26.9224 35.2258 27.7419C35.2258 28.5615 35.8902 29.2258 36.7097 29.2258Z" fill="black"/>
<path d="M45.6129 29.2258C46.4324 29.2258 47.0968 28.5615 47.0968 27.7419C47.0968 26.9224 46.4324 26.2581 45.6129 26.2581C44.7934 26.2581 44.129 26.9224 44.129 27.7419C44.129 28.5615 44.7934 29.2258 45.6129 29.2258Z" fill="black"/>
<path d="M36.7097 36.6452H42.6452C45.0995 36.6452 47.0968 34.6479 47.0968 32.1936H44.1291C44.1291 33.0112 43.4628 33.6774 42.6452 33.6774H36.7097V36.6452Z" fill="black"/>
<path d="M87.5085 40.57L86.8957 40.34C87.2963 39.187 87.2919 37.9287 86.8185 36.7876C86.2621 35.4462 85.1536 34.4119 83.7766 33.9534L81.7763 33.2872C81.3252 33.1358 80.8667 33.0735 80.4082 33.0497L82.3387 28.8697C82.5806 28.3444 82.7097 27.7627 82.7097 27.1855V26.8486C82.7097 24.9419 81.3519 23.2859 79.4823 22.9119L74.3436 21.8851C72.4398 21.5023 70.4484 22.6211 69.7822 24.4507L65.3039 36.7683C65.0383 37.4984 64.9032 38.2626 64.9032 39.0386C64.9032 41.7675 66.6141 44.2589 69.1605 45.2383L69.3074 45.2946L68.742 46.4268C68.0639 47.7831 68.1663 49.4094 69.0061 50.6692L70.8387 53.4174V58.7934L67.0445 53.5776C65.89 51.9899 64.5219 50.601 63.0187 49.3872C63.2739 48.6304 63.4194 47.8365 63.4194 47.0323C63.4194 45.354 62.8703 43.7737 61.8331 42.4619C59.4648 39.4675 58.9677 35.8572 58.9677 33.3554V24.0055C60.7291 23.0099 61.9355 21.1417 61.9355 18.9782V18.6992C61.9355 15.5415 59.3951 12.9759 56.2523 12.9151L54.4405 8.56587C53.2845 5.79252 50.5957 4 47.5909 4H34.7302C31.7254 4 29.0381 5.79252 27.8821 8.56587L26.0703 12.9151C22.9275 12.9759 20.3871 15.5415 20.3871 18.6992V18.9782C20.3871 21.1417 21.5935 23.0099 23.3548 24.0055V33.3554C23.3548 35.8572 22.8577 39.4675 20.491 42.4605C19.4523 43.7737 18.9032 45.354 18.9032 47.0323C18.9032 47.8795 19.0605 48.7165 19.3425 49.5088C17.8126 50.7716 16.4266 52.2214 15.2663 53.8774L12.1857 58.28C10.7553 60.3233 10 62.7212 10 65.2156C10 69.1835 11.9483 72.9006 15.2099 75.159L26.1163 82.7075L25.0835 84.773C23.015 86.941 21.871 89.7677 21.871 92.777V96H60.4516V92.777C60.4516 89.7677 59.3075 86.941 57.239 84.773L54.5161 79.3272V77.9962C54.5161 75.484 55.1987 73.0148 56.4912 70.8632L56.5683 70.7341C57.9275 68.4683 58.6947 65.9116 58.8861 63.2881L65.7906 71.7268C67.6083 73.9512 70.2986 75.2258 73.1714 75.2258C78.4317 75.2258 82.7097 70.9463 82.7097 65.6875V50.5757L84.8138 51.2776C85.2263 51.4156 85.6566 51.4854 86.0914 51.4854C88.3172 51.4854 90.129 49.6735 90.129 47.4477V44.3509C90.129 42.6756 89.077 41.1576 87.5085 40.57ZM82.8373 36.7683C83.4071 36.9583 83.8478 37.3678 84.0763 37.9228C84.3063 38.4777 84.2841 39.0787 84.0155 39.6159C83.6876 40.2717 82.9115 40.5908 82.22 40.3593L79.0044 39.2865C78.5904 39.1485 78.2699 38.8502 78.1023 38.4466C77.9361 38.043 77.9509 37.6067 78.1468 37.215C78.5296 36.4478 79.319 35.9878 80.1426 35.9878C80.3741 35.9878 80.6085 36.0249 80.837 36.1006L82.8373 36.7683ZM72.5719 25.4642C72.7455 24.9864 73.2604 24.7 73.7619 24.795L74.7888 24.9997L71.4961 33.2323L69.9692 32.6209L72.5719 25.4642ZM59.5049 44.3034C60.1237 45.0854 60.4516 46.0292 60.4516 47.0323C60.4516 47.2044 60.4086 47.3661 60.3893 47.5338C57.6961 45.9372 54.6719 44.8985 51.5024 44.5453L48.2037 44.1788L47.4544 41.9307C50.7204 40.6086 53.0323 37.4108 53.0323 33.6774V24.7742H56V33.3554C56 37.6171 57.2108 41.4025 59.5049 44.3034ZM41.1613 51.7762L36.8625 45.3288L37.7855 42.5599C37.922 42.5658 38.0555 42.5806 38.1935 42.5806H44.129C44.267 42.5806 44.4006 42.5658 44.5371 42.5599L45.4601 45.3288L41.1613 51.7762ZM32.2581 24.7742H50.0645V33.6774C50.0645 36.9508 47.4025 39.6129 44.129 39.6129H38.1935C34.9201 39.6129 32.2581 36.9508 32.2581 33.6774V24.7742ZM32.3382 18.8387H49.9844L48.9946 21.8065H33.3279L32.3382 18.8387ZM58.9677 18.6992V18.9782C58.9677 20.5377 57.699 21.8065 56.1395 21.8065H52.1226L53.4566 17.8045C53.8425 16.647 54.9212 15.871 56.1395 15.871C57.699 15.871 58.9677 17.1397 58.9677 18.6992ZM30.6214 9.70697C31.3158 8.04355 32.9288 6.96774 34.7317 6.96774H47.5924C49.3953 6.96774 51.0083 8.04355 51.7012 9.70697L53.3379 13.6377C52.4046 14.1541 51.6241 14.9198 51.0928 15.871H31.2297C30.6985 14.9198 29.9165 14.1541 28.9846 13.6377L30.6214 9.70697ZM23.3548 18.6992C23.3548 17.1397 24.6235 15.871 26.1831 15.871C27.4014 15.871 28.4801 16.647 28.8659 17.8045L30.1985 21.8065H26.1816C24.6235 21.8065 23.3548 20.5377 23.3548 18.9782V18.6992ZM21.871 47.0323C21.871 46.0292 22.1989 45.0854 22.8192 44.3019C25.1117 41.4025 26.3226 37.6171 26.3226 33.3554V24.7742H29.2903V33.6774C29.2903 37.4108 31.6022 40.6086 34.8682 41.9292L34.1188 44.1773L31.0457 44.5186C27.7857 44.8806 24.6903 45.9639 21.9466 47.6317C21.9185 47.4329 21.871 47.2385 21.871 47.0323ZM12.9677 65.2156C12.9677 63.3326 13.5375 61.5237 14.6178 59.982L17.6998 55.5794C20.8797 51.0372 25.8626 48.0814 31.3722 47.47L34.4928 47.1243L39.3777 54.4516L36.7097 58.4536V78.1935H30.7742V77.9947C30.7742 74.9439 29.9447 71.9479 28.2991 69.2057C27.0052 67.0512 26.3226 64.582 26.3226 62.0698C26.3226 59.3217 27.1283 56.6596 28.6523 54.373L29.041 53.7898L26.5719 52.1442L26.1831 52.7274C25.5688 53.6488 25.0613 54.6237 24.6428 55.6328L16.8362 65.0019L24.1932 71.4405L21.5104 75.9114L16.8985 72.7196C14.4368 71.0146 12.9677 68.2086 12.9677 65.2156ZM52.1152 81.1613L53.5991 84.129H45.3399C45.5061 83.6631 45.6129 83.1675 45.6129 82.6452C45.6129 82.1228 45.5061 81.6272 45.3399 81.1613H52.1152ZM42.6452 82.6452C42.6452 83.4643 41.9789 84.129 41.1613 84.129C40.3437 84.129 39.6774 83.4643 39.6774 82.6452C39.6774 81.8261 40.3437 81.1613 41.1613 81.1613C41.9789 81.1613 42.6452 81.8261 42.6452 82.6452ZM30.2074 81.1613H36.9827C36.8165 81.6272 36.7097 82.1228 36.7097 82.6452C36.7097 83.1675 36.8165 83.6631 36.9827 84.129H28.7235L30.2074 81.1613ZM24.349 67.6328L20.9703 64.677L23.3652 61.8042C23.3637 61.8932 23.3548 61.9823 23.3548 62.0713C23.3548 63.9632 23.7125 65.8285 24.349 67.6328ZM23.9558 77.603L26.4621 73.4244L27.2366 74.101C27.6046 75.3623 27.8065 76.6711 27.8065 77.9947V79.3257L27.4563 80.0261L23.9558 77.603ZM57.4839 93.0323H24.8387V92.777C24.8387 90.664 25.5999 88.6712 26.977 87.0968H55.3441C56.7226 88.6726 57.4839 90.664 57.4839 92.777V93.0323ZM73.1714 72.2581C71.1934 72.2581 69.3385 71.3796 68.0861 69.8483L58.4929 58.1242C58.0329 56.213 57.245 54.3878 56.1395 52.7274L55.7507 52.1442L53.2815 53.7898L53.6703 54.373C55.1943 56.6596 56 59.3217 56 62.0698C56 64.582 55.3174 67.0512 54.025 69.2028L53.9478 69.3319C52.3779 71.9479 51.5484 74.9454 51.5484 77.9947V78.1935H39.6774V59.3528L47.8313 47.1228L51.1759 47.4937C56.555 48.0917 61.4636 50.9452 64.6465 55.3212L70.8387 63.8371V66.3226H73.8065V54.4516H79.7419V65.6875C79.7419 69.3111 76.795 72.2581 73.1714 72.2581ZM79.7419 51.4839H73.1165L71.4753 49.0221C71.2245 48.6452 71.1934 48.157 71.3966 47.7519L72.8894 44.7664C73.1046 44.3331 73.5394 44.0645 74.0231 44.0645C74.722 44.0645 75.2903 44.6328 75.2903 45.3317V48.1021L79.7419 49.586V51.4839ZM87.1613 47.4463C87.1613 48.1526 86.4238 48.6838 85.7531 48.4612L78.2581 45.9624V45.3317C78.2581 42.9961 76.3587 41.0968 74.0231 41.0968C72.7262 41.0968 71.5539 41.6948 70.7601 42.6726L70.2259 42.4664C68.8177 41.9263 67.871 40.5477 67.871 39.0372C67.871 38.6068 67.9452 38.1854 68.0921 37.7818L68.9542 35.4121L73.1491 37.0903L77.7491 25.5918L78.9006 25.8218C79.3873 25.9197 79.7419 26.3515 79.7419 26.8486V27.1855C79.7419 27.3368 79.7093 27.4882 79.6455 27.6247L76.4166 34.6182C76.056 34.9892 75.734 35.4061 75.4936 35.8884C74.9164 37.0428 74.8689 38.3887 75.363 39.5817C75.8572 40.7748 76.8439 41.6933 78.0681 42.1014L81.2837 43.1742C81.7422 43.327 82.2111 43.3997 82.6756 43.3997C83.4768 43.3997 84.2618 43.1786 84.9459 42.778L86.4683 43.3493C86.8823 43.5051 87.1613 43.9072 87.1613 44.3494V47.4463Z" fill="black"/>
<path d="M45.6129 72.2581H42.6452V75.2258H45.6129V72.2581Z" fill="black"/>
<path d="M45.6129 60.3871H42.6452V63.3548H45.6129V60.3871Z" fill="black"/>
<path d="M45.6129 66.3226H42.6452V69.2903H45.6129V66.3226Z" fill="black"/>
</svg>
